solid extra stuff
facet normal -8.30530930224513e-15 3.25681820550443e-16 -1.0
  outer loop
    vertex 7.004899999999964 3.5000000000000036 -4.000000000000064
    vertex -3.8069547514396615e-14 0.0 -4.000000000000005
    vertex -4.088951399694451e-14 3.499999999999999 -4.000000000000001
  endloop
endfacet
facet normal -8.30530930224513e-15 3.25681820550443e-16 -1.0
  outer loop
    vertex -3.8069547514396615e-14 0.0 -4.000000000000005
    vertex 7.004899999999964 3.5000000000000036 -4.000000000000064
    vertex 7.004899999999966 2.8199664825478975e-15 -4.000000000000062
  endloop
endfacet
facet normal 8.93736321027556e-16 -1.0 -1.4536684135696095e-15
  outer loop
    vertex 7.0048999999999575 8.500000000000005 -4.000000000000048
    vertex -3.242961454930082e-14 8.499999999999996 -2.2500000000000004
    vertex -4.6529446962040307e-14 8.5 -3.999999999999997
  endloop
endfacet
facet normal 8.93736321027556e-16 -1.0 -1.4536684135696095e-15
  outer loop
    vertex -3.242961454930082e-14 8.499999999999996 -2.2500000000000004
    vertex 7.0048999999999575 8.500000000000005 -4.000000000000048
    vertex 7.004899999999972 8.500000000000002 -2.2500000000000457
  endloop
endfacet
facet normal -7.963495183148413e-15 -1.2857275980483553e-15 -1.0
  outer loop
    vertex 7.004899999999955 12.000000000000005 -4.000000000000055
    vertex -4.6529446962040307e-14 8.5 -3.999999999999997
    vertex -4.934941344458821e-14 12.0 -3.9999999999999982
  endloop
endfacet
facet normal -7.963495183148413e-15 -1.2857275980483553e-15 -1.0
  outer loop
    vertex -4.6529446962040307e-14 8.5 -3.999999999999997
    vertex 7.004899999999955 12.000000000000005 -4.000000000000055
    vertex 7.0048999999999575 8.500000000000005 -4.000000000000048
  endloop
endfacet
facet normal -7.963495183148417e-15 1.4536684135696024e-15 -1.0
  outer loop
    vertex 7.004899999999972 8.500000000000002 -2.2500000000000457
    vertex -2.6789681584205025e-14 3.4999999999999964 -2.2499999999999987
    vertex -3.242961454930082e-14 8.499999999999996 -2.2500000000000004
  endloop
endfacet
facet normal -7.963495183148417e-15 1.4536684135696024e-15 -1.0
  outer loop
    vertex -2.6789681584205025e-14 3.4999999999999964 -2.2499999999999987
    vertex 7.004899999999972 8.500000000000002 -2.2500000000000457
    vertex 7.004899999999977 3.5000000000000004 -2.2500000000000613
  endloop
endfacet
facet normal 8.891605400680626e-15 2.1948394383320214e-16 1.0
  outer loop
    vertex -5.639932965095795e-15 -4.229949723821846e-15 1.4099832412739487e-15
    vertex 7.004899999999989 12.000000000000005 -5.710432127159493e-14
    vertex -1.6919798895287383e-14 11.999999999999996 8.459899447643692e-15
  endloop
endfacet
facet normal 8.891605400680626e-15 2.1948394383320214e-16 1.0
  outer loop
    vertex 7.004899999999989 12.000000000000005 -5.710432127159493e-14
    vertex -5.639932965095795e-15 -4.229949723821846e-15 1.4099832412739487e-15
    vertex 7.0048999999999975 1.4099832412739487e-15 -6.133427099541677e-14
  endloop
endfacet
facet normal -8.937363210275553e-16 1.0 1.4536684135696095e-15
  outer loop
    vertex 7.004899999999977 3.5000000000000004 -2.2500000000000613
    vertex -4.088951399694451e-14 3.499999999999999 -4.000000000000001
    vertex -2.6789681584205025e-14 3.4999999999999964 -2.2499999999999987
  endloop
endfacet
facet normal -8.937363210275553e-16 1.0 1.4536684135696095e-15
  outer loop
    vertex -4.088951399694451e-14 3.499999999999999 -4.000000000000001
    vertex 7.004899999999977 3.5000000000000004 -2.2500000000000613
    vertex 7.004899999999964 3.5000000000000036 -4.000000000000064
  endloop
endfacet
facet normal 1.0 8.937363210275675e-16 -8.326672684688674e-15
  outer loop
    vertex 7.004899999999989 12.000000000000005 -5.710432127159493e-14
    vertex 7.0048999999999575 8.500000000000005 -4.000000000000048
    vertex 7.004899999999955 12.000000000000005 -4.000000000000055
  endloop
endfacet
facet normal 1.0 8.937363210275675e-16 -8.326672684688674e-15
  outer loop
    vertex 7.0048999999999575 8.500000000000005 -4.000000000000048
    vertex 7.004899999999989 12.000000000000005 -5.710432127159493e-14
    vertex 7.004899999999972 8.500000000000002 -2.2500000000000457
  endloop
endfacet
facet normal 1.0 8.937363210275675e-16 -8.326672684688674e-15
  outer loop
    vertex 7.004899999999972 8.500000000000002 -2.2500000000000457
    vertex 7.004899999999989 12.000000000000005 -5.710432127159493e-14
    vertex 7.0048999999999975 1.4099832412739487e-15 -6.133427099541677e-14
  endloop
endfacet
facet normal 1.0 8.937363210275675e-16 -8.326672684688674e-15
  outer loop
    vertex 7.004899999999977 3.5000000000000004 -2.2500000000000613
    vertex 7.004899999999966 2.8199664825478975e-15 -4.000000000000062
    vertex 7.004899999999964 3.5000000000000036 -4.000000000000064
  endloop
endfacet
facet normal 1.0 8.937363210275675e-16 -8.326672684688674e-15
  outer loop
    vertex 7.004899999999966 2.8199664825478975e-15 -4.000000000000062
    vertex 7.004899999999977 3.5000000000000004 -2.2500000000000613
    vertex 7.0048999999999975 1.4099832412739487e-15 -6.133427099541677e-14
  endloop
endfacet
facet normal 1.0 8.937363210275675e-16 -8.326672684688674e-15
  outer loop
    vertex 7.0048999999999975 1.4099832412739487e-15 -6.133427099541677e-14
    vertex 7.004899999999977 3.5000000000000004 -2.2500000000000613
    vertex 7.004899999999972 8.500000000000002 -2.2500000000000457
  endloop
endfacet
facet normal -1.0 -8.937363210275675e-16 8.326672684688674e-15
  outer loop
    vertex -5.639932965095795e-15 -4.229949723821846e-15 1.4099832412739487e-15
    vertex -4.088951399694451e-14 3.499999999999999 -4.000000000000001
    vertex -3.8069547514396615e-14 0.0 -4.000000000000005
  endloop
endfacet
facet normal -1.0 -8.937363210275675e-16 8.326672684688674e-15
  outer loop
    vertex -4.088951399694451e-14 3.499999999999999 -4.000000000000001
    vertex -5.639932965095795e-15 -4.229949723821846e-15 1.4099832412739487e-15
    vertex -2.6789681584205025e-14 3.4999999999999964 -2.2499999999999987
  endloop
endfacet
facet normal -1.0 -8.937363210275675e-16 8.326672684688674e-15
  outer loop
    vertex -2.6789681584205025e-14 3.4999999999999964 -2.2499999999999987
    vertex -5.639932965095795e-15 -4.229949723821846e-15 1.4099832412739487e-15
    vertex -3.242961454930082e-14 8.499999999999996 -2.2500000000000004
  endloop
endfacet
facet normal -1.0 -8.937363210275675e-16 8.326672684688674e-15
  outer loop
    vertex -3.242961454930082e-14 8.499999999999996 -2.2500000000000004
    vertex -4.934941344458821e-14 12.0 -3.9999999999999982
    vertex -4.6529446962040307e-14 8.5 -3.999999999999997
  endloop
endfacet
facet normal -1.0 -8.937363210275675e-16 8.326672684688674e-15
  outer loop
    vertex -4.934941344458821e-14 12.0 -3.9999999999999982
    vertex -3.242961454930082e-14 8.499999999999996 -2.2500000000000004
    vertex -1.6919798895287383e-14 11.999999999999996 8.459899447643692e-15
  endloop
endfacet
facet normal -1.0 -8.937363210275675e-16 8.326672684688674e-15
  outer loop
    vertex -1.6919798895287383e-14 11.999999999999996 8.459899447643692e-15
    vertex -3.242961454930082e-14 8.499999999999996 -2.2500000000000004
    vertex -5.639932965095795e-15 -4.229949723821846e-15 1.4099832412739487e-15
  endloop
endfacet
facet normal -9.67855244468609e-16 1.0 6.308726971959196e-16
  outer loop
    vertex 7.004899999999989 12.000000000000005 -5.710432127159493e-14
    vertex -4.934941344458821e-14 12.0 -3.9999999999999982
    vertex -1.6919798895287383e-14 11.999999999999996 8.459899447643692e-15
  endloop
endfacet
facet normal -9.67855244468609e-16 1.0 6.308726971959196e-16
  outer loop
    vertex -4.934941344458821e-14 12.0 -3.9999999999999982
    vertex 7.004899999999989 12.000000000000005 -5.710432127159493e-14
    vertex 7.004899999999955 12.000000000000005 -4.000000000000055
  endloop
endfacet
facet normal 8.321141928178443e-16 -1.0 -8.636793738763115e-16
  outer loop
    vertex 7.004899999999966 2.8199664825478975e-15 -4.000000000000062
    vertex -5.639932965095795e-15 -4.229949723821846e-15 1.4099832412739487e-15
    vertex -3.8069547514396615e-14 0.0 -4.000000000000005
  endloop
endfacet
facet normal 8.321141928178443e-16 -1.0 -8.636793738763115e-16
  outer loop
    vertex -5.639932965095795e-15 -4.229949723821846e-15 1.4099832412739487e-15
    vertex 7.004899999999966 2.8199664825478975e-15 -4.000000000000062
    vertex 7.0048999999999975 1.4099832412739487e-15 -6.133427099541677e-14
  endloop
endfacet
facet normal -8.30530930224513e-15 3.25681820550443e-16 -1.0
  outer loop
    vertex 7.004899999999969 16.800000000000008 -4.000000000000042
    vertex -3.242961454930082e-14 13.300000000000004 -3.9999999999999827
    vertex -3.524958103184872e-14 16.800000000000004 -3.9999999999999787
  endloop
endfacet
facet normal -8.30530930224513e-15 3.25681820550443e-16 -1.0
  outer loop
    vertex -3.242961454930082e-14 13.300000000000004 -3.9999999999999827
    vertex 7.004899999999969 16.800000000000008 -4.000000000000042
    vertex 7.004899999999972 13.300000000000006 -4.00000000000004
  endloop
endfacet
facet normal 8.93736321027556e-16 -1.0 -1.4536684135696095e-15
  outer loop
    vertex 7.004899999999964 21.80000000000001 -4.000000000000026
    vertex -2.6789681584205025e-14 21.8 -2.249999999999978
    vertex -4.088951399694451e-14 21.800000000000004 -3.9999999999999742
  endloop
endfacet
facet normal 8.93736321027556e-16 -1.0 -1.4536684135696095e-15
  outer loop
    vertex -2.6789681584205025e-14 21.8 -2.249999999999978
    vertex 7.004899999999964 21.80000000000001 -4.000000000000026
    vertex 7.004899999999977 21.800000000000004 -2.2500000000000235
  endloop
endfacet
facet normal -7.963495183148413e-15 -1.2857275980483553e-15 -1.0
  outer loop
    vertex 7.00489999999996 25.30000000000001 -4.000000000000033
    vertex -4.088951399694451e-14 21.800000000000004 -3.9999999999999742
    vertex -4.370948047949241e-14 25.300000000000004 -3.9999999999999756
  endloop
endfacet
facet normal -7.963495183148413e-15 -1.2857275980483553e-15 -1.0
  outer loop
    vertex -4.088951399694451e-14 21.800000000000004 -3.9999999999999742
    vertex 7.00489999999996 25.30000000000001 -4.000000000000033
    vertex 7.004899999999964 21.80000000000001 -4.000000000000026
  endloop
endfacet
facet normal -7.963495183148417e-15 1.4536684135696024e-15 -1.0
  outer loop
    vertex 7.004899999999977 21.800000000000004 -2.2500000000000235
    vertex -2.1149748619109232e-14 16.8 -2.249999999999976
    vertex -2.6789681584205025e-14 21.8 -2.249999999999978
  endloop
endfacet
facet normal -7.963495183148417e-15 1.4536684135696024e-15 -1.0
  outer loop
    vertex -2.1149748619109232e-14 16.8 -2.249999999999976
    vertex 7.004899999999977 21.800000000000004 -2.2500000000000235
    vertex 7.004899999999983 16.800000000000004 -2.2500000000000386
  endloop
endfacet
facet normal 8.891605400680626e-15 2.1948394383320214e-16 1.0
  outer loop
    vertex 0.0 13.299999999999999 2.3969715101657127e-14
    vertex 7.004899999999994 25.30000000000001 -3.4544589411211743e-14
    vertex -1.127986593019159e-14 25.3 3.101963130802687e-14
  endloop
endfacet
facet normal 8.891605400680626e-15 2.1948394383320214e-16 1.0
  outer loop
    vertex 7.004899999999994 25.30000000000001 -3.4544589411211743e-14
    vertex 0.0 13.299999999999999 2.3969715101657127e-14
    vertex 7.004900000000003 13.300000000000004 -3.877453913503359e-14
  endloop
endfacet
facet normal -8.937363210275553e-16 1.0 1.4536684135696095e-15
  outer loop
    vertex 7.004899999999983 16.800000000000004 -2.2500000000000386
    vertex -3.524958103184872e-14 16.800000000000004 -3.9999999999999787
    vertex -2.1149748619109232e-14 16.8 -2.249999999999976
  endloop
endfacet
facet normal -8.937363210275553e-16 1.0 1.4536684135696095e-15
  outer loop
    vertex -3.524958103184872e-14 16.800000000000004 -3.9999999999999787
    vertex 7.004899999999983 16.800000000000004 -2.2500000000000386
    vertex 7.004899999999969 16.800000000000008 -4.000000000000042
  endloop
endfacet
facet normal 1.0 8.937363210275675e-16 -8.326672684688674e-15
  outer loop
    vertex 7.004899999999994 25.30000000000001 -3.4544589411211743e-14
    vertex 7.004899999999964 21.80000000000001 -4.000000000000026
    vertex 7.00489999999996 25.30000000000001 -4.000000000000033
  endloop
endfacet
facet normal 1.0 8.937363210275675e-16 -8.326672684688674e-15
  outer loop
    vertex 7.004899999999964 21.80000000000001 -4.000000000000026
    vertex 7.004899999999994 25.30000000000001 -3.4544589411211743e-14
    vertex 7.004899999999977 21.800000000000004 -2.2500000000000235
  endloop
endfacet
facet normal 1.0 8.937363210275675e-16 -8.326672684688674e-15
  outer loop
    vertex 7.004899999999977 21.800000000000004 -2.2500000000000235
    vertex 7.004899999999994 25.30000000000001 -3.4544589411211743e-14
    vertex 7.004900000000003 13.300000000000004 -3.877453913503359e-14
  endloop
endfacet
facet normal 1.0 8.937363210275675e-16 -8.326672684688674e-15
  outer loop
    vertex 7.004899999999983 16.800000000000004 -2.2500000000000386
    vertex 7.004899999999972 13.300000000000006 -4.00000000000004
    vertex 7.004899999999969 16.800000000000008 -4.000000000000042
  endloop
endfacet
facet normal 1.0 8.937363210275675e-16 -8.326672684688674e-15
  outer loop
    vertex 7.004899999999972 13.300000000000006 -4.00000000000004
    vertex 7.004899999999983 16.800000000000004 -2.2500000000000386
    vertex 7.004900000000003 13.300000000000004 -3.877453913503359e-14
  endloop
endfacet
facet normal 1.0 8.937363210275675e-16 -8.326672684688674e-15
  outer loop
    vertex 7.004900000000003 13.300000000000004 -3.877453913503359e-14
    vertex 7.004899999999983 16.800000000000004 -2.2500000000000386
    vertex 7.004899999999977 21.800000000000004 -2.2500000000000235
  endloop
endfacet
facet normal -1.0 -8.937363210275675e-16 8.326672684688674e-15
  outer loop
    vertex 0.0 13.299999999999999 2.3969715101657127e-14
    vertex -3.524958103184872e-14 16.800000000000004 -3.9999999999999787
    vertex -3.242961454930082e-14 13.300000000000004 -3.9999999999999827
  endloop
endfacet
facet normal -1.0 -8.937363210275675e-16 8.326672684688674e-15
  outer loop
    vertex -3.524958103184872e-14 16.800000000000004 -3.9999999999999787
    vertex 0.0 13.299999999999999 2.3969715101657127e-14
    vertex -2.1149748619109232e-14 16.8 -2.249999999999976
  endloop
endfacet
facet normal -1.0 -8.937363210275675e-16 8.326672684688674e-15
  outer loop
    vertex -2.1149748619109232e-14 16.8 -2.249999999999976
    vertex 0.0 13.299999999999999 2.3969715101657127e-14
    vertex -2.6789681584205025e-14 21.8 -2.249999999999978
  endloop
endfacet
facet normal -1.0 -8.937363210275675e-16 8.326672684688674e-15
  outer loop
    vertex -2.6789681584205025e-14 21.8 -2.249999999999978
    vertex -4.370948047949241e-14 25.300000000000004 -3.9999999999999756
    vertex -4.088951399694451e-14 21.800000000000004 -3.9999999999999742
  endloop
endfacet
facet normal -1.0 -8.937363210275675e-16 8.326672684688674e-15
  outer loop
    vertex -4.370948047949241e-14 25.300000000000004 -3.9999999999999756
    vertex -2.6789681584205025e-14 21.8 -2.249999999999978
    vertex -1.127986593019159e-14 25.3 3.101963130802687e-14
  endloop
endfacet
facet normal -1.0 -8.937363210275675e-16 8.326672684688674e-15
  outer loop
    vertex -1.127986593019159e-14 25.3 3.101963130802687e-14
    vertex -2.6789681584205025e-14 21.8 -2.249999999999978
    vertex 0.0 13.299999999999999 2.3969715101657127e-14
  endloop
endfacet
facet normal -9.67855244468609e-16 1.0 6.308726971959196e-16
  outer loop
    vertex 7.004899999999994 25.30000000000001 -3.4544589411211743e-14
    vertex -4.370948047949241e-14 25.300000000000004 -3.9999999999999756
    vertex -1.127986593019159e-14 25.3 3.101963130802687e-14
  endloop
endfacet
facet normal -9.67855244468609e-16 1.0 6.308726971959196e-16
  outer loop
    vertex -4.370948047949241e-14 25.300000000000004 -3.9999999999999756
    vertex 7.004899999999994 25.30000000000001 -3.4544589411211743e-14
    vertex 7.00489999999996 25.30000000000001 -4.000000000000033
  endloop
endfacet
facet normal 8.321141928178443e-16 -1.0 -8.636793738763115e-16
  outer loop
    vertex 7.004899999999972 13.300000000000006 -4.00000000000004
    vertex 0.0 13.299999999999999 2.3969715101657127e-14
    vertex -3.242961454930082e-14 13.300000000000004 -3.9999999999999827
  endloop
endfacet
facet normal 8.321141928178443e-16 -1.0 -8.636793738763115e-16
  outer loop
    vertex 0.0 13.299999999999999 2.3969715101657127e-14
    vertex 7.004899999999972 13.300000000000006 -4.00000000000004
    vertex 7.004900000000003 13.300000000000004 -3.877453913503359e-14
  endloop
endfacet
endsolid extra stuff
