solid hall sensor mount
facet normal -1.0 -6.626643678231404e-16 -1.729256468658585e-16
  outer loop
    vertex -9.15760522968157e-15 8.500000000000014 15.999999999999996
    vertex -7.663314427475125e-15 12.0 -8.459899447643692e-15
    vertex -5.343989140094136e-15 8.5 -5.639932965095795e-15
  endloop
endfacet
facet normal -1.0 -6.626643678231404e-16 -1.729256468658585e-16
  outer loop
    vertex -7.663314427475125e-15 12.0 -8.459899447643692e-15
    vertex -9.15760522968157e-15 8.500000000000014 15.999999999999996
    vertex -1.1476930517062556e-14 12.000000000000014 15.999999999999993
  endloop
endfacet
facet normal -1.7906509608422994e-15 1.0 -7.049916206369695e-16
  outer loop
    vertex 5.4355825396257236e-15 3.500000000000012 15.999999999999998
    vertex 1.7499999999999976 3.500000000000004 -2.8199664825478975e-15
    vertex -2.0306673009784333e-15 3.5000000000000004 -2.8199664825478975e-15
  endloop
endfacet
facet normal -1.7906509608422994e-15 1.0 -7.049916206369695e-16
  outer loop
    vertex 1.7499999999999976 3.500000000000004 -2.8199664825478975e-15
    vertex 5.4355825396257236e-15 3.500000000000012 15.999999999999998
    vertex 1.7500000000000049 3.5000000000000155 15.999999999999998
  endloop
endfacet
facet normal -1.0 9.487450507756583e-16 1.6888847223085515e-16
  outer loop
    vertex -3.5249581031848744e-15 1.1279865930191585e-14 16.0
    vertex -2.0306673009784333e-15 3.5000000000000004 -2.8199664825478975e-15
    vertex 2.886579864025602e-16 6.762510110007123e-29 0.0
  endloop
endfacet
facet normal -1.0 9.487450507756583e-16 1.6888847223085515e-16
  outer loop
    vertex -2.0306673009784333e-15 3.5000000000000004 -2.8199664825478975e-15
    vertex -3.5249581031848744e-15 1.1279865930191585e-14 16.0
    vertex 5.4355825396257236e-15 3.500000000000012 15.999999999999998
  endloop
endfacet
facet normal -1.0 -1.7906509608422994e-15 1.6888847223085717e-16
  outer loop
    vertex 1.7500000000000049 3.5000000000000155 15.999999999999998
    vertex 1.7499999999999942 8.500000000000004 -5.639932965095795e-15
    vertex 1.7499999999999976 3.500000000000004 -2.8199664825478975e-15
  endloop
endfacet
facet normal -1.0 -1.7906509608422994e-15 1.6888847223085717e-16
  outer loop
    vertex 1.7499999999999942 8.500000000000004 -5.639932965095795e-15
    vertex 1.7500000000000049 3.5000000000000155 15.999999999999998
    vertex 1.7499999999999905 8.500000000000016 15.999999999999996
  endloop
endfacet
facet normal 1.0 6.626643678231404e-16 1.94289029309402e-16
  outer loop
    vertex 3.9999999999999942 12.000000000000005 2.9999999999999916
    vertex 3.999999999999998 1.393052340148415e-14 16.0
    vertex 4.000000000000002 4.765632333203541e-15 3.0
  endloop
endfacet
facet normal 1.0 6.626643678231404e-16 1.94289029309402e-16
  outer loop
    vertex 3.999999999999998 1.393052340148415e-14 16.0
    vertex 3.9999999999999942 12.000000000000005 2.9999999999999916
    vertex 3.99999999999999 12.000000000000018 15.999999999999993
  endloop
endfacet
facet normal 1.7906509608422994e-15 -1.0 7.049916206369703e-16
  outer loop
    vertex 1.7499999999999905 8.500000000000016 15.999999999999996
    vertex -5.343989140094136e-15 8.5 -5.639932965095795e-15
    vertex 1.7499999999999942 8.500000000000004 -5.639932965095795e-15
  endloop
endfacet
facet normal 1.7906509608422994e-15 -1.0 7.049916206369703e-16
  outer loop
    vertex -5.343989140094136e-15 8.5 -5.639932965095795e-15
    vertex 1.7499999999999905 8.500000000000016 15.999999999999996
    vertex -9.15760522968157e-15 8.500000000000014 15.999999999999996
  endloop
endfacet
facet normal -1.9428902930940407e-16 7.049916206369696e-16 1.0
  outer loop
    vertex 3.999999999999998 1.393052340148415e-14 16.0
    vertex 5.4355825396257236e-15 3.500000000000012 15.999999999999998
    vertex -3.5249581031848744e-15 1.1279865930191585e-14 16.0
  endloop
endfacet
facet normal -1.9428902930940407e-16 7.049916206369696e-16 1.0
  outer loop
    vertex 5.4355825396257236e-15 3.500000000000012 15.999999999999998
    vertex 3.999999999999998 1.393052340148415e-14 16.0
    vertex 1.7500000000000049 3.5000000000000155 15.999999999999998
  endloop
endfacet
facet normal -1.9428902930940407e-16 7.049916206369696e-16 1.0
  outer loop
    vertex 1.7500000000000049 3.5000000000000155 15.999999999999998
    vertex 3.999999999999998 1.393052340148415e-14 16.0
    vertex 3.99999999999999 12.000000000000018 15.999999999999993
  endloop
endfacet
facet normal -1.9428902930940407e-16 7.049916206369696e-16 1.0
  outer loop
    vertex -9.15760522968157e-15 8.500000000000014 15.999999999999996
    vertex 3.99999999999999 12.000000000000018 15.999999999999993
    vertex -1.1476930517062556e-14 12.000000000000014 15.999999999999993
  endloop
endfacet
facet normal -1.9428902930940407e-16 7.049916206369696e-16 1.0
  outer loop
    vertex 3.99999999999999 12.000000000000018 15.999999999999993
    vertex -9.15760522968157e-15 8.500000000000014 15.999999999999996
    vertex 1.7499999999999905 8.500000000000016 15.999999999999996
  endloop
endfacet
facet normal -1.9428902930940407e-16 7.049916206369696e-16 1.0
  outer loop
    vertex 3.99999999999999 12.000000000000018 15.999999999999993
    vertex 1.7499999999999905 8.500000000000016 15.999999999999996
    vertex 1.7500000000000049 3.5000000000000155 15.999999999999998
  endloop
endfacet
facet normal -1.942890293094025e-16 7.049916206369698e-16 1.0
  outer loop
    vertex 4.000000000000002 4.765632333203541e-15 3.0
    vertex 11.999999999999993 12.000000000000012 2.9999999999999947
    vertex 3.9999999999999942 12.000000000000005 2.9999999999999916
  endloop
endfacet
facet normal -1.942890293094025e-16 7.049916206369698e-16 1.0
  outer loop
    vertex 11.999999999999993 12.000000000000012 2.9999999999999947
    vertex 4.000000000000002 4.765632333203541e-15 3.0
    vertex 12.000000000000002 1.0066947275788663e-14 3.000000000000003
  endloop
endfacet
facet normal 1.9428902930940407e-16 -7.049916206369697e-16 -1.0
  outer loop
    vertex 11.999999999999986 12.000000000000009 -5.639932965095795e-15
    vertex -5.343989140094136e-15 8.5 -5.639932965095795e-15
    vertex -7.663314427475125e-15 12.0 -8.459899447643692e-15
  endloop
endfacet
facet normal 1.9428902930940407e-16 -7.049916206369697e-16 -1.0
  outer loop
    vertex -5.343989140094136e-15 8.5 -5.639932965095795e-15
    vertex 11.999999999999986 12.000000000000009 -5.639932965095795e-15
    vertex 1.7499999999999942 8.500000000000004 -5.639932965095795e-15
  endloop
endfacet
facet normal 1.9428902930940407e-16 -7.049916206369697e-16 -1.0
  outer loop
    vertex 1.7499999999999942 8.500000000000004 -5.639932965095795e-15
    vertex 11.999999999999986 12.000000000000009 -5.639932965095795e-15
    vertex 1.7499999999999976 3.500000000000004 -2.8199664825478975e-15
  endloop
endfacet
facet normal 1.9428902930940407e-16 -7.049916206369697e-16 -1.0
  outer loop
    vertex 1.7499999999999976 3.500000000000004 -2.8199664825478975e-15
    vertex 2.886579864025602e-16 6.762510110007123e-29 0.0
    vertex -2.0306673009784333e-15 3.5000000000000004 -2.8199664825478975e-15
  endloop
endfacet
facet normal 1.9428902930940407e-16 -7.049916206369697e-16 -1.0
  outer loop
    vertex 2.886579864025602e-16 6.762510110007123e-29 0.0
    vertex 1.7499999999999976 3.500000000000004 -2.8199664825478975e-15
    vertex 11.999999999999993 7.951972413877747e-15 2.8199664825478975e-15
  endloop
endfacet
facet normal 1.9428902930940407e-16 -7.049916206369697e-16 -1.0
  outer loop
    vertex 11.999999999999993 7.951972413877747e-15 2.8199664825478975e-15
    vertex 1.7499999999999976 3.500000000000004 -2.8199664825478975e-15
    vertex 11.999999999999986 12.000000000000009 -5.639932965095795e-15
  endloop
endfacet
facet normal 6.626643678231403e-16 -1.0 7.049916206369701e-16
  outer loop
    vertex 12.000000000000002 1.0066947275788663e-14 3.000000000000003
    vertex 4.000000000000002 4.765632333203541e-15 3.0
    vertex 11.999999999999993 7.951972413877747e-15 2.8199664825478975e-15
  endloop
endfacet
facet normal 6.626643678231403e-16 -1.0 7.049916206369701e-16
  outer loop
    vertex 2.886579864025602e-16 6.762510110007123e-29 0.0
    vertex 4.000000000000002 4.765632333203541e-15 3.0
    vertex -3.5249581031848744e-15 1.1279865930191585e-14 16.0
  endloop
endfacet
facet normal 6.626643678231403e-16 -1.0 7.049916206369701e-16
  outer loop
    vertex 4.000000000000002 4.765632333203541e-15 3.0
    vertex 2.886579864025602e-16 6.762510110007123e-29 0.0
    vertex 11.999999999999993 7.951972413877747e-15 2.8199664825478975e-15
  endloop
endfacet
facet normal 6.626643678231403e-16 -1.0 7.049916206369701e-16
  outer loop
    vertex -3.5249581031848744e-15 1.1279865930191585e-14 16.0
    vertex 4.000000000000002 4.765632333203541e-15 3.0
    vertex 3.999999999999998 1.393052340148415e-14 16.0
  endloop
endfacet
facet normal -6.626643678231403e-16 1.0 -7.049916206369701e-16
  outer loop
    vertex 11.999999999999993 12.000000000000012 2.9999999999999947
    vertex 11.999999999999986 12.000000000000009 -5.639932965095795e-15
    vertex 3.9999999999999942 12.000000000000005 2.9999999999999916
  endloop
endfacet
facet normal -6.626643678231403e-16 1.0 -7.049916206369701e-16
  outer loop
    vertex -7.663314427475125e-15 12.0 -8.459899447643692e-15
    vertex 3.9999999999999942 12.000000000000005 2.9999999999999916
    vertex 11.999999999999986 12.000000000000009 -5.639932965095795e-15
  endloop
endfacet
facet normal -6.626643678231403e-16 1.0 -7.049916206369701e-16
  outer loop
    vertex 3.9999999999999942 12.000000000000005 2.9999999999999916
    vertex -7.663314427475125e-15 12.0 -8.459899447643692e-15
    vertex -1.1476930517062556e-14 12.000000000000014 15.999999999999993
  endloop
endfacet
facet normal -6.626643678231403e-16 1.0 -7.049916206369701e-16
  outer loop
    vertex 3.9999999999999942 12.000000000000005 2.9999999999999916
    vertex -1.1476930517062556e-14 12.000000000000014 15.999999999999993
    vertex 3.99999999999999 12.000000000000018 15.999999999999993
  endloop
endfacet
facet normal 1.0 6.626643678231404e-16 1.942890293094022e-16
  outer loop
    vertex 11.999999999999986 12.000000000000009 -5.639932965095795e-15
    vertex 12.000000000000002 1.0066947275788663e-14 3.000000000000003
    vertex 11.999999999999993 7.951972413877747e-15 2.8199664825478975e-15
  endloop
endfacet
facet normal 1.0 6.626643678231404e-16 1.942890293094022e-16
  outer loop
    vertex 12.000000000000002 1.0066947275788663e-14 3.000000000000003
    vertex 11.999999999999986 12.000000000000009 -5.639932965095795e-15
    vertex 11.999999999999993 12.000000000000012 2.9999999999999947
  endloop
endfacet
facet normal -0.793353340291235 -0.6087614290087211 3.0120673175427516e-16
  outer loop
    vertex 17.482050807568925 4.499999999999915 2.995100000000036
    vertex 17.16421356237314 4.914213562373009 3.56020768421672e-14
    vertex 17.482050807568925 4.499999999999913 3.630706846280418e-14
  endloop
endfacet
facet normal -0.793353340291235 -0.6087614290087211 3.0120673175427516e-16
  outer loop
    vertex 17.16421356237314 4.914213562373009 3.56020768421672e-14
    vertex 17.482050807568925 4.499999999999915 2.995100000000036
    vertex 17.16421356237314 4.914213562373011 2.995100000000036
  endloop
endfacet
facet normal -0.13052619222005213 -0.9914448613738105 6.779069250551049e-16
  outer loop
    vertex 16.26763809020509 5.4318516525780485 3.542582893700796e-14
    vertex 15.750000000000044 5.499999999999916 2.9951000000000354
    vertex 15.750000000000044 5.499999999999914 3.524958103184872e-14
  endloop
endfacet
facet normal -0.13052619222005213 -0.9914448613738105 6.779069250551049e-16
  outer loop
    vertex 15.750000000000044 5.499999999999916 2.9951000000000354
    vertex 16.26763809020509 5.4318516525780485 3.542582893700796e-14
    vertex 16.26763809020509 5.431851652578052 2.995100000000035
  endloop
endfacet
facet normal 0.6087614290087204 -0.7933533402912355 6.574984356852964e-16
  outer loop
    vertex 14.750000000000046 5.232050807568792 2.9951000000000354
    vertex 14.335786437626952 4.914213562373008 3.56020768421672e-14
    vertex 14.750000000000046 5.23205080756879 3.524958103184872e-14
  endloop
endfacet
facet normal 0.6087614290087204 -0.7933533402912355 6.574984356852964e-16
  outer loop
    vertex 14.335786437626952 4.914213562373008 3.56020768421672e-14
    vertex 14.750000000000046 5.232050807568792 2.9951000000000354
    vertex 14.335786437626952 4.91421356237301 2.995100000000036
  endloop
endfacet
facet normal -0.3826834323650896 -0.923879532511287 5.896018993327352e-16
  outer loop
    vertex 16.75000000000005 5.2320508075687915 2.995100000000036
    vertex 16.26763809020509 5.4318516525780485 3.542582893700796e-14
    vertex 16.75000000000005 5.23205080756879 3.542582893700796e-14
  endloop
endfacet
facet normal -0.3826834323650896 -0.923879532511287 5.896018993327352e-16
  outer loop
    vertex 16.26763809020509 5.4318516525780485 3.542582893700796e-14
    vertex 16.75000000000005 5.2320508075687915 2.995100000000036
    vertex 16.26763809020509 5.431851652578052 2.995100000000035
  endloop
endfacet
facet normal -0.6087614290087205 -0.7933533402912352 4.611164785340472e-16
  outer loop
    vertex 17.16421356237314 4.914213562373009 3.56020768421672e-14
    vertex 16.75000000000005 5.2320508075687915 2.995100000000036
    vertex 16.75000000000005 5.23205080756879 3.542582893700796e-14
  endloop
endfacet
facet normal -0.6087614290087205 -0.7933533402912352 4.611164785340472e-16
  outer loop
    vertex 16.75000000000005 5.2320508075687915 2.995100000000036
    vertex 17.16421356237314 4.914213562373009 3.56020768421672e-14
    vertex 17.16421356237314 4.914213562373011 2.995100000000036
  endloop
endfacet
facet normal -0.9238795325112867 -0.3826834323650901 1.2077024397310835e-16
  outer loop
    vertex 17.68185165257818 4.017638090204956 2.9951000000000367
    vertex 17.482050807568925 4.499999999999913 3.630706846280418e-14
    vertex 17.68185165257818 4.017638090204954 3.630706846280418e-14
  endloop
endfacet
facet normal -0.9238795325112867 -0.3826834323650901 1.2077024397310835e-16
  outer loop
    vertex 17.482050807568925 4.499999999999913 3.630706846280418e-14
    vertex 17.68185165257818 4.017638090204956 2.9951000000000367
    vertex 17.482050807568925 4.499999999999915 2.995100000000036
  endloop
endfacet
facet normal -0.9914448613738104 -0.1305261922200518 -6.78965363525608e-17
  outer loop
    vertex 17.750000000000046 3.499999999999915 2.995100000000037
    vertex 17.68185165257818 4.017638090204954 3.630706846280418e-14
    vertex 17.750000000000046 3.4999999999999134 3.683581217828191e-14
  endloop
endfacet
facet normal -0.9914448613738104 -0.1305261922200518 -6.78965363525608e-17
  outer loop
    vertex 17.68185165257818 4.017638090204954 3.630706846280418e-14
    vertex 17.750000000000046 3.499999999999915 2.995100000000037
    vertex 17.68185165257818 4.017638090204956 2.9951000000000367
  endloop
endfacet
facet normal 0.3826834323650907 -0.9238795325112863 7.130527584641816e-16
  outer loop
    vertex 15.232361909795005 5.431851652578052 2.9951000000000345
    vertex 14.750000000000046 5.23205080756879 3.524958103184872e-14
    vertex 15.232361909795005 5.4318516525780485 3.524958103184872e-14
  endloop
endfacet
facet normal 0.3826834323650907 -0.9238795325112863 7.130527584641816e-16
  outer loop
    vertex 14.750000000000046 5.23205080756879 3.524958103184872e-14
    vertex 15.232361909795005 5.431851652578052 2.9951000000000345
    vertex 14.750000000000046 5.232050807568792 2.9951000000000354
  endloop
endfacet
facet normal 0.13052619222005246 -0.9914448613738103 7.200137141291328e-16
  outer loop
    vertex 15.750000000000044 5.499999999999916 2.9951000000000354
    vertex 15.232361909795005 5.4318516525780485 3.524958103184872e-14
    vertex 15.750000000000044 5.499999999999914 3.524958103184872e-14
  endloop
endfacet
facet normal 0.13052619222005246 -0.9914448613738103 7.200137141291328e-16
  outer loop
    vertex 15.232361909795005 5.4318516525780485 3.524958103184872e-14
    vertex 15.750000000000044 5.499999999999916 2.9951000000000354
    vertex 15.232361909795005 5.431851652578052 2.9951000000000345
  endloop
endfacet
facet normal -0.7933533402912357 0.60876142900872 -5.571366810819966e-16
  outer loop
    vertex 17.16421356237314 2.0857864376268203 2.995100000000037
    vertex 17.48205080756893 2.499999999999913 3.7717051704078127e-14
    vertex 17.164213562373142 2.085786437626818 3.7893299609237374e-14
  endloop
endfacet
facet normal -0.7933533402912357 0.60876142900872 -5.571366810819966e-16
  outer loop
    vertex 17.48205080756893 2.499999999999913 3.7717051704078127e-14
    vertex 17.16421356237314 2.0857864376268203 2.995100000000037
    vertex 17.482050807568925 2.499999999999915 2.995100000000037
  endloop
endfacet
facet normal -0.9914448613738105 0.13052619222005163 -2.519362799301349e-16
  outer loop
    vertex 17.68185165257818 2.9823619097948733 2.995100000000037
    vertex 17.750000000000046 3.4999999999999134 3.683581217828191e-14
    vertex 17.68185165257818 2.982361909794872 3.736455589375964e-14
  endloop
endfacet
facet normal -0.9914448613738105 0.13052619222005163 -2.519362799301349e-16
  outer loop
    vertex 17.750000000000046 3.4999999999999134 3.683581217828191e-14
    vertex 17.68185165257818 2.9823619097948733 2.995100000000037
    vertex 17.750000000000046 3.499999999999915 2.995100000000037
  endloop
endfacet
facet normal -0.9238795325112867 0.3826834323650898 -4.1880698237485786e-16
  outer loop
    vertex 17.482050807568925 2.499999999999915 2.995100000000037
    vertex 17.68185165257818 2.982361909794872 3.736455589375964e-14
    vertex 17.48205080756893 2.499999999999913 3.7717051704078127e-14
  endloop
endfacet
facet normal -0.9238795325112867 0.3826834323650898 -4.1880698237485786e-16
  outer loop
    vertex 17.68185165257818 2.982361909794872 3.736455589375964e-14
    vertex 17.482050807568925 2.499999999999915 2.995100000000037
    vertex 17.68185165257818 2.9823619097948733 2.995100000000037
  endloop
endfacet
facet normal 1.0 6.626643678231404e-16 1.942890293094021e-16
  outer loop
    vertex 19.500000000000036 20.999999999999915 2.502720253261259e-14
    vertex 19.50000000000005 -1.0000000000000828 2.995100000000039
    vertex 19.50000000000005 -1.0000000000000848 4.053701818662603e-14
  endloop
endfacet
facet normal 1.0 6.626643678231404e-16 1.942890293094021e-16
  outer loop
    vertex 19.50000000000005 -1.0000000000000828 2.995100000000039
    vertex 19.500000000000036 20.999999999999915 2.502720253261259e-14
    vertex 19.500000000000036 20.999999999999915 2.995100000000024
  endloop
endfacet
facet normal -1.942890293094025e-16 7.049916206369698e-16 1.0
  outer loop
    vertex 13.750000000000048 3.4999999999999147 2.995100000000036
    vertex 13.818148347421905 11.982361909794873 2.995100000000025
    vertex 13.750000000000043 12.499999999999913 2.9951000000000247
  endloop
endfacet
facet normal -1.942890293094025e-16 7.049916206369698e-16 1.0
  outer loop
    vertex 13.818148347421905 11.982361909794873 2.995100000000025
    vertex 13.750000000000048 3.4999999999999147 2.995100000000036
    vertex 13.818148347421912 4.017638090204956 2.995100000000036
  endloop
endfacet
facet normal -1.942890293094025e-16 7.049916206369698e-16 1.0
  outer loop
    vertex 13.818148347421905 11.982361909794873 2.995100000000025
    vertex 13.818148347421912 4.017638090204956 2.995100000000036
    vertex 14.017949192431166 11.499999999999913 2.995100000000025
  endloop
endfacet
facet normal -1.942890293094025e-16 7.049916206369698e-16 1.0
  outer loop
    vertex 14.017949192431166 11.499999999999913 2.995100000000025
    vertex 13.818148347421912 4.017638090204956 2.995100000000036
    vertex 14.017949192431171 4.499999999999915 2.9951000000000354
  endloop
endfacet
facet normal -1.942890293094025e-16 7.049916206369698e-16 1.0
  outer loop
    vertex 14.017949192431166 11.499999999999913 2.995100000000025
    vertex 14.017949192431171 4.499999999999915 2.9951000000000354
    vertex 14.335786437626949 11.085786437626817 2.995100000000026
  endloop
endfacet
facet normal -1.942890293094025e-16 7.049916206369698e-16 1.0
  outer loop
    vertex 14.335786437626949 11.085786437626817 2.995100000000026
    vertex 14.017949192431171 4.499999999999915 2.9951000000000354
    vertex 14.335786437626952 4.91421356237301 2.995100000000036
  endloop
endfacet
facet normal -1.942890293094025e-16 7.049916206369698e-16 1.0
  outer loop
    vertex 14.335786437626949 11.085786437626817 2.995100000000026
    vertex 14.335786437626952 4.91421356237301 2.995100000000036
    vertex 14.750000000000043 10.767949192431036 2.995100000000026
  endloop
endfacet
facet normal -1.942890293094025e-16 7.049916206369698e-16 1.0
  outer loop
    vertex 14.750000000000043 10.767949192431036 2.995100000000026
    vertex 14.335786437626952 4.91421356237301 2.995100000000036
    vertex 14.750000000000046 5.232050807568792 2.9951000000000354
  endloop
endfacet
facet normal -1.942890293094025e-16 7.049916206369698e-16 1.0
  outer loop
    vertex 14.750000000000043 10.767949192431036 2.995100000000026
    vertex 14.750000000000046 5.232050807568792 2.9951000000000354
    vertex 15.232361909795 10.56814834742178 2.995100000000026
  endloop
endfacet
facet normal -1.942890293094025e-16 7.049916206369698e-16 1.0
  outer loop
    vertex 15.232361909795 10.56814834742178 2.995100000000026
    vertex 14.750000000000046 5.232050807568792 2.9951000000000354
    vertex 15.232361909795005 5.431851652578052 2.9951000000000345
  endloop
endfacet
facet normal -1.942890293094025e-16 7.049916206369698e-16 1.0
  outer loop
    vertex 15.232361909795 10.56814834742178 2.995100000000026
    vertex 15.232361909795005 5.431851652578052 2.9951000000000345
    vertex 15.75000000000004 10.499999999999917 2.9951000000000274
  endloop
endfacet
facet normal -1.942890293094025e-16 7.049916206369698e-16 1.0
  outer loop
    vertex 15.75000000000004 10.499999999999917 2.9951000000000274
    vertex 15.232361909795005 5.431851652578052 2.9951000000000345
    vertex 15.750000000000044 5.499999999999916 2.9951000000000354
  endloop
endfacet
facet normal -1.942890293094025e-16 7.049916206369698e-16 1.0
  outer loop
    vertex 15.75000000000004 10.499999999999917 2.9951000000000274
    vertex 15.750000000000044 5.499999999999916 2.9951000000000354
    vertex 16.267638090205082 10.568148347421777 2.995100000000027
  endloop
endfacet
facet normal -1.942890293094025e-16 7.049916206369698e-16 1.0
  outer loop
    vertex 16.267638090205082 10.568148347421777 2.995100000000027
    vertex 15.750000000000044 5.499999999999916 2.9951000000000354
    vertex 16.26763809020509 5.431851652578052 2.995100000000035
  endloop
endfacet
facet normal -1.942890293094025e-16 7.049916206369698e-16 1.0
  outer loop
    vertex 16.267638090205082 10.568148347421777 2.995100000000027
    vertex 16.26763809020509 5.431851652578052 2.995100000000035
    vertex 16.750000000000043 10.767949192431036 2.9951000000000274
  endloop
endfacet
facet normal -1.942890293094025e-16 7.049916206369698e-16 1.0
  outer loop
    vertex 16.750000000000043 10.767949192431036 2.9951000000000274
    vertex 16.26763809020509 5.431851652578052 2.995100000000035
    vertex 16.75000000000005 5.2320508075687915 2.995100000000036
  endloop
endfacet
facet normal -1.942890293094025e-16 7.049916206369698e-16 1.0
  outer loop
    vertex 16.750000000000043 10.767949192431036 2.9951000000000274
    vertex 16.75000000000005 5.2320508075687915 2.995100000000036
    vertex 17.16421356237314 11.085786437626817 2.995100000000026
  endloop
endfacet
facet normal -1.942890293094025e-16 7.049916206369698e-16 1.0
  outer loop
    vertex 17.16421356237314 11.085786437626817 2.995100000000026
    vertex 16.75000000000005 5.2320508075687915 2.995100000000036
    vertex 17.16421356237314 4.914213562373011 2.995100000000036
  endloop
endfacet
facet normal -1.942890293094025e-16 7.049916206369698e-16 1.0
  outer loop
    vertex 17.16421356237314 11.085786437626817 2.995100000000026
    vertex 17.16421356237314 4.914213562373011 2.995100000000036
    vertex 17.482050807568925 4.499999999999915 2.995100000000036
  endloop
endfacet
facet normal -1.942890293094025e-16 7.049916206369698e-16 1.0
  outer loop
    vertex 17.16421356237314 11.085786437626817 2.995100000000026
    vertex 17.482050807568925 4.499999999999915 2.995100000000036
    vertex 17.48205080756892 11.499999999999915 2.9951000000000265
  endloop
endfacet
facet normal -1.942890293094025e-16 7.049916206369698e-16 1.0
  outer loop
    vertex 17.48205080756892 11.499999999999915 2.9951000000000265
    vertex 17.482050807568925 4.499999999999915 2.995100000000036
    vertex 17.681851652578178 11.982361909794873 2.995100000000026
  endloop
endfacet
facet normal -1.942890293094025e-16 7.049916206369698e-16 1.0
  outer loop
    vertex 17.681851652578178 11.982361909794873 2.995100000000026
    vertex 17.482050807568925 4.499999999999915 2.995100000000036
    vertex 17.68185165257818 4.017638090204956 2.9951000000000367
  endloop
endfacet
facet normal -1.942890293094025e-16 7.049916206369698e-16 1.0
  outer loop
    vertex 17.681851652578178 11.982361909794873 2.995100000000026
    vertex 17.68185165257818 4.017638090204956 2.9951000000000367
    vertex 17.75000000000004 12.499999999999917 2.9951000000000265
  endloop
endfacet
facet normal -1.942890293094025e-16 7.049916206369698e-16 1.0
  outer loop
    vertex 17.75000000000004 12.499999999999917 2.9951000000000265
    vertex 17.68185165257818 4.017638090204956 2.9951000000000367
    vertex 17.750000000000046 3.499999999999915 2.995100000000037
  endloop
endfacet
facet normal -1.942890293094025e-16 7.049916206369698e-16 1.0
  outer loop
    vertex 12.00000000000005 -1.0000000000000877 2.995100000000037
    vertex 13.750000000000048 3.4999999999999147 2.995100000000036
    vertex 13.750000000000043 12.499999999999913 2.9951000000000247
  endloop
endfacet
facet normal -1.942890293094025e-16 7.049916206369698e-16 1.0
  outer loop
    vertex 13.750000000000048 3.4999999999999147 2.995100000000036
    vertex 12.00000000000005 -1.0000000000000877 2.995100000000037
    vertex 13.818148347421912 2.982361909794872 2.9951000000000363
  endloop
endfacet
facet normal -1.942890293094025e-16 7.049916206369698e-16 1.0
  outer loop
    vertex 13.818148347421912 2.982361909794872 2.9951000000000363
    vertex 12.00000000000005 -1.0000000000000877 2.995100000000037
    vertex 14.017949192431171 2.499999999999915 2.9951000000000367
  endloop
endfacet
facet normal -1.942890293094025e-16 7.049916206369698e-16 1.0
  outer loop
    vertex 14.017949192431171 2.499999999999915 2.9951000000000367
    vertex 12.00000000000005 -1.0000000000000877 2.995100000000037
    vertex 14.335786437626952 2.085786437626819 2.9951000000000367
  endloop
endfacet
facet normal -1.942890293094025e-16 7.049916206369698e-16 1.0
  outer loop
    vertex 14.335786437626952 2.085786437626819 2.9951000000000367
    vertex 12.00000000000005 -1.0000000000000877 2.995100000000037
    vertex 14.750000000000046 1.7679491924310373 2.995100000000037
  endloop
endfacet
facet normal -1.942890293094025e-16 7.049916206369698e-16 1.0
  outer loop
    vertex 14.750000000000046 1.7679491924310373 2.995100000000037
    vertex 12.00000000000005 -1.0000000000000877 2.995100000000037
    vertex 19.50000000000005 -1.0000000000000828 2.995100000000039
  endloop
endfacet
facet normal -1.942890293094025e-16 7.049916206369698e-16 1.0
  outer loop
    vertex 14.750000000000046 1.7679491924310373 2.995100000000037
    vertex 19.50000000000005 -1.0000000000000828 2.995100000000039
    vertex 15.232361909795005 1.5681483474217783 2.995100000000037
  endloop
endfacet
facet normal -1.942890293094025e-16 7.049916206369698e-16 1.0
  outer loop
    vertex 15.232361909795005 1.5681483474217783 2.995100000000037
    vertex 19.50000000000005 -1.0000000000000828 2.995100000000039
    vertex 15.75000000000005 1.4999999999999152 2.995100000000038
  endloop
endfacet
facet normal -1.942890293094025e-16 7.049916206369698e-16 1.0
  outer loop
    vertex 15.75000000000005 1.4999999999999152 2.995100000000038
    vertex 19.50000000000005 -1.0000000000000828 2.995100000000039
    vertex 16.26763809020509 1.5681483474217786 2.9951000000000385
  endloop
endfacet
facet normal -1.942890293094025e-16 7.049916206369698e-16 1.0
  outer loop
    vertex 16.26763809020509 1.5681483474217786 2.9951000000000385
    vertex 19.50000000000005 -1.0000000000000828 2.995100000000039
    vertex 16.750000000000046 1.7679491924310384 2.995100000000038
  endloop
endfacet
facet normal -1.942890293094025e-16 7.049916206369698e-16 1.0
  outer loop
    vertex 16.750000000000046 1.7679491924310384 2.995100000000038
    vertex 19.50000000000005 -1.0000000000000828 2.995100000000039
    vertex 17.16421356237314 2.0857864376268203 2.995100000000037
  endloop
endfacet
facet normal -1.942890293094025e-16 7.049916206369698e-16 1.0
  outer loop
    vertex 17.16421356237314 2.0857864376268203 2.995100000000037
    vertex 19.50000000000005 -1.0000000000000828 2.995100000000039
    vertex 17.482050807568925 2.499999999999915 2.995100000000037
  endloop
endfacet
facet normal -1.942890293094025e-16 7.049916206369698e-16 1.0
  outer loop
    vertex 17.482050807568925 2.499999999999915 2.995100000000037
    vertex 19.50000000000005 -1.0000000000000828 2.995100000000039
    vertex 17.68185165257818 2.9823619097948733 2.995100000000037
  endloop
endfacet
facet normal -1.942890293094025e-16 7.049916206369698e-16 1.0
  outer loop
    vertex 17.68185165257818 2.9823619097948733 2.995100000000037
    vertex 19.50000000000005 -1.0000000000000828 2.995100000000039
    vertex 17.750000000000046 3.499999999999915 2.995100000000037
  endloop
endfacet
facet normal -1.942890293094025e-16 7.049916206369698e-16 1.0
  outer loop
    vertex 17.750000000000046 3.499999999999915 2.995100000000037
    vertex 19.50000000000005 -1.0000000000000828 2.995100000000039
    vertex 19.500000000000036 20.999999999999915 2.995100000000024
  endloop
endfacet
facet normal -1.942890293094025e-16 7.049916206369698e-16 1.0
  outer loop
    vertex 12.000000000000036 20.99999999999991 2.995100000000022
    vertex 14.017949192431166 13.499999999999913 2.995100000000024
    vertex 19.500000000000036 20.999999999999915 2.995100000000024
  endloop
endfacet
facet normal -1.942890293094025e-16 7.049916206369698e-16 1.0
  outer loop
    vertex 14.017949192431166 13.499999999999913 2.995100000000024
    vertex 12.000000000000036 20.99999999999991 2.995100000000022
    vertex 13.818148347421905 13.017638090204954 2.9951000000000243
  endloop
endfacet
facet normal -1.942890293094025e-16 7.049916206369698e-16 1.0
  outer loop
    vertex 13.818148347421905 13.017638090204954 2.9951000000000243
    vertex 12.000000000000036 20.99999999999991 2.995100000000022
    vertex 13.750000000000043 12.499999999999913 2.9951000000000247
  endloop
endfacet
facet normal -1.942890293094025e-16 7.049916206369698e-16 1.0
  outer loop
    vertex 13.750000000000043 12.499999999999913 2.9951000000000247
    vertex 12.000000000000036 20.99999999999991 2.995100000000022
    vertex 12.00000000000005 -1.0000000000000877 2.995100000000037
  endloop
endfacet
facet normal -1.942890293094025e-16 7.049916206369698e-16 1.0
  outer loop
    vertex 19.500000000000036 20.999999999999915 2.995100000000024
    vertex 14.017949192431166 13.499999999999913 2.995100000000024
    vertex 14.335786437626945 13.914213562373009 2.9951000000000243
  endloop
endfacet
facet normal -1.942890293094025e-16 7.049916206369698e-16 1.0
  outer loop
    vertex 19.500000000000036 20.999999999999915 2.995100000000024
    vertex 14.335786437626945 13.914213562373009 2.9951000000000243
    vertex 14.750000000000037 14.232050807568788 2.9951000000000247
  endloop
endfacet
facet normal -1.942890293094025e-16 7.049916206369698e-16 1.0
  outer loop
    vertex 19.500000000000036 20.999999999999915 2.995100000000024
    vertex 14.750000000000037 14.232050807568788 2.9951000000000247
    vertex 15.232361909794996 14.431851652578048 2.9951000000000234
  endloop
endfacet
facet normal -1.942890293094025e-16 7.049916206369698e-16 1.0
  outer loop
    vertex 19.500000000000036 20.999999999999915 2.995100000000024
    vertex 15.232361909794996 14.431851652578048 2.9951000000000234
    vertex 15.750000000000039 14.499999999999911 2.9951000000000247
  endloop
endfacet
facet normal -1.942890293094025e-16 7.049916206369698e-16 1.0
  outer loop
    vertex 19.500000000000036 20.999999999999915 2.995100000000024
    vertex 15.750000000000039 14.499999999999911 2.9951000000000247
    vertex 16.267638090205082 14.431851652578048 2.995100000000024
  endloop
endfacet
facet normal -1.942890293094025e-16 7.049916206369698e-16 1.0
  outer loop
    vertex 19.500000000000036 20.999999999999915 2.995100000000024
    vertex 16.267638090205082 14.431851652578048 2.995100000000024
    vertex 16.750000000000043 14.232050807568788 2.995100000000025
  endloop
endfacet
facet normal -1.942890293094025e-16 7.049916206369698e-16 1.0
  outer loop
    vertex 19.500000000000036 20.999999999999915 2.995100000000024
    vertex 16.750000000000043 14.232050807568788 2.995100000000025
    vertex 17.16421356237314 13.914213562373009 2.995100000000025
  endloop
endfacet
facet normal -1.942890293094025e-16 7.049916206369698e-16 1.0
  outer loop
    vertex 19.500000000000036 20.999999999999915 2.995100000000024
    vertex 17.16421356237314 13.914213562373009 2.995100000000025
    vertex 17.482050807568918 13.499999999999913 2.995100000000025
  endloop
endfacet
facet normal -1.942890293094025e-16 7.049916206369698e-16 1.0
  outer loop
    vertex 19.500000000000036 20.999999999999915 2.995100000000024
    vertex 17.482050807568918 13.499999999999913 2.995100000000025
    vertex 17.681851652578178 13.017638090204954 2.995100000000025
  endloop
endfacet
facet normal -1.942890293094025e-16 7.049916206369698e-16 1.0
  outer loop
    vertex 19.500000000000036 20.999999999999915 2.995100000000024
    vertex 17.681851652578178 13.017638090204954 2.995100000000025
    vertex 17.75000000000004 12.499999999999917 2.9951000000000265
  endloop
endfacet
facet normal -1.942890293094025e-16 7.049916206369698e-16 1.0
  outer loop
    vertex 19.500000000000036 20.999999999999915 2.995100000000024
    vertex 17.75000000000004 12.499999999999917 2.9951000000000265
    vertex 17.750000000000046 3.499999999999915 2.995100000000037
  endloop
endfacet
facet normal -6.626643678231403e-16 1.0 -7.049916206369701e-16
  outer loop
    vertex 12.000000000000036 20.99999999999991 2.995100000000022
    vertex 19.500000000000036 20.999999999999915 2.502720253261259e-14
    vertex 12.000000000000037 20.99999999999991 2.3617219291338642e-14
  endloop
endfacet
facet normal -6.626643678231403e-16 1.0 -7.049916206369701e-16
  outer loop
    vertex 19.500000000000036 20.999999999999915 2.502720253261259e-14
    vertex 12.000000000000036 20.99999999999991 2.995100000000022
    vertex 19.500000000000036 20.999999999999915 2.995100000000024
  endloop
endfacet
facet normal -1.0 -6.626643678231404e-16 -1.942890293094021e-16
  outer loop
    vertex 12.00000000000005 -1.0000000000000877 2.995100000000037
    vertex 12.000000000000037 20.99999999999991 2.3617219291338642e-14
    vertex 12.000000000000052 -1.0000000000000897 3.9127034945352074e-14
  endloop
endfacet
facet normal -1.0 -6.626643678231404e-16 -1.942890293094021e-16
  outer loop
    vertex 12.000000000000037 20.99999999999991 2.3617219291338642e-14
    vertex 12.00000000000005 -1.0000000000000877 2.995100000000037
    vertex 12.000000000000036 20.99999999999991 2.995100000000022
  endloop
endfacet
facet normal 1.9374704310053376e-16 -7.049916206369698e-16 -1.0
  outer loop
    vertex 12.000000000000037 20.99999999999991 2.3617219291338642e-14
    vertex 13.750000000000043 12.499999999999911 2.996214387707141e-14
    vertex 12.000000000000052 -1.0000000000000897 3.9127034945352074e-14
  endloop
endfacet
facet normal 1.9374704310053376e-16 -7.049916206369698e-16 -1.0
  outer loop
    vertex 13.750000000000043 12.499999999999911 2.996214387707141e-14
    vertex 12.000000000000037 20.99999999999991 2.3617219291338642e-14
    vertex 13.818148347421905 13.017638090204954 2.9785895971912165e-14
  endloop
endfacet
facet normal 1.9374704310053376e-16 -7.049916206369698e-16 -1.0
  outer loop
    vertex 13.818148347421905 13.017638090204954 2.9785895971912165e-14
    vertex 12.000000000000037 20.99999999999991 2.3617219291338642e-14
    vertex 14.017949192431164 13.499999999999913 2.9257152256434435e-14
  endloop
endfacet
facet normal 1.9374704310053376e-16 -7.049916206369698e-16 -1.0
  outer loop
    vertex 14.017949192431164 13.499999999999913 2.9257152256434435e-14
    vertex 12.000000000000037 20.99999999999991 2.3617219291338642e-14
    vertex 19.500000000000036 20.999999999999915 2.502720253261259e-14
  endloop
endfacet
facet normal 1.9374704310053376e-16 -7.049916206369698e-16 -1.0
  outer loop
    vertex 14.017949192431164 13.499999999999913 2.9257152256434435e-14
    vertex 19.500000000000036 20.999999999999915 2.502720253261259e-14
    vertex 14.335786437626945 13.914213562373014 2.9257152256434435e-14
  endloop
endfacet
facet normal 1.9374704310053376e-16 -7.049916206369698e-16 -1.0
  outer loop
    vertex 14.335786437626945 13.914213562373014 2.9257152256434435e-14
    vertex 19.500000000000036 20.999999999999915 2.502720253261259e-14
    vertex 14.75000000000004 14.232050807568793 2.8904656446115947e-14
  endloop
endfacet
facet normal 1.9374704310053376e-16 -7.049916206369698e-16 -1.0
  outer loop
    vertex 14.75000000000004 14.232050807568793 2.8904656446115947e-14
    vertex 19.500000000000036 20.999999999999915 2.502720253261259e-14
    vertex 15.232361909795 14.431851652578048 2.8904656446115947e-14
  endloop
endfacet
facet normal 1.9374704310053376e-16 -7.049916206369698e-16 -1.0
  outer loop
    vertex 15.232361909795 14.431851652578048 2.8904656446115947e-14
    vertex 19.500000000000036 20.999999999999915 2.502720253261259e-14
    vertex 15.750000000000039 14.499999999999911 2.8904656446115947e-14
  endloop
endfacet
facet normal 1.9374704310053376e-16 -7.049916206369698e-16 -1.0
  outer loop
    vertex 15.750000000000039 14.499999999999911 2.8904656446115947e-14
    vertex 19.500000000000036 20.999999999999915 2.502720253261259e-14
    vertex 16.267638090205082 14.431851652578048 2.9080904351275194e-14
  endloop
endfacet
facet normal 1.9374704310053376e-16 -7.049916206369698e-16 -1.0
  outer loop
    vertex 16.267638090205082 14.431851652578048 2.9080904351275194e-14
    vertex 19.500000000000036 20.999999999999915 2.502720253261259e-14
    vertex 16.75000000000004 14.232050807568788 2.9080904351275194e-14
  endloop
endfacet
facet normal 1.9374704310053376e-16 -7.049916206369698e-16 -1.0
  outer loop
    vertex 16.75000000000004 14.232050807568788 2.9080904351275194e-14
    vertex 19.500000000000036 20.999999999999915 2.502720253261259e-14
    vertex 17.164213562373135 13.914213562373009 2.9257152256434435e-14
  endloop
endfacet
facet normal 1.9374704310053376e-16 -7.049916206369698e-16 -1.0
  outer loop
    vertex 17.164213562373135 13.914213562373009 2.9257152256434435e-14
    vertex 19.500000000000036 20.999999999999915 2.502720253261259e-14
    vertex 17.482050807568918 13.499999999999913 2.996214387707141e-14
  endloop
endfacet
facet normal 1.9374704310053376e-16 -7.049916206369698e-16 -1.0
  outer loop
    vertex 17.482050807568918 13.499999999999913 2.996214387707141e-14
    vertex 19.500000000000036 20.999999999999915 2.502720253261259e-14
    vertex 17.681851652578178 13.017638090204954 2.996214387707141e-14
  endloop
endfacet
facet normal 1.9374704310053376e-16 -7.049916206369698e-16 -1.0
  outer loop
    vertex 17.681851652578178 13.017638090204954 2.996214387707141e-14
    vertex 19.500000000000036 20.999999999999915 2.502720253261259e-14
    vertex 17.75000000000004 12.499999999999913 3.049088759254914e-14
  endloop
endfacet
facet normal 1.9374704310053376e-16 -7.049916206369698e-16 -1.0
  outer loop
    vertex 17.75000000000004 12.499999999999913 3.049088759254914e-14
    vertex 19.500000000000036 20.999999999999915 2.502720253261259e-14
    vertex 17.750000000000046 3.4999999999999134 3.683581217828191e-14
  endloop
endfacet
facet normal 1.9374704310053376e-16 -7.049916206369698e-16 -1.0
  outer loop
    vertex 12.000000000000052 -1.0000000000000897 3.9127034945352074e-14
    vertex 14.750000000000046 1.7679491924310353 3.7717051704078127e-14
    vertex 19.50000000000005 -1.0000000000000848 4.053701818662603e-14
  endloop
endfacet
facet normal 1.9374704310053376e-16 -7.049916206369698e-16 -1.0
  outer loop
    vertex 14.750000000000046 1.7679491924310353 3.7717051704078127e-14
    vertex 12.000000000000052 -1.0000000000000897 3.9127034945352074e-14
    vertex 14.335786437626952 2.0857864376268167 3.7540803798918886e-14
  endloop
endfacet
facet normal 1.9374704310053376e-16 -7.049916206369698e-16 -1.0
  outer loop
    vertex 14.335786437626952 2.0857864376268167 3.7540803798918886e-14
    vertex 12.000000000000052 -1.0000000000000897 3.9127034945352074e-14
    vertex 14.017949192431175 2.499999999999912 3.7012060083441156e-14
  endloop
endfacet
facet normal 1.9374704310053376e-16 -7.049916206369698e-16 -1.0
  outer loop
    vertex 14.017949192431175 2.499999999999912 3.7012060083441156e-14
    vertex 12.000000000000052 -1.0000000000000897 3.9127034945352074e-14
    vertex 13.818148347421912 2.9823619097948697 3.683581217828191e-14
  endloop
endfacet
facet normal 1.9374704310053376e-16 -7.049916206369698e-16 -1.0
  outer loop
    vertex 13.818148347421912 2.9823619097948697 3.683581217828191e-14
    vertex 12.000000000000052 -1.0000000000000897 3.9127034945352074e-14
    vertex 13.750000000000048 3.4999999999999125 3.630706846280418e-14
  endloop
endfacet
facet normal 1.9374704310053376e-16 -7.049916206369698e-16 -1.0
  outer loop
    vertex 13.750000000000048 3.4999999999999125 3.630706846280418e-14
    vertex 12.000000000000052 -1.0000000000000897 3.9127034945352074e-14
    vertex 13.750000000000043 12.499999999999911 2.996214387707141e-14
  endloop
endfacet
facet normal 1.9374704310053376e-16 -7.049916206369698e-16 -1.0
  outer loop
    vertex 19.50000000000005 -1.0000000000000848 4.053701818662603e-14
    vertex 14.750000000000046 1.7679491924310353 3.7717051704078127e-14
    vertex 15.232361909795008 1.5681483474217761 3.7717051704078127e-14
  endloop
endfacet
facet normal 1.9374704310053376e-16 -7.049916206369698e-16 -1.0
  outer loop
    vertex 19.50000000000005 -1.0000000000000848 4.053701818662603e-14
    vertex 15.232361909795008 1.5681483474217761 3.7717051704078127e-14
    vertex 15.75000000000005 1.499999999999913 3.8069547514396615e-14
  endloop
endfacet
facet normal 1.9374704310053376e-16 -7.049916206369698e-16 -1.0
  outer loop
    vertex 19.50000000000005 -1.0000000000000848 4.053701818662603e-14
    vertex 15.75000000000005 1.499999999999913 3.8069547514396615e-14
    vertex 16.26763809020509 1.5681483474217766 3.7893299609237374e-14
  endloop
endfacet
facet normal 1.9374704310053376e-16 -7.049916206369698e-16 -1.0
  outer loop
    vertex 19.50000000000005 -1.0000000000000848 4.053701818662603e-14
    vertex 16.26763809020509 1.5681483474217766 3.7893299609237374e-14
    vertex 16.75000000000005 1.7679491924310362 3.8069547514396615e-14
  endloop
endfacet
facet normal 1.9374704310053376e-16 -7.049916206369698e-16 -1.0
  outer loop
    vertex 19.50000000000005 -1.0000000000000848 4.053701818662603e-14
    vertex 16.75000000000005 1.7679491924310362 3.8069547514396615e-14
    vertex 17.164213562373142 2.085786437626818 3.7893299609237374e-14
  endloop
endfacet
facet normal 1.9374704310053376e-16 -7.049916206369698e-16 -1.0
  outer loop
    vertex 19.50000000000005 -1.0000000000000848 4.053701818662603e-14
    vertex 17.164213562373142 2.085786437626818 3.7893299609237374e-14
    vertex 17.48205080756893 2.499999999999913 3.7717051704078127e-14
  endloop
endfacet
facet normal 1.9374704310053376e-16 -7.049916206369698e-16 -1.0
  outer loop
    vertex 19.50000000000005 -1.0000000000000848 4.053701818662603e-14
    vertex 17.48205080756893 2.499999999999913 3.7717051704078127e-14
    vertex 17.68185165257818 2.982361909794872 3.736455589375964e-14
  endloop
endfacet
facet normal 1.9374704310053376e-16 -7.049916206369698e-16 -1.0
  outer loop
    vertex 19.50000000000005 -1.0000000000000848 4.053701818662603e-14
    vertex 17.68185165257818 2.982361909794872 3.736455589375964e-14
    vertex 17.750000000000046 3.4999999999999134 3.683581217828191e-14
  endloop
endfacet
facet normal 1.9374704310053376e-16 -7.049916206369698e-16 -1.0
  outer loop
    vertex 19.50000000000005 -1.0000000000000848 4.053701818662603e-14
    vertex 17.750000000000046 3.4999999999999134 3.683581217828191e-14
    vertex 19.500000000000036 20.999999999999915 2.502720253261259e-14
  endloop
endfacet
facet normal 1.9374704310053376e-16 -7.049916206369698e-16 -1.0
  outer loop
    vertex 13.818148347421905 11.982361909794868 3.049088759254914e-14
    vertex 13.750000000000048 3.4999999999999125 3.630706846280418e-14
    vertex 13.750000000000043 12.499999999999911 2.996214387707141e-14
  endloop
endfacet
facet normal 1.9374704310053376e-16 -7.049916206369698e-16 -1.0
  outer loop
    vertex 13.750000000000048 3.4999999999999125 3.630706846280418e-14
    vertex 13.818148347421905 11.982361909794868 3.049088759254914e-14
    vertex 13.818148347421912 4.017638090204954 3.613082055764494e-14
  endloop
endfacet
facet normal 1.9374704310053376e-16 -7.049916206369698e-16 -1.0
  outer loop
    vertex 13.818148347421912 4.017638090204954 3.613082055764494e-14
    vertex 13.818148347421905 11.982361909794868 3.049088759254914e-14
    vertex 14.017949192431166 11.49999999999991 3.066713549770838e-14
  endloop
endfacet
facet normal 1.9374704310053376e-16 -7.049916206369698e-16 -1.0
  outer loop
    vertex 13.818148347421912 4.017638090204954 3.613082055764494e-14
    vertex 14.017949192431166 11.49999999999991 3.066713549770838e-14
    vertex 14.01794919243117 4.499999999999913 3.56020768421672e-14
  endloop
endfacet
facet normal 1.9374704310053376e-16 -7.049916206369698e-16 -1.0
  outer loop
    vertex 14.01794919243117 4.499999999999913 3.56020768421672e-14
    vertex 14.017949192431166 11.49999999999991 3.066713549770838e-14
    vertex 14.335786437626952 11.085786437626815 3.119587921318612e-14
  endloop
endfacet
facet normal 1.9374704310053376e-16 -7.049916206369698e-16 -1.0
  outer loop
    vertex 14.01794919243117 4.499999999999913 3.56020768421672e-14
    vertex 14.335786437626952 11.085786437626815 3.119587921318612e-14
    vertex 14.335786437626952 4.914213562373008 3.56020768421672e-14
  endloop
endfacet
facet normal 1.9374704310053376e-16 -7.049916206369698e-16 -1.0
  outer loop
    vertex 14.335786437626952 4.914213562373008 3.56020768421672e-14
    vertex 14.335786437626952 11.085786437626815 3.119587921318612e-14
    vertex 14.750000000000043 10.767949192431034 3.137212711834536e-14
  endloop
endfacet
facet normal 1.9374704310053376e-16 -7.049916206369698e-16 -1.0
  outer loop
    vertex 14.335786437626952 4.914213562373008 3.56020768421672e-14
    vertex 14.750000000000043 10.767949192431034 3.137212711834536e-14
    vertex 14.750000000000046 5.23205080756879 3.524958103184872e-14
  endloop
endfacet
facet normal 1.9374704310053376e-16 -7.049916206369698e-16 -1.0
  outer loop
    vertex 14.750000000000046 5.23205080756879 3.524958103184872e-14
    vertex 14.750000000000043 10.767949192431034 3.137212711834536e-14
    vertex 15.232361909795 10.568148347421777 3.137212711834536e-14
  endloop
endfacet
facet normal 1.9374704310053376e-16 -7.049916206369698e-16 -1.0
  outer loop
    vertex 14.750000000000046 5.23205080756879 3.524958103184872e-14
    vertex 15.232361909795 10.568148347421777 3.137212711834536e-14
    vertex 15.232361909795005 5.4318516525780485 3.524958103184872e-14
  endloop
endfacet
facet normal 1.9374704310053376e-16 -7.049916206369698e-16 -1.0
  outer loop
    vertex 15.232361909795005 5.4318516525780485 3.524958103184872e-14
    vertex 15.232361909795 10.568148347421777 3.137212711834536e-14
    vertex 15.75000000000004 10.499999999999913 3.172462292866385e-14
  endloop
endfacet
facet normal 1.9374704310053376e-16 -7.049916206369698e-16 -1.0
  outer loop
    vertex 15.232361909795005 5.4318516525780485 3.524958103184872e-14
    vertex 15.75000000000004 10.499999999999913 3.172462292866385e-14
    vertex 15.750000000000044 5.499999999999914 3.524958103184872e-14
  endloop
endfacet
facet normal 1.9374704310053376e-16 -7.049916206369698e-16 -1.0
  outer loop
    vertex 15.750000000000044 5.499999999999914 3.524958103184872e-14
    vertex 15.75000000000004 10.499999999999913 3.172462292866385e-14
    vertex 16.267638090205086 10.568148347421776 3.15483750235046e-14
  endloop
endfacet
facet normal 1.9374704310053376e-16 -7.049916206369698e-16 -1.0
  outer loop
    vertex 15.750000000000044 5.499999999999914 3.524958103184872e-14
    vertex 16.267638090205086 10.568148347421776 3.15483750235046e-14
    vertex 16.26763809020509 5.4318516525780485 3.542582893700796e-14
  endloop
endfacet
facet normal 1.9374704310053376e-16 -7.049916206369698e-16 -1.0
  outer loop
    vertex 16.26763809020509 5.4318516525780485 3.542582893700796e-14
    vertex 16.267638090205086 10.568148347421776 3.15483750235046e-14
    vertex 16.750000000000046 10.767949192431034 3.172462292866385e-14
  endloop
endfacet
facet normal 1.9374704310053376e-16 -7.049916206369698e-16 -1.0
  outer loop
    vertex 16.26763809020509 5.4318516525780485 3.542582893700796e-14
    vertex 16.750000000000046 10.767949192431034 3.172462292866385e-14
    vertex 16.75000000000005 5.23205080756879 3.542582893700796e-14
  endloop
endfacet
facet normal 1.9374704310053376e-16 -7.049916206369698e-16 -1.0
  outer loop
    vertex 16.75000000000005 5.23205080756879 3.542582893700796e-14
    vertex 16.750000000000046 10.767949192431034 3.172462292866385e-14
    vertex 17.16421356237314 11.085786437626815 3.15483750235046e-14
  endloop
endfacet
facet normal 1.9374704310053376e-16 -7.049916206369698e-16 -1.0
  outer loop
    vertex 16.75000000000005 5.23205080756879 3.542582893700796e-14
    vertex 17.16421356237314 11.085786437626815 3.15483750235046e-14
    vertex 17.16421356237314 4.914213562373009 3.56020768421672e-14
  endloop
endfacet
facet normal 1.9374704310053376e-16 -7.049916206369698e-16 -1.0
  outer loop
    vertex 17.16421356237314 4.914213562373009 3.56020768421672e-14
    vertex 17.16421356237314 11.085786437626815 3.15483750235046e-14
    vertex 17.482050807568918 11.499999999999913 3.137212711834536e-14
  endloop
endfacet
facet normal 1.9374704310053376e-16 -7.049916206369698e-16 -1.0
  outer loop
    vertex 17.16421356237314 4.914213562373009 3.56020768421672e-14
    vertex 17.482050807568918 11.499999999999913 3.137212711834536e-14
    vertex 17.482050807568925 4.499999999999913 3.630706846280418e-14
  endloop
endfacet
facet normal 1.9374704310053376e-16 -7.049916206369698e-16 -1.0
  outer loop
    vertex 17.482050807568925 4.499999999999913 3.630706846280418e-14
    vertex 17.482050807568918 11.499999999999913 3.137212711834536e-14
    vertex 17.681851652578178 11.982361909794871 3.101963130802687e-14
  endloop
endfacet
facet normal 1.9374704310053376e-16 -7.049916206369698e-16 -1.0
  outer loop
    vertex 17.482050807568925 4.499999999999913 3.630706846280418e-14
    vertex 17.681851652578178 11.982361909794871 3.101963130802687e-14
    vertex 17.68185165257818 4.017638090204954 3.630706846280418e-14
  endloop
endfacet
facet normal 1.9374704310053376e-16 -7.049916206369698e-16 -1.0
  outer loop
    vertex 17.68185165257818 4.017638090204954 3.630706846280418e-14
    vertex 17.681851652578178 11.982361909794871 3.101963130802687e-14
    vertex 17.75000000000004 12.499999999999913 3.049088759254914e-14
  endloop
endfacet
facet normal 1.9374704310053376e-16 -7.049916206369698e-16 -1.0
  outer loop
    vertex 17.68185165257818 4.017638090204954 3.630706846280418e-14
    vertex 17.75000000000004 12.499999999999913 3.049088759254914e-14
    vertex 17.750000000000046 3.4999999999999134 3.683581217828191e-14
  endloop
endfacet
facet normal 6.626643678231403e-16 -1.0 7.049916206369701e-16
  outer loop
    vertex 19.50000000000005 -1.0000000000000848 4.053701818662603e-14
    vertex 12.00000000000005 -1.0000000000000877 2.995100000000037
    vertex 12.000000000000052 -1.0000000000000897 3.9127034945352074e-14
  endloop
endfacet
facet normal 6.626643678231403e-16 -1.0 7.049916206369701e-16
  outer loop
    vertex 12.00000000000005 -1.0000000000000877 2.995100000000037
    vertex 19.50000000000005 -1.0000000000000848 4.053701818662603e-14
    vertex 19.50000000000005 -1.0000000000000828 2.995100000000039
  endloop
endfacet
facet normal 0.9914448613738103 0.13052619222005246 6.789653635256051e-17
  outer loop
    vertex 13.750000000000048 3.4999999999999125 3.630706846280418e-14
    vertex 13.818148347421912 2.982361909794872 2.9951000000000363
    vertex 13.818148347421912 2.9823619097948697 3.683581217828191e-14
  endloop
endfacet
facet normal 0.9914448613738103 0.13052619222005246 6.789653635256051e-17
  outer loop
    vertex 13.818148347421912 2.982361909794872 2.9951000000000363
    vertex 13.750000000000048 3.4999999999999125 3.630706846280418e-14
    vertex 13.750000000000048 3.4999999999999147 2.995100000000036
  endloop
endfacet
facet normal 0.9914448613738105 -0.13052619222005096 2.519362799301344e-16
  outer loop
    vertex 13.818148347421912 4.017638090204954 3.613082055764494e-14
    vertex 13.750000000000048 3.4999999999999147 2.995100000000036
    vertex 13.750000000000048 3.4999999999999125 3.630706846280418e-14
  endloop
endfacet
facet normal 0.9914448613738105 -0.13052619222005096 2.519362799301344e-16
  outer loop
    vertex 13.750000000000048 3.4999999999999147 2.995100000000036
    vertex 13.818148347421912 4.017638090204954 3.613082055764494e-14
    vertex 13.818148347421912 4.017638090204956 2.995100000000036
  endloop
endfacet
facet normal 0.923879532511287 -0.3826834323650896 4.1880698237485786e-16
  outer loop
    vertex 14.01794919243117 4.499999999999913 3.56020768421672e-14
    vertex 13.818148347421912 4.017638090204956 2.995100000000036
    vertex 13.818148347421912 4.017638090204954 3.613082055764494e-14
  endloop
endfacet
facet normal 0.923879532511287 -0.3826834323650896 4.1880698237485786e-16
  outer loop
    vertex 13.818148347421912 4.017638090204956 2.995100000000036
    vertex 14.01794919243117 4.499999999999913 3.56020768421672e-14
    vertex 14.017949192431171 4.499999999999915 2.9951000000000354
  endloop
endfacet
facet normal 0.9238795325112863 0.382683432365091 -1.2077024397310904e-16
  outer loop
    vertex 13.818148347421912 2.9823619097948697 3.683581217828191e-14
    vertex 14.017949192431171 2.499999999999915 2.9951000000000367
    vertex 14.017949192431175 2.499999999999912 3.7012060083441156e-14
  endloop
endfacet
facet normal 0.9238795325112863 0.382683432365091 -1.2077024397310904e-16
  outer loop
    vertex 14.017949192431171 2.499999999999915 2.9951000000000367
    vertex 13.818148347421912 2.9823619097948697 3.683581217828191e-14
    vertex 13.818148347421912 2.982361909794872 2.9951000000000363
  endloop
endfacet
facet normal 0.7933533402912356 -0.6087614290087199 5.571366810819964e-16
  outer loop
    vertex 14.335786437626952 4.914213562373008 3.56020768421672e-14
    vertex 14.017949192431171 4.499999999999915 2.9951000000000354
    vertex 14.01794919243117 4.499999999999913 3.56020768421672e-14
  endloop
endfacet
facet normal 0.7933533402912356 -0.6087614290087199 5.571366810819964e-16
  outer loop
    vertex 14.017949192431171 4.499999999999915 2.9951000000000354
    vertex 14.335786437626952 4.914213562373008 3.56020768421672e-14
    vertex 14.335786437626952 4.91421356237301 2.995100000000036
  endloop
endfacet
facet normal -0.38268343236508967 0.9238795325112867 -7.130527584641818e-16
  outer loop
    vertex 16.26763809020509 1.5681483474217786 2.9951000000000385
    vertex 16.75000000000005 1.7679491924310362 3.8069547514396615e-14
    vertex 16.26763809020509 1.5681483474217766 3.7893299609237374e-14
  endloop
endfacet
facet normal -0.38268343236508967 0.9238795325112867 -7.130527584641818e-16
  outer loop
    vertex 16.75000000000005 1.7679491924310362 3.8069547514396615e-14
    vertex 16.26763809020509 1.5681483474217786 2.9951000000000385
    vertex 16.750000000000046 1.7679491924310384 2.995100000000038
  endloop
endfacet
facet normal -0.13052619222005196 0.9914448613738104 -7.200137141291326e-16
  outer loop
    vertex 15.75000000000005 1.499999999999913 3.8069547514396615e-14
    vertex 16.26763809020509 1.5681483474217786 2.9951000000000385
    vertex 16.26763809020509 1.5681483474217766 3.7893299609237374e-14
  endloop
endfacet
facet normal -0.13052619222005196 0.9914448613738104 -7.200137141291326e-16
  outer loop
    vertex 16.26763809020509 1.5681483474217786 2.9951000000000385
    vertex 15.75000000000005 1.499999999999913 3.8069547514396615e-14
    vertex 15.75000000000005 1.4999999999999152 2.995100000000038
  endloop
endfacet
facet normal 0.13052619222005096 0.9914448613738105 -6.779069250551051e-16
  outer loop
    vertex 15.232361909795005 1.5681483474217783 2.995100000000037
    vertex 15.75000000000005 1.499999999999913 3.8069547514396615e-14
    vertex 15.232361909795008 1.5681483474217761 3.7717051704078127e-14
  endloop
endfacet
facet normal 0.13052619222005096 0.9914448613738105 -6.779069250551051e-16
  outer loop
    vertex 15.75000000000005 1.499999999999913 3.8069547514396615e-14
    vertex 15.232361909795005 1.5681483474217783 2.995100000000037
    vertex 15.75000000000005 1.4999999999999152 2.995100000000038
  endloop
endfacet
facet normal 0.38268343236508906 0.9238795325112871 -5.896018993327354e-16
  outer loop
    vertex 14.750000000000046 1.7679491924310373 2.995100000000037
    vertex 15.232361909795008 1.5681483474217761 3.7717051704078127e-14
    vertex 14.750000000000046 1.7679491924310353 3.7717051704078127e-14
  endloop
endfacet
facet normal 0.38268343236508906 0.9238795325112871 -5.896018993327354e-16
  outer loop
    vertex 15.232361909795008 1.5681483474217761 3.7717051704078127e-14
    vertex 14.750000000000046 1.7679491924310373 2.995100000000037
    vertex 15.232361909795005 1.5681483474217783 2.995100000000037
  endloop
endfacet
facet normal 0.6087614290087205 0.7933533402912352 -4.611164785340472e-16
  outer loop
    vertex 14.335786437626952 2.085786437626819 2.9951000000000367
    vertex 14.750000000000046 1.7679491924310353 3.7717051704078127e-14
    vertex 14.335786437626952 2.0857864376268167 3.7540803798918886e-14
  endloop
endfacet
facet normal 0.6087614290087205 0.7933533402912352 -4.611164785340472e-16
  outer loop
    vertex 14.750000000000046 1.7679491924310353 3.7717051704078127e-14
    vertex 14.335786437626952 2.085786437626819 2.9951000000000367
    vertex 14.750000000000046 1.7679491924310373 2.995100000000037
  endloop
endfacet
facet normal 0.7933533402912355 0.6087614290087204 -3.012067317542745e-16
  outer loop
    vertex 14.017949192431175 2.499999999999912 3.7012060083441156e-14
    vertex 14.335786437626952 2.085786437626819 2.9951000000000367
    vertex 14.335786437626952 2.0857864376268167 3.7540803798918886e-14
  endloop
endfacet
facet normal 0.7933533402912355 0.6087614290087204 -3.012067317542745e-16
  outer loop
    vertex 14.335786437626952 2.085786437626819 2.9951000000000367
    vertex 14.017949192431175 2.499999999999912 3.7012060083441156e-14
    vertex 14.017949192431171 2.499999999999915 2.9951000000000367
  endloop
endfacet
facet normal -0.6087614290087207 0.7933533402912353 -6.574984356852961e-16
  outer loop
    vertex 16.75000000000005 1.7679491924310362 3.8069547514396615e-14
    vertex 17.16421356237314 2.0857864376268203 2.995100000000037
    vertex 17.164213562373142 2.085786437626818 3.7893299609237374e-14
  endloop
endfacet
facet normal -0.6087614290087207 0.7933533402912353 -6.574984356852961e-16
  outer loop
    vertex 17.16421356237314 2.0857864376268203 2.995100000000037
    vertex 16.75000000000005 1.7679491924310362 3.8069547514396615e-14
    vertex 16.750000000000046 1.7679491924310384 2.995100000000038
  endloop
endfacet
facet normal 0.3826834323650908 0.9238795325112865 -5.896018993327346e-16
  outer loop
    vertex 14.750000000000043 10.767949192431036 2.995100000000026
    vertex 15.232361909795 10.568148347421777 3.137212711834536e-14
    vertex 14.750000000000043 10.767949192431034 3.137212711834536e-14
  endloop
endfacet
facet normal 0.3826834323650908 0.9238795325112865 -5.896018993327346e-16
  outer loop
    vertex 15.232361909795 10.568148347421777 3.137212711834536e-14
    vertex 14.750000000000043 10.767949192431036 2.995100000000026
    vertex 15.232361909795 10.56814834742178 2.995100000000026
  endloop
endfacet
facet normal 0.6087614290087197 0.7933533402912358 -4.611164785340476e-16
  outer loop
    vertex 14.335786437626949 11.085786437626817 2.995100000000026
    vertex 14.750000000000043 10.767949192431034 3.137212711834536e-14
    vertex 14.335786437626952 11.085786437626815 3.119587921318612e-14
  endloop
endfacet
facet normal 0.6087614290087197 0.7933533402912358 -4.611164785340476e-16
  outer loop
    vertex 14.750000000000043 10.767949192431034 3.137212711834536e-14
    vertex 14.335786437626949 11.085786437626817 2.995100000000026
    vertex 14.750000000000043 10.767949192431036 2.995100000000026
  endloop
endfacet
facet normal 0.13052619222005246 -0.9914448613738103 7.200137141291328e-16
  outer loop
    vertex 15.750000000000039 14.499999999999911 2.9951000000000247
    vertex 15.232361909795 14.431851652578048 2.8904656446115947e-14
    vertex 15.750000000000039 14.499999999999911 2.8904656446115947e-14
  endloop
endfacet
facet normal 0.13052619222005246 -0.9914448613738103 7.200137141291328e-16
  outer loop
    vertex 15.232361909795 14.431851652578048 2.8904656446115947e-14
    vertex 15.750000000000039 14.499999999999911 2.9951000000000247
    vertex 15.232361909794996 14.431851652578048 2.9951000000000234
  endloop
endfacet
facet normal -0.6087614290087202 0.7933533402912355 -6.574984356852965e-16
  outer loop
    vertex 16.750000000000046 10.767949192431034 3.172462292866385e-14
    vertex 17.16421356237314 11.085786437626817 2.995100000000026
    vertex 17.16421356237314 11.085786437626815 3.15483750235046e-14
  endloop
endfacet
facet normal -0.6087614290087202 0.7933533402912355 -6.574984356852965e-16
  outer loop
    vertex 17.16421356237314 11.085786437626817 2.995100000000026
    vertex 16.750000000000046 10.767949192431034 3.172462292866385e-14
    vertex 16.750000000000043 10.767949192431036 2.9951000000000274
  endloop
endfacet
facet normal 0.7933533402912343 0.6087614290087219 -3.012067317542759e-16
  outer loop
    vertex 14.017949192431166 11.49999999999991 3.066713549770838e-14
    vertex 14.335786437626949 11.085786437626817 2.995100000000026
    vertex 14.335786437626952 11.085786437626815 3.119587921318612e-14
  endloop
endfacet
facet normal 0.7933533402912343 0.6087614290087219 -3.012067317542759e-16
  outer loop
    vertex 14.335786437626949 11.085786437626817 2.995100000000026
    vertex 14.017949192431166 11.49999999999991 3.066713549770838e-14
    vertex 14.017949192431166 11.499999999999913 2.995100000000025
  endloop
endfacet
facet normal 0.9914448613738103 0.13052619222005246 6.78965363525608e-17
  outer loop
    vertex 13.750000000000043 12.499999999999911 2.996214387707141e-14
    vertex 13.818148347421905 11.982361909794873 2.995100000000025
    vertex 13.818148347421905 11.982361909794868 3.049088759254914e-14
  endloop
endfacet
facet normal 0.9914448613738103 0.13052619222005246 6.78965363525608e-17
  outer loop
    vertex 13.818148347421905 11.982361909794873 2.995100000000025
    vertex 13.750000000000043 12.499999999999911 2.996214387707141e-14
    vertex 13.750000000000043 12.499999999999913 2.9951000000000247
  endloop
endfacet
facet normal 0.9914448613738106 -0.13052619222005077 2.519362799301344e-16
  outer loop
    vertex 13.818148347421905 13.017638090204954 2.9785895971912165e-14
    vertex 13.750000000000043 12.499999999999913 2.9951000000000247
    vertex 13.750000000000043 12.499999999999911 2.996214387707141e-14
  endloop
endfacet
facet normal 0.9914448613738106 -0.13052619222005077 2.519362799301344e-16
  outer loop
    vertex 13.750000000000043 12.499999999999913 2.9951000000000247
    vertex 13.818148347421905 13.017638090204954 2.9785895971912165e-14
    vertex 13.818148347421905 13.017638090204954 2.9951000000000243
  endloop
endfacet
facet normal 0.3826834323650919 -0.9238795325112859 7.130527584641816e-16
  outer loop
    vertex 15.232361909794996 14.431851652578048 2.9951000000000234
    vertex 14.75000000000004 14.232050807568793 2.8904656446115947e-14
    vertex 15.232361909795 14.431851652578048 2.8904656446115947e-14
  endloop
endfacet
facet normal 0.3826834323650919 -0.9238795325112859 7.130527584641816e-16
  outer loop
    vertex 14.75000000000004 14.232050807568793 2.8904656446115947e-14
    vertex 15.232361909794996 14.431851652578048 2.9951000000000234
    vertex 14.750000000000037 14.232050807568788 2.9951000000000247
  endloop
endfacet
facet normal -0.13052619222005077 -0.9914448613738106 6.779069250551053e-16
  outer loop
    vertex 16.267638090205082 14.431851652578048 2.9080904351275194e-14
    vertex 15.750000000000039 14.499999999999911 2.9951000000000247
    vertex 15.750000000000039 14.499999999999911 2.8904656446115947e-14
  endloop
endfacet
facet normal -0.13052619222005077 -0.9914448613738106 6.779069250551053e-16
  outer loop
    vertex 15.750000000000039 14.499999999999911 2.9951000000000247
    vertex 16.267638090205082 14.431851652578048 2.9080904351275194e-14
    vertex 16.267638090205082 14.431851652578048 2.995100000000024
  endloop
endfacet
facet normal 0.6087614290087185 -0.7933533402912369 6.574984356852971e-16
  outer loop
    vertex 14.750000000000037 14.232050807568788 2.9951000000000247
    vertex 14.335786437626945 13.914213562373014 2.9257152256434435e-14
    vertex 14.75000000000004 14.232050807568793 2.8904656446115947e-14
  endloop
endfacet
facet normal 0.6087614290087185 -0.7933533402912369 6.574984356852971e-16
  outer loop
    vertex 14.335786437626945 13.914213562373014 2.9257152256434435e-14
    vertex 14.750000000000037 14.232050807568788 2.9951000000000247
    vertex 14.335786437626945 13.914213562373009 2.9951000000000243
  endloop
endfacet
facet normal -0.6087614290087211 -0.7933533402912348 4.611164785340468e-16
  outer loop
    vertex 17.164213562373135 13.914213562373009 2.9257152256434435e-14
    vertex 16.750000000000043 14.232050807568788 2.995100000000025
    vertex 16.75000000000004 14.232050807568788 2.9080904351275194e-14
  endloop
endfacet
facet normal -0.6087614290087211 -0.7933533402912348 4.611164785340468e-16
  outer loop
    vertex 16.750000000000043 14.232050807568788 2.995100000000025
    vertex 17.164213562373135 13.914213562373009 2.9257152256434435e-14
    vertex 17.16421356237314 13.914213562373009 2.995100000000025
  endloop
endfacet
facet normal -0.9238795325112868 -0.38268343236508956 1.2077024397310785e-16
  outer loop
    vertex 17.482050807568918 13.499999999999913 2.995100000000025
    vertex 17.681851652578178 13.017638090204954 2.996214387707141e-14
    vertex 17.681851652578178 13.017638090204954 2.995100000000025
  endloop
endfacet
facet normal -0.9238795325112868 -0.38268343236508956 1.2077024397310785e-16
  outer loop
    vertex 17.681851652578178 13.017638090204954 2.996214387707141e-14
    vertex 17.482050807568918 13.499999999999913 2.995100000000025
    vertex 17.482050807568918 13.499999999999913 2.996214387707141e-14
  endloop
endfacet
facet normal 0.7933533402912352 -0.6087614290087208 5.571366810819971e-16
  outer loop
    vertex 14.335786437626945 13.914213562373014 2.9257152256434435e-14
    vertex 14.017949192431166 13.499999999999913 2.995100000000024
    vertex 14.017949192431164 13.499999999999913 2.9257152256434435e-14
  endloop
endfacet
facet normal 0.7933533402912352 -0.6087614290087208 5.571366810819971e-16
  outer loop
    vertex 14.017949192431166 13.499999999999913 2.995100000000024
    vertex 14.335786437626945 13.914213562373014 2.9257152256434435e-14
    vertex 14.335786437626945 13.914213562373009 2.9951000000000243
  endloop
endfacet
facet normal -0.3826834323650912 -0.9238795325112863 5.896018993327344e-16
  outer loop
    vertex 16.750000000000043 14.232050807568788 2.995100000000025
    vertex 16.267638090205082 14.431851652578048 2.9080904351275194e-14
    vertex 16.75000000000004 14.232050807568788 2.9080904351275194e-14
  endloop
endfacet
facet normal -0.3826834323650912 -0.9238795325112863 5.896018993327344e-16
  outer loop
    vertex 16.267638090205082 14.431851652578048 2.9080904351275194e-14
    vertex 16.750000000000043 14.232050807568788 2.995100000000025
    vertex 16.267638090205082 14.431851652578048 2.995100000000024
  endloop
endfacet
facet normal -0.7933533402912343 -0.6087614290087219 3.012067317542759e-16
  outer loop
    vertex 17.16421356237314 13.914213562373009 2.995100000000025
    vertex 17.482050807568918 13.499999999999913 2.996214387707141e-14
    vertex 17.482050807568918 13.499999999999913 2.995100000000025
  endloop
endfacet
facet normal -0.7933533402912343 -0.6087614290087219 3.012067317542759e-16
  outer loop
    vertex 17.482050807568918 13.499999999999913 2.996214387707141e-14
    vertex 17.16421356237314 13.914213562373009 2.995100000000025
    vertex 17.164213562373135 13.914213562373009 2.9257152256434435e-14
  endloop
endfacet
facet normal -0.9914448613738103 -0.13052619222005216 -6.789653635256109e-17
  outer loop
    vertex 17.75000000000004 12.499999999999917 2.9951000000000265
    vertex 17.681851652578178 13.017638090204954 2.996214387707141e-14
    vertex 17.75000000000004 12.499999999999913 3.049088759254914e-14
  endloop
endfacet
facet normal -0.9914448613738103 -0.13052619222005216 -6.789653635256109e-17
  outer loop
    vertex 17.681851652578178 13.017638090204954 2.996214387707141e-14
    vertex 17.75000000000004 12.499999999999917 2.9951000000000265
    vertex 17.681851652578178 13.017638090204954 2.995100000000025
  endloop
endfacet
facet normal -0.9914448613738104 0.13052619222005143 -2.5193627993013487e-16
  outer loop
    vertex 17.681851652578178 11.982361909794873 2.995100000000026
    vertex 17.75000000000004 12.499999999999913 3.049088759254914e-14
    vertex 17.681851652578178 11.982361909794871 3.101963130802687e-14
  endloop
endfacet
facet normal -0.9914448613738104 0.13052619222005143 -2.5193627993013487e-16
  outer loop
    vertex 17.75000000000004 12.499999999999913 3.049088759254914e-14
    vertex 17.681851652578178 11.982361909794873 2.995100000000026
    vertex 17.75000000000004 12.499999999999917 2.9951000000000265
  endloop
endfacet
facet normal 0.13052619222005096 0.9914448613738105 -6.779069250551051e-16
  outer loop
    vertex 15.232361909795 10.56814834742178 2.995100000000026
    vertex 15.75000000000004 10.499999999999913 3.172462292866385e-14
    vertex 15.232361909795 10.568148347421777 3.137212711834536e-14
  endloop
endfacet
facet normal 0.13052619222005096 0.9914448613738105 -6.779069250551051e-16
  outer loop
    vertex 15.75000000000004 10.499999999999913 3.172462292866385e-14
    vertex 15.232361909795 10.56814834742178 2.995100000000026
    vertex 15.75000000000004 10.499999999999917 2.9951000000000274
  endloop
endfacet
facet normal -0.923879532511287 0.3826834323650896 -4.1880698237485806e-16
  outer loop
    vertex 17.48205080756892 11.499999999999915 2.9951000000000265
    vertex 17.681851652578178 11.982361909794871 3.101963130802687e-14
    vertex 17.482050807568918 11.499999999999913 3.137212711834536e-14
  endloop
endfacet
facet normal -0.923879532511287 0.3826834323650896 -4.1880698237485806e-16
  outer loop
    vertex 17.681851652578178 11.982361909794871 3.101963130802687e-14
    vertex 17.48205080756892 11.499999999999915 2.9951000000000265
    vertex 17.681851652578178 11.982361909794873 2.995100000000026
  endloop
endfacet
facet normal -0.7933533402912354 0.6087614290087203 -5.571366810819968e-16
  outer loop
    vertex 17.16421356237314 11.085786437626817 2.995100000000026
    vertex 17.482050807568918 11.499999999999913 3.137212711834536e-14
    vertex 17.16421356237314 11.085786437626815 3.15483750235046e-14
  endloop
endfacet
facet normal -0.7933533402912354 0.6087614290087203 -5.571366810819968e-16
  outer loop
    vertex 17.482050807568918 11.499999999999913 3.137212711834536e-14
    vertex 17.16421356237314 11.085786437626817 2.995100000000026
    vertex 17.48205080756892 11.499999999999915 2.9951000000000265
  endloop
endfacet
facet normal -0.38268343236508956 0.9238795325112868 -7.13052758464182e-16
  outer loop
    vertex 16.267638090205082 10.568148347421777 2.995100000000027
    vertex 16.750000000000046 10.767949192431034 3.172462292866385e-14
    vertex 16.267638090205086 10.568148347421776 3.15483750235046e-14
  endloop
endfacet
facet normal -0.38268343236508956 0.9238795325112868 -7.13052758464182e-16
  outer loop
    vertex 16.750000000000046 10.767949192431034 3.172462292866385e-14
    vertex 16.267638090205082 10.568148347421777 2.995100000000027
    vertex 16.750000000000043 10.767949192431036 2.9951000000000274
  endloop
endfacet
facet normal -0.13052619222005266 0.9914448613738104 -7.20013714129133e-16
  outer loop
    vertex 15.75000000000004 10.499999999999913 3.172462292866385e-14
    vertex 16.267638090205082 10.568148347421777 2.995100000000027
    vertex 16.267638090205086 10.568148347421776 3.15483750235046e-14
  endloop
endfacet
facet normal -0.13052619222005266 0.9914448613738104 -7.20013714129133e-16
  outer loop
    vertex 16.267638090205082 10.568148347421777 2.995100000000027
    vertex 15.75000000000004 10.499999999999913 3.172462292866385e-14
    vertex 15.75000000000004 10.499999999999917 2.9951000000000274
  endloop
endfacet
facet normal 0.9238795325112868 0.38268343236508956 -1.2077024397310785e-16
  outer loop
    vertex 13.818148347421905 11.982361909794868 3.049088759254914e-14
    vertex 14.017949192431166 11.499999999999913 2.995100000000025
    vertex 14.017949192431166 11.49999999999991 3.066713549770838e-14
  endloop
endfacet
facet normal 0.9238795325112868 0.38268343236508956 -1.2077024397310785e-16
  outer loop
    vertex 14.017949192431166 11.499999999999913 2.995100000000025
    vertex 13.818148347421905 11.982361909794868 3.049088759254914e-14
    vertex 13.818148347421905 11.982361909794873 2.995100000000025
  endloop
endfacet
facet normal 0.9238795325112875 -0.38268343236508845 4.188069823748573e-16
  outer loop
    vertex 14.017949192431164 13.499999999999913 2.9257152256434435e-14
    vertex 13.818148347421905 13.017638090204954 2.9951000000000243
    vertex 13.818148347421905 13.017638090204954 2.9785895971912165e-14
  endloop
endfacet
facet normal 0.9238795325112875 -0.38268343236508845 4.188069823748573e-16
  outer loop
    vertex 13.818148347421905 13.017638090204954 2.9951000000000243
    vertex 14.017949192431164 13.499999999999913 2.9257152256434435e-14
    vertex 14.017949192431166 13.499999999999913 2.995100000000024
  endloop
endfacet
endsolid hall sensor mount
