solid hall sensor mount flipped
facet normal -0.793353340291235 -0.6087614290087211 3.0120673175427516e-16
  outer loop
    vertex 5.482050807568874 5.500000000000004 2.9950999999999963
    vertex 5.164213562373089 5.9142135623730985 -3.524958103184872e-15
    vertex 5.482050807568874 5.500000000000003 -2.8199664825478975e-15
  endloop
endfacet
facet normal -0.793353340291235 -0.6087614290087211 3.0120673175427516e-16
  outer loop
    vertex 5.164213562373089 5.9142135623730985 -3.524958103184872e-15
    vertex 5.482050807568874 5.500000000000004 2.9950999999999963
    vertex 5.164213562373086 5.914213562373101 2.9950999999999963
  endloop
endfacet
facet normal -0.13052619222005213 -0.9914448613738105 6.779069250551049e-16
  outer loop
    vertex 4.267638090205039 6.431851652578139 -3.7012060083441155e-15
    vertex 3.7499999999999933 6.500000000000005 2.9950999999999963
    vertex 3.7499999999999933 6.5000000000000036 -3.877453913503359e-15
  endloop
endfacet
facet normal -0.13052619222005213 -0.9914448613738105 6.779069250551049e-16
  outer loop
    vertex 3.7499999999999933 6.500000000000005 2.9950999999999963
    vertex 4.267638090205039 6.431851652578139 -3.7012060083441155e-15
    vertex 4.267638090205039 6.431851652578142 2.995099999999996
  endloop
endfacet
facet normal 0.6087614290087204 -0.7933533402912355 6.574984356852964e-16
  outer loop
    vertex 2.749999999999995 6.232050807568882 2.9950999999999963
    vertex 2.3357864376269 5.914213562373098 -3.524958103184872e-15
    vertex 2.749999999999995 6.23205080756888 -3.877453913503359e-15
  endloop
endfacet
facet normal 0.6087614290087204 -0.7933533402912355 6.574984356852964e-16
  outer loop
    vertex 2.3357864376269 5.914213562373098 -3.524958103184872e-15
    vertex 2.749999999999995 6.232050807568882 2.9950999999999963
    vertex 2.3357864376269 5.914213562373099 2.9950999999999963
  endloop
endfacet
facet normal -0.3826834323650896 -0.923879532511287 5.896018993327352e-16
  outer loop
    vertex 4.749999999999997 6.232050807568881 2.9950999999999963
    vertex 4.267638090205039 6.431851652578139 -3.7012060083441155e-15
    vertex 4.749999999999997 6.232050807568879 -3.7012060083441155e-15
  endloop
endfacet
facet normal -0.3826834323650896 -0.923879532511287 5.896018993327352e-16
  outer loop
    vertex 4.267638090205039 6.431851652578139 -3.7012060083441155e-15
    vertex 4.749999999999997 6.232050807568881 2.9950999999999963
    vertex 4.267638090205039 6.431851652578142 2.995099999999996
  endloop
endfacet
facet normal -0.6087614290087205 -0.7933533402912352 4.611164785340472e-16
  outer loop
    vertex 5.164213562373089 5.9142135623730985 -3.524958103184872e-15
    vertex 4.749999999999997 6.232050807568881 2.9950999999999963
    vertex 4.749999999999997 6.232050807568879 -3.7012060083441155e-15
  endloop
endfacet
facet normal -0.6087614290087205 -0.7933533402912352 4.611164785340472e-16
  outer loop
    vertex 4.749999999999997 6.232050807568881 2.9950999999999963
    vertex 5.164213562373089 5.9142135623730985 -3.524958103184872e-15
    vertex 5.164213562373086 5.914213562373101 2.9950999999999963
  endloop
endfacet
facet normal -0.9238795325112867 -0.3826834323650901 1.2077024397310835e-16
  outer loop
    vertex 5.681851652578132 5.017638090205047 2.9950999999999977
    vertex 5.482050807568874 5.500000000000003 -2.8199664825478975e-15
    vertex 5.681851652578132 5.017638090205044 -2.8199664825478975e-15
  endloop
endfacet
facet normal -0.9238795325112867 -0.3826834323650901 1.2077024397310835e-16
  outer loop
    vertex 5.482050807568874 5.500000000000003 -2.8199664825478975e-15
    vertex 5.681851652578132 5.017638090205047 2.9950999999999977
    vertex 5.482050807568874 5.500000000000004 2.9950999999999963
  endloop
endfacet
facet normal -0.9914448613738104 -0.1305261922200518 -6.78965363525608e-17
  outer loop
    vertex 5.749999999999995 4.500000000000005 2.995099999999998
    vertex 5.681851652578132 5.017638090205044 -2.8199664825478975e-15
    vertex 5.749999999999995 4.500000000000003 -2.2912227670701667e-15
  endloop
endfacet
facet normal -0.9914448613738104 -0.1305261922200518 -6.78965363525608e-17
  outer loop
    vertex 5.681851652578132 5.017638090205044 -2.8199664825478975e-15
    vertex 5.749999999999995 4.500000000000005 2.995099999999998
    vertex 5.681851652578132 5.017638090205047 2.9950999999999977
  endloop
endfacet
facet normal 0.3826834323650907 -0.9238795325112863 7.130527584641816e-16
  outer loop
    vertex 3.232361909794953 6.431851652578142 2.9950999999999954
    vertex 2.749999999999995 6.23205080756888 -3.877453913503359e-15
    vertex 3.232361909794953 6.431851652578139 -3.877453913503359e-15
  endloop
endfacet
facet normal 0.3826834323650907 -0.9238795325112863 7.130527584641816e-16
  outer loop
    vertex 2.749999999999995 6.23205080756888 -3.877453913503359e-15
    vertex 3.232361909794953 6.431851652578142 2.9950999999999954
    vertex 2.749999999999995 6.232050807568882 2.9950999999999963
  endloop
endfacet
facet normal 0.13052619222005246 -0.9914448613738103 7.200137141291328e-16
  outer loop
    vertex 3.7499999999999933 6.500000000000005 2.9950999999999963
    vertex 3.232361909794953 6.431851652578139 -3.877453913503359e-15
    vertex 3.7499999999999933 6.5000000000000036 -3.877453913503359e-15
  endloop
endfacet
facet normal 0.13052619222005246 -0.9914448613738103 7.200137141291328e-16
  outer loop
    vertex 3.232361909794953 6.431851652578139 -3.877453913503359e-15
    vertex 3.7499999999999933 6.500000000000005 2.9950999999999963
    vertex 3.232361909794953 6.431851652578142 2.9950999999999954
  endloop
endfacet
facet normal -0.7933533402912357 0.60876142900872 -5.571366810819966e-16
  outer loop
    vertex 5.164213562373089 3.08578643762691 2.995099999999998
    vertex 5.482050807568877 3.5000000000000027 -1.4099832412739487e-15
    vertex 5.164213562373091 3.085786437626908 -1.233735336114705e-15
  endloop
endfacet
facet normal -0.7933533402912357 0.60876142900872 -5.571366810819966e-16
  outer loop
    vertex 5.482050807568877 3.5000000000000027 -1.4099832412739487e-15
    vertex 5.164213562373089 3.08578643762691 2.995099999999998
    vertex 5.482050807568874 3.500000000000005 2.995099999999998
  endloop
endfacet
facet normal -0.9914448613738105 0.13052619222005163 -2.519362799301349e-16
  outer loop
    vertex 5.681851652578132 3.982361909794963 2.995099999999998
    vertex 5.749999999999995 4.500000000000003 -2.2912227670701667e-15
    vertex 5.681851652578132 3.9823619097949616 -1.762479051592436e-15
  endloop
endfacet
facet normal -0.9914448613738105 0.13052619222005163 -2.519362799301349e-16
  outer loop
    vertex 5.749999999999995 4.500000000000003 -2.2912227670701667e-15
    vertex 5.681851652578132 3.982361909794963 2.995099999999998
    vertex 5.749999999999995 4.500000000000005 2.995099999999998
  endloop
endfacet
facet normal -0.9238795325112867 0.3826834323650898 -4.1880698237485786e-16
  outer loop
    vertex 5.482050807568874 3.500000000000005 2.995099999999998
    vertex 5.681851652578132 3.9823619097949616 -1.762479051592436e-15
    vertex 5.482050807568877 3.5000000000000027 -1.4099832412739487e-15
  endloop
endfacet
facet normal -0.9238795325112867 0.3826834323650898 -4.1880698237485786e-16
  outer loop
    vertex 5.681851652578132 3.9823619097949616 -1.762479051592436e-15
    vertex 5.482050807568874 3.500000000000005 2.995099999999998
    vertex 5.681851652578132 3.982361909794963 2.995099999999998
  endloop
endfacet
facet normal 1.0 6.626643678231404e-16 1.942890293094021e-16
  outer loop
    vertex 7.499999999999983 22.000000000000004 -1.4099832412739488e-14
    vertex 7.499999999999997 7.049916206369744e-15 2.9951
    vertex 7.499999999999997 4.93494134445882e-15 1.4099832412739487e-15
  endloop
endfacet
facet normal 1.0 6.626643678231404e-16 1.942890293094021e-16
  outer loop
    vertex 7.499999999999997 7.049916206369744e-15 2.9951
    vertex 7.499999999999983 22.000000000000004 -1.4099832412739488e-14
    vertex 7.499999999999983 22.000000000000004 2.9950999999999843
  endloop
endfacet
facet normal -1.942890293094025e-16 7.049916206369698e-16 1.0
  outer loop
    vertex 1.749999999999997 4.500000000000004 2.9950999999999968
    vertex 1.8181483474218547 12.982361909794964 2.995099999999986
    vertex 1.7499999999999911 13.500000000000004 2.9950999999999857
  endloop
endfacet
facet normal -1.942890293094025e-16 7.049916206369698e-16 1.0
  outer loop
    vertex 1.8181483474218547 12.982361909794964 2.995099999999986
    vertex 1.749999999999997 4.500000000000004 2.9950999999999968
    vertex 1.8181483474218603 5.017638090205047 2.9950999999999963
  endloop
endfacet
facet normal -1.942890293094025e-16 7.049916206369698e-16 1.0
  outer loop
    vertex 1.8181483474218547 12.982361909794964 2.995099999999986
    vertex 1.8181483474218603 5.017638090205047 2.9950999999999963
    vertex 2.017949192431115 12.500000000000002 2.995099999999986
  endloop
endfacet
facet normal -1.942890293094025e-16 7.049916206369698e-16 1.0
  outer loop
    vertex 2.017949192431115 12.500000000000002 2.995099999999986
    vertex 1.8181483474218603 5.017638090205047 2.9950999999999963
    vertex 2.0179491924311206 5.500000000000004 2.9950999999999963
  endloop
endfacet
facet normal -1.942890293094025e-16 7.049916206369698e-16 1.0
  outer loop
    vertex 2.017949192431115 12.500000000000002 2.995099999999986
    vertex 2.0179491924311206 5.500000000000004 2.9950999999999963
    vertex 2.3357864376268975 12.085786437626908 2.995099999999987
  endloop
endfacet
facet normal -1.942890293094025e-16 7.049916206369698e-16 1.0
  outer loop
    vertex 2.3357864376268975 12.085786437626908 2.995099999999987
    vertex 2.0179491924311206 5.500000000000004 2.9950999999999963
    vertex 2.3357864376269 5.914213562373099 2.9950999999999963
  endloop
endfacet
facet normal -1.942890293094025e-16 7.049916206369698e-16 1.0
  outer loop
    vertex 2.3357864376268975 12.085786437626908 2.995099999999987
    vertex 2.3357864376269 5.914213562373099 2.9950999999999963
    vertex 2.749999999999992 11.767949192431127 2.995099999999987
  endloop
endfacet
facet normal -1.942890293094025e-16 7.049916206369698e-16 1.0
  outer loop
    vertex 2.749999999999992 11.767949192431127 2.995099999999987
    vertex 2.3357864376269 5.914213562373099 2.9950999999999963
    vertex 2.749999999999995 6.232050807568882 2.9950999999999963
  endloop
endfacet
facet normal -1.942890293094025e-16 7.049916206369698e-16 1.0
  outer loop
    vertex 2.749999999999992 11.767949192431127 2.995099999999987
    vertex 2.749999999999995 6.232050807568882 2.9950999999999963
    vertex 3.2323619097949474 11.56814834742187 2.995099999999987
  endloop
endfacet
facet normal -1.942890293094025e-16 7.049916206369698e-16 1.0
  outer loop
    vertex 3.2323619097949474 11.56814834742187 2.995099999999987
    vertex 2.749999999999995 6.232050807568882 2.9950999999999963
    vertex 3.232361909794953 6.431851652578142 2.9950999999999954
  endloop
endfacet
facet normal -1.942890293094025e-16 7.049916206369698e-16 1.0
  outer loop
    vertex 3.2323619097949474 11.56814834742187 2.995099999999987
    vertex 3.232361909794953 6.431851652578142 2.9950999999999954
    vertex 3.7499999999999902 11.500000000000005 2.9950999999999883
  endloop
endfacet
facet normal -1.942890293094025e-16 7.049916206369698e-16 1.0
  outer loop
    vertex 3.7499999999999902 11.500000000000005 2.9950999999999883
    vertex 3.232361909794953 6.431851652578142 2.9950999999999954
    vertex 3.7499999999999933 6.500000000000005 2.9950999999999963
  endloop
endfacet
facet normal -1.942890293094025e-16 7.049916206369698e-16 1.0
  outer loop
    vertex 3.7499999999999902 11.500000000000005 2.9950999999999883
    vertex 3.7499999999999933 6.500000000000005 2.9950999999999963
    vertex 4.26763809020503 11.568148347421868 2.995099999999988
  endloop
endfacet
facet normal -1.942890293094025e-16 7.049916206369698e-16 1.0
  outer loop
    vertex 4.26763809020503 11.568148347421868 2.995099999999988
    vertex 3.7499999999999933 6.500000000000005 2.9950999999999963
    vertex 4.267638090205039 6.431851652578142 2.995099999999996
  endloop
endfacet
facet normal -1.942890293094025e-16 7.049916206369698e-16 1.0
  outer loop
    vertex 4.26763809020503 11.568148347421868 2.995099999999988
    vertex 4.267638090205039 6.431851652578142 2.995099999999996
    vertex 4.749999999999991 11.767949192431127 2.9950999999999883
  endloop
endfacet
facet normal -1.942890293094025e-16 7.049916206369698e-16 1.0
  outer loop
    vertex 4.749999999999991 11.767949192431127 2.9950999999999883
    vertex 4.267638090205039 6.431851652578142 2.995099999999996
    vertex 4.749999999999997 6.232050807568881 2.9950999999999963
  endloop
endfacet
facet normal -1.942890293094025e-16 7.049916206369698e-16 1.0
  outer loop
    vertex 4.749999999999991 11.767949192431127 2.9950999999999883
    vertex 4.749999999999997 6.232050807568881 2.9950999999999963
    vertex 5.164213562373086 12.085786437626908 2.995099999999987
  endloop
endfacet
facet normal -1.942890293094025e-16 7.049916206369698e-16 1.0
  outer loop
    vertex 5.164213562373086 12.085786437626908 2.995099999999987
    vertex 4.749999999999997 6.232050807568881 2.9950999999999963
    vertex 5.164213562373086 5.914213562373101 2.9950999999999963
  endloop
endfacet
facet normal -1.942890293094025e-16 7.049916206369698e-16 1.0
  outer loop
    vertex 5.164213562373086 12.085786437626908 2.995099999999987
    vertex 5.164213562373086 5.914213562373101 2.9950999999999963
    vertex 5.482050807568874 5.500000000000004 2.9950999999999963
  endloop
endfacet
facet normal -1.942890293094025e-16 7.049916206369698e-16 1.0
  outer loop
    vertex 5.164213562373086 12.085786437626908 2.995099999999987
    vertex 5.482050807568874 5.500000000000004 2.9950999999999963
    vertex 5.482050807568869 12.500000000000005 2.9950999999999874
  endloop
endfacet
facet normal -1.942890293094025e-16 7.049916206369698e-16 1.0
  outer loop
    vertex 5.482050807568869 12.500000000000005 2.9950999999999874
    vertex 5.482050807568874 5.500000000000004 2.9950999999999963
    vertex 5.681851652578126 12.982361909794964 2.995099999999987
  endloop
endfacet
facet normal -1.942890293094025e-16 7.049916206369698e-16 1.0
  outer loop
    vertex 5.681851652578126 12.982361909794964 2.995099999999987
    vertex 5.482050807568874 5.500000000000004 2.9950999999999963
    vertex 5.681851652578132 5.017638090205047 2.9950999999999977
  endloop
endfacet
facet normal -1.942890293094025e-16 7.049916206369698e-16 1.0
  outer loop
    vertex 5.681851652578126 12.982361909794964 2.995099999999987
    vertex 5.681851652578132 5.017638090205047 2.9950999999999977
    vertex 5.749999999999989 13.500000000000007 2.9950999999999874
  endloop
endfacet
facet normal -1.942890293094025e-16 7.049916206369698e-16 1.0
  outer loop
    vertex 5.749999999999989 13.500000000000007 2.9950999999999874
    vertex 5.681851652578132 5.017638090205047 2.9950999999999977
    vertex 5.749999999999995 4.500000000000005 2.995099999999998
  endloop
endfacet
facet normal -1.942890293094025e-16 7.049916206369698e-16 1.0
  outer loop
    vertex -1.4099832412739487e-15 2.114974861910923e-15 2.995099999999998
    vertex 1.749999999999997 4.500000000000004 2.9950999999999968
    vertex 1.7499999999999911 13.500000000000004 2.9950999999999857
  endloop
endfacet
facet normal -1.942890293094025e-16 7.049916206369698e-16 1.0
  outer loop
    vertex 1.749999999999997 4.500000000000004 2.9950999999999968
    vertex -1.4099832412739487e-15 2.114974861910923e-15 2.995099999999998
    vertex 1.8181483474218603 3.9823619097949616 2.995099999999997
  endloop
endfacet
facet normal -1.942890293094025e-16 7.049916206369698e-16 1.0
  outer loop
    vertex 1.8181483474218603 3.9823619097949616 2.995099999999997
    vertex -1.4099832412739487e-15 2.114974861910923e-15 2.995099999999998
    vertex 2.0179491924311206 3.500000000000005 2.9950999999999977
  endloop
endfacet
facet normal -1.942890293094025e-16 7.049916206369698e-16 1.0
  outer loop
    vertex 2.0179491924311206 3.500000000000005 2.9950999999999977
    vertex -1.4099832412739487e-15 2.114974861910923e-15 2.995099999999998
    vertex 2.3357864376269 3.0857864376269086 2.9950999999999977
  endloop
endfacet
facet normal -1.942890293094025e-16 7.049916206369698e-16 1.0
  outer loop
    vertex 2.3357864376269 3.0857864376269086 2.9950999999999977
    vertex -1.4099832412739487e-15 2.114974861910923e-15 2.995099999999998
    vertex 2.749999999999995 2.7679491924311272 2.995099999999998
  endloop
endfacet
facet normal -1.942890293094025e-16 7.049916206369698e-16 1.0
  outer loop
    vertex 2.749999999999995 2.7679491924311272 2.995099999999998
    vertex -1.4099832412739487e-15 2.114974861910923e-15 2.995099999999998
    vertex 7.499999999999997 7.049916206369744e-15 2.9951
  endloop
endfacet
facet normal -1.942890293094025e-16 7.049916206369698e-16 1.0
  outer loop
    vertex 2.749999999999995 2.7679491924311272 2.995099999999998
    vertex 7.499999999999997 7.049916206369744e-15 2.9951
    vertex 3.232361909794953 2.568148347421868 2.995099999999998
  endloop
endfacet
facet normal -1.942890293094025e-16 7.049916206369698e-16 1.0
  outer loop
    vertex 3.232361909794953 2.568148347421868 2.995099999999998
    vertex 7.499999999999997 7.049916206369744e-15 2.9951
    vertex 3.7499999999999987 2.500000000000005 2.995099999999999
  endloop
endfacet
facet normal -1.942890293094025e-16 7.049916206369698e-16 1.0
  outer loop
    vertex 3.7499999999999987 2.500000000000005 2.995099999999999
    vertex 7.499999999999997 7.049916206369744e-15 2.9951
    vertex 4.267638090205039 2.5681483474218685 2.9950999999999994
  endloop
endfacet
facet normal -1.942890293094025e-16 7.049916206369698e-16 1.0
  outer loop
    vertex 4.267638090205039 2.5681483474218685 2.9950999999999994
    vertex 7.499999999999997 7.049916206369744e-15 2.9951
    vertex 4.749999999999994 2.767949192431128 2.995099999999999
  endloop
endfacet
facet normal -1.942890293094025e-16 7.049916206369698e-16 1.0
  outer loop
    vertex 4.749999999999994 2.767949192431128 2.995099999999999
    vertex 7.499999999999997 7.049916206369744e-15 2.9951
    vertex 5.164213562373089 3.08578643762691 2.995099999999998
  endloop
endfacet
facet normal -1.942890293094025e-16 7.049916206369698e-16 1.0
  outer loop
    vertex 5.164213562373089 3.08578643762691 2.995099999999998
    vertex 7.499999999999997 7.049916206369744e-15 2.9951
    vertex 5.482050807568874 3.500000000000005 2.995099999999998
  endloop
endfacet
facet normal -1.942890293094025e-16 7.049916206369698e-16 1.0
  outer loop
    vertex 5.482050807568874 3.500000000000005 2.995099999999998
    vertex 7.499999999999997 7.049916206369744e-15 2.9951
    vertex 5.681851652578132 3.982361909794963 2.995099999999998
  endloop
endfacet
facet normal -1.942890293094025e-16 7.049916206369698e-16 1.0
  outer loop
    vertex 5.681851652578132 3.982361909794963 2.995099999999998
    vertex 7.499999999999997 7.049916206369744e-15 2.9951
    vertex 5.749999999999995 4.500000000000005 2.995099999999998
  endloop
endfacet
facet normal -1.942890293094025e-16 7.049916206369698e-16 1.0
  outer loop
    vertex 5.749999999999995 4.500000000000005 2.995099999999998
    vertex 7.499999999999997 7.049916206369744e-15 2.9951
    vertex 7.499999999999983 22.000000000000004 2.9950999999999843
  endloop
endfacet
facet normal -1.942890293094025e-16 7.049916206369698e-16 1.0
  outer loop
    vertex -1.5509815654013436e-14 22.0 2.9950999999999826
    vertex 2.017949192431115 14.500000000000002 2.9950999999999848
    vertex 7.499999999999983 22.000000000000004 2.9950999999999843
  endloop
endfacet
facet normal -1.942890293094025e-16 7.049916206369698e-16 1.0
  outer loop
    vertex 2.017949192431115 14.500000000000002 2.9950999999999848
    vertex -1.5509815654013436e-14 22.0 2.9950999999999826
    vertex 1.8181483474218547 14.017638090205043 2.995099999999985
  endloop
endfacet
facet normal -1.942890293094025e-16 7.049916206369698e-16 1.0
  outer loop
    vertex 1.8181483474218547 14.017638090205043 2.995099999999985
    vertex -1.5509815654013436e-14 22.0 2.9950999999999826
    vertex 1.7499999999999911 13.500000000000004 2.9950999999999857
  endloop
endfacet
facet normal -1.942890293094025e-16 7.049916206369698e-16 1.0
  outer loop
    vertex 1.7499999999999911 13.500000000000004 2.9950999999999857
    vertex -1.5509815654013436e-14 22.0 2.9950999999999826
    vertex -1.4099832412739487e-15 2.114974861910923e-15 2.995099999999998
  endloop
endfacet
facet normal -1.942890293094025e-16 7.049916206369698e-16 1.0
  outer loop
    vertex 7.499999999999983 22.000000000000004 2.9950999999999843
    vertex 2.017949192431115 14.500000000000002 2.9950999999999848
    vertex 2.3357864376268944 14.914213562373096 2.995099999999985
  endloop
endfacet
facet normal -1.942890293094025e-16 7.049916206369698e-16 1.0
  outer loop
    vertex 7.499999999999983 22.000000000000004 2.9950999999999843
    vertex 2.3357864376268944 14.914213562373096 2.995099999999985
    vertex 2.7499999999999867 15.232050807568877 2.9950999999999857
  endloop
endfacet
facet normal -1.942890293094025e-16 7.049916206369698e-16 1.0
  outer loop
    vertex 7.499999999999983 22.000000000000004 2.9950999999999843
    vertex 2.7499999999999867 15.232050807568877 2.9950999999999857
    vertex 3.2323619097949448 15.431851652578136 2.9950999999999843
  endloop
endfacet
facet normal -1.942890293094025e-16 7.049916206369698e-16 1.0
  outer loop
    vertex 7.499999999999983 22.000000000000004 2.9950999999999843
    vertex 3.2323619097949448 15.431851652578136 2.9950999999999843
    vertex 3.7499999999999876 15.5 2.9950999999999857
  endloop
endfacet
facet normal -1.942890293094025e-16 7.049916206369698e-16 1.0
  outer loop
    vertex 7.499999999999983 22.000000000000004 2.9950999999999843
    vertex 3.7499999999999876 15.5 2.9950999999999857
    vertex 4.26763809020503 15.431851652578136 2.9950999999999843
  endloop
endfacet
facet normal -1.942890293094025e-16 7.049916206369698e-16 1.0
  outer loop
    vertex 7.499999999999983 22.000000000000004 2.9950999999999843
    vertex 4.26763809020503 15.431851652578136 2.9950999999999843
    vertex 4.749999999999991 15.232050807568877 2.995099999999986
  endloop
endfacet
facet normal -1.942890293094025e-16 7.049916206369698e-16 1.0
  outer loop
    vertex 7.499999999999983 22.000000000000004 2.9950999999999843
    vertex 4.749999999999991 15.232050807568877 2.995099999999986
    vertex 5.164213562373086 14.914213562373096 2.995099999999986
  endloop
endfacet
facet normal -1.942890293094025e-16 7.049916206369698e-16 1.0
  outer loop
    vertex 7.499999999999983 22.000000000000004 2.9950999999999843
    vertex 5.164213562373086 14.914213562373096 2.995099999999986
    vertex 5.482050807568866 14.500000000000002 2.995099999999986
  endloop
endfacet
facet normal -1.942890293094025e-16 7.049916206369698e-16 1.0
  outer loop
    vertex 7.499999999999983 22.000000000000004 2.9950999999999843
    vertex 5.482050807568866 14.500000000000002 2.995099999999986
    vertex 5.681851652578126 14.017638090205043 2.995099999999986
  endloop
endfacet
facet normal -1.942890293094025e-16 7.049916206369698e-16 1.0
  outer loop
    vertex 7.499999999999983 22.000000000000004 2.9950999999999843
    vertex 5.681851652578126 14.017638090205043 2.995099999999986
    vertex 5.749999999999989 13.500000000000007 2.9950999999999874
  endloop
endfacet
facet normal -1.942890293094025e-16 7.049916206369698e-16 1.0
  outer loop
    vertex 7.499999999999983 22.000000000000004 2.9950999999999843
    vertex 5.749999999999989 13.500000000000007 2.9950999999999874
    vertex 5.749999999999995 4.500000000000005 2.995099999999998
  endloop
endfacet
facet normal -6.626643678231403e-16 1.0 -7.049916206369701e-16
  outer loop
    vertex -1.5509815654013436e-14 22.0 2.9950999999999826
    vertex 7.499999999999983 22.000000000000004 -1.4099832412739488e-14
    vertex -1.4099832412739488e-14 22.0 -1.5509815654013436e-14
  endloop
endfacet
facet normal -6.626643678231403e-16 1.0 -7.049916206369701e-16
  outer loop
    vertex 7.499999999999983 22.000000000000004 -1.4099832412739488e-14
    vertex -1.5509815654013436e-14 22.0 2.9950999999999826
    vertex 7.499999999999983 22.000000000000004 2.9950999999999843
  endloop
endfacet
facet normal -1.0 -6.626643678231404e-16 -1.942890293094021e-16
  outer loop
    vertex -1.4099832412739487e-15 2.114974861910923e-15 2.995099999999998
    vertex -1.4099832412739488e-14 22.0 -1.5509815654013436e-14
    vertex 0.0 0.0 0.0
  endloop
endfacet
facet normal -1.0 -6.626643678231404e-16 -1.942890293094021e-16
  outer loop
    vertex -1.4099832412739488e-14 22.0 -1.5509815654013436e-14
    vertex -1.4099832412739487e-15 2.114974861910923e-15 2.995099999999998
    vertex -1.5509815654013436e-14 22.0 2.9950999999999826
  endloop
endfacet
facet normal 1.9374704310053376e-16 -7.049916206369698e-16 -1.0
  outer loop
    vertex -1.4099832412739488e-14 22.0 -1.5509815654013436e-14
    vertex 1.7499999999999911 13.5 -9.164891068280667e-15
    vertex 0.0 0.0 0.0
  endloop
endfacet
facet normal 1.9374704310053376e-16 -7.049916206369698e-16 -1.0
  outer loop
    vertex 1.7499999999999911 13.5 -9.164891068280667e-15
    vertex -1.4099832412739488e-14 22.0 -1.5509815654013436e-14
    vertex 1.8181483474218547 14.017638090205043 -9.34113897343991e-15
  endloop
endfacet
facet normal 1.9374704310053376e-16 -7.049916206369698e-16 -1.0
  outer loop
    vertex 1.8181483474218547 14.017638090205043 -9.34113897343991e-15
    vertex -1.4099832412739488e-14 22.0 -1.5509815654013436e-14
    vertex 2.017949192431112 14.500000000000002 -9.86988268891764e-15
  endloop
endfacet
facet normal 1.9374704310053376e-16 -7.049916206369698e-16 -1.0
  outer loop
    vertex 2.017949192431112 14.500000000000002 -9.86988268891764e-15
    vertex -1.4099832412739488e-14 22.0 -1.5509815654013436e-14
    vertex 7.499999999999983 22.000000000000004 -1.4099832412739488e-14
  endloop
endfacet
facet normal 1.9374704310053376e-16 -7.049916206369698e-16 -1.0
  outer loop
    vertex 2.017949192431112 14.500000000000002 -9.86988268891764e-15
    vertex 7.499999999999983 22.000000000000004 -1.4099832412739488e-14
    vertex 2.3357864376268944 14.914213562373103 -9.86988268891764e-15
  endloop
endfacet
facet normal 1.9374704310053376e-16 -7.049916206369698e-16 -1.0
  outer loop
    vertex 2.3357864376268944 14.914213562373103 -9.86988268891764e-15
    vertex 7.499999999999983 22.000000000000004 -1.4099832412739488e-14
    vertex 2.7499999999999893 15.232050807568882 -1.0222378499236128e-14
  endloop
endfacet
facet normal 1.9374704310053376e-16 -7.049916206369698e-16 -1.0
  outer loop
    vertex 2.7499999999999893 15.232050807568882 -1.0222378499236128e-14
    vertex 7.499999999999983 22.000000000000004 -1.4099832412739488e-14
    vertex 3.2323619097949474 15.431851652578136 -1.0222378499236128e-14
  endloop
endfacet
facet normal 1.9374704310053376e-16 -7.049916206369698e-16 -1.0
  outer loop
    vertex 3.2323619097949474 15.431851652578136 -1.0222378499236128e-14
    vertex 7.499999999999983 22.000000000000004 -1.4099832412739488e-14
    vertex 3.7499999999999876 15.5 -1.0222378499236128e-14
  endloop
endfacet
facet normal 1.9374704310053376e-16 -7.049916206369698e-16 -1.0
  outer loop
    vertex 3.7499999999999876 15.5 -1.0222378499236128e-14
    vertex 7.499999999999983 22.000000000000004 -1.4099832412739488e-14
    vertex 4.26763809020503 15.431851652578136 -1.0046130594076885e-14
  endloop
endfacet
facet normal 1.9374704310053376e-16 -7.049916206369698e-16 -1.0
  outer loop
    vertex 4.26763809020503 15.431851652578136 -1.0046130594076885e-14
    vertex 7.499999999999983 22.000000000000004 -1.4099832412739488e-14
    vertex 4.7499999999999885 15.232050807568877 -1.0046130594076885e-14
  endloop
endfacet
facet normal 1.9374704310053376e-16 -7.049916206369698e-16 -1.0
  outer loop
    vertex 4.7499999999999885 15.232050807568877 -1.0046130594076885e-14
    vertex 7.499999999999983 22.000000000000004 -1.4099832412739488e-14
    vertex 5.164213562373083 14.914213562373096 -9.86988268891764e-15
  endloop
endfacet
facet normal 1.9374704310053376e-16 -7.049916206369698e-16 -1.0
  outer loop
    vertex 5.164213562373083 14.914213562373096 -9.86988268891764e-15
    vertex 7.499999999999983 22.000000000000004 -1.4099832412739488e-14
    vertex 5.482050807568866 14.500000000000002 -9.164891068280667e-15
  endloop
endfacet
facet normal 1.9374704310053376e-16 -7.049916206369698e-16 -1.0
  outer loop
    vertex 5.482050807568866 14.500000000000002 -9.164891068280667e-15
    vertex 7.499999999999983 22.000000000000004 -1.4099832412739488e-14
    vertex 5.681851652578126 14.017638090205043 -9.164891068280667e-15
  endloop
endfacet
facet normal 1.9374704310053376e-16 -7.049916206369698e-16 -1.0
  outer loop
    vertex 5.681851652578126 14.017638090205043 -9.164891068280667e-15
    vertex 7.499999999999983 22.000000000000004 -1.4099832412739488e-14
    vertex 5.749999999999989 13.500000000000004 -8.636147352802936e-15
  endloop
endfacet
facet normal 1.9374704310053376e-16 -7.049916206369698e-16 -1.0
  outer loop
    vertex 5.749999999999989 13.500000000000004 -8.636147352802936e-15
    vertex 7.499999999999983 22.000000000000004 -1.4099832412739488e-14
    vertex 5.749999999999995 4.500000000000003 -2.2912227670701667e-15
  endloop
endfacet
facet normal 1.9374704310053376e-16 -7.049916206369698e-16 -1.0
  outer loop
    vertex 0.0 0.0 0.0
    vertex 2.749999999999995 2.767949192431125 -1.4099832412739487e-15
    vertex 7.499999999999997 4.93494134445882e-15 1.4099832412739487e-15
  endloop
endfacet
facet normal 1.9374704310053376e-16 -7.049916206369698e-16 -1.0
  outer loop
    vertex 2.749999999999995 2.767949192431125 -1.4099832412739487e-15
    vertex 0.0 0.0 0.0
    vertex 2.3357864376269 3.0857864376269064 -1.5862311464331924e-15
  endloop
endfacet
facet normal 1.9374704310053376e-16 -7.049916206369698e-16 -1.0
  outer loop
    vertex 2.3357864376269 3.0857864376269064 -1.5862311464331924e-15
    vertex 0.0 0.0 0.0
    vertex 2.0179491924311233 3.500000000000002 -2.114974861910923e-15
  endloop
endfacet
facet normal 1.9374704310053376e-16 -7.049916206369698e-16 -1.0
  outer loop
    vertex 2.0179491924311233 3.500000000000002 -2.114974861910923e-15
    vertex 0.0 0.0 0.0
    vertex 1.8181483474218603 3.9823619097949594 -2.2912227670701667e-15
  endloop
endfacet
facet normal 1.9374704310053376e-16 -7.049916206369698e-16 -1.0
  outer loop
    vertex 1.8181483474218603 3.9823619097949594 -2.2912227670701667e-15
    vertex 0.0 0.0 0.0
    vertex 1.749999999999997 4.500000000000003 -2.8199664825478975e-15
  endloop
endfacet
facet normal 1.9374704310053376e-16 -7.049916206369698e-16 -1.0
  outer loop
    vertex 1.749999999999997 4.500000000000003 -2.8199664825478975e-15
    vertex 0.0 0.0 0.0
    vertex 1.7499999999999911 13.5 -9.164891068280667e-15
  endloop
endfacet
facet normal 1.9374704310053376e-16 -7.049916206369698e-16 -1.0
  outer loop
    vertex 7.499999999999997 4.93494134445882e-15 1.4099832412739487e-15
    vertex 2.749999999999995 2.767949192431125 -1.4099832412739487e-15
    vertex 3.232361909794956 2.568148347421866 -1.4099832412739487e-15
  endloop
endfacet
facet normal 1.9374704310053376e-16 -7.049916206369698e-16 -1.0
  outer loop
    vertex 7.499999999999997 4.93494134445882e-15 1.4099832412739487e-15
    vertex 3.232361909794956 2.568148347421866 -1.4099832412739487e-15
    vertex 3.7499999999999987 2.5000000000000027 -1.0574874309554614e-15
  endloop
endfacet
facet normal 1.9374704310053376e-16 -7.049916206369698e-16 -1.0
  outer loop
    vertex 7.499999999999997 4.93494134445882e-15 1.4099832412739487e-15
    vertex 3.7499999999999987 2.5000000000000027 -1.0574874309554614e-15
    vertex 4.267638090205039 2.5681483474218663 -1.233735336114705e-15
  endloop
endfacet
facet normal 1.9374704310053376e-16 -7.049916206369698e-16 -1.0
  outer loop
    vertex 7.499999999999997 4.93494134445882e-15 1.4099832412739487e-15
    vertex 4.267638090205039 2.5681483474218663 -1.233735336114705e-15
    vertex 4.749999999999997 2.767949192431126 -1.0574874309554614e-15
  endloop
endfacet
facet normal 1.9374704310053376e-16 -7.049916206369698e-16 -1.0
  outer loop
    vertex 7.499999999999997 4.93494134445882e-15 1.4099832412739487e-15
    vertex 4.749999999999997 2.767949192431126 -1.0574874309554614e-15
    vertex 5.164213562373091 3.085786437626908 -1.233735336114705e-15
  endloop
endfacet
facet normal 1.9374704310053376e-16 -7.049916206369698e-16 -1.0
  outer loop
    vertex 7.499999999999997 4.93494134445882e-15 1.4099832412739487e-15
    vertex 5.164213562373091 3.085786437626908 -1.233735336114705e-15
    vertex 5.482050807568877 3.5000000000000027 -1.4099832412739487e-15
  endloop
endfacet
facet normal 1.9374704310053376e-16 -7.049916206369698e-16 -1.0
  outer loop
    vertex 7.499999999999997 4.93494134445882e-15 1.4099832412739487e-15
    vertex 5.482050807568877 3.5000000000000027 -1.4099832412739487e-15
    vertex 5.681851652578132 3.9823619097949616 -1.762479051592436e-15
  endloop
endfacet
facet normal 1.9374704310053376e-16 -7.049916206369698e-16 -1.0
  outer loop
    vertex 7.499999999999997 4.93494134445882e-15 1.4099832412739487e-15
    vertex 5.681851652578132 3.9823619097949616 -1.762479051592436e-15
    vertex 5.749999999999995 4.500000000000003 -2.2912227670701667e-15
  endloop
endfacet
facet normal 1.9374704310053376e-16 -7.049916206369698e-16 -1.0
  outer loop
    vertex 7.499999999999997 4.93494134445882e-15 1.4099832412739487e-15
    vertex 5.749999999999995 4.500000000000003 -2.2912227670701667e-15
    vertex 7.499999999999983 22.000000000000004 -1.4099832412739488e-14
  endloop
endfacet
facet normal 1.9374704310053376e-16 -7.049916206369698e-16 -1.0
  outer loop
    vertex 1.8181483474218547 12.982361909794959 -8.636147352802936e-15
    vertex 1.749999999999997 4.500000000000003 -2.8199664825478975e-15
    vertex 1.7499999999999911 13.5 -9.164891068280667e-15
  endloop
endfacet
facet normal 1.9374704310053376e-16 -7.049916206369698e-16 -1.0
  outer loop
    vertex 1.749999999999997 4.500000000000003 -2.8199664825478975e-15
    vertex 1.8181483474218547 12.982361909794959 -8.636147352802936e-15
    vertex 1.8181483474218603 5.017638090205044 -2.996214387707141e-15
  endloop
endfacet
facet normal 1.9374704310053376e-16 -7.049916206369698e-16 -1.0
  outer loop
    vertex 1.8181483474218603 5.017638090205044 -2.996214387707141e-15
    vertex 1.8181483474218547 12.982361909794959 -8.636147352802936e-15
    vertex 2.017949192431115 12.5 -8.459899447643692e-15
  endloop
endfacet
facet normal 1.9374704310053376e-16 -7.049916206369698e-16 -1.0
  outer loop
    vertex 1.8181483474218603 5.017638090205044 -2.996214387707141e-15
    vertex 2.017949192431115 12.5 -8.459899447643692e-15
    vertex 2.0179491924311175 5.500000000000003 -3.524958103184872e-15
  endloop
endfacet
facet normal 1.9374704310053376e-16 -7.049916206369698e-16 -1.0
  outer loop
    vertex 2.0179491924311175 5.500000000000003 -3.524958103184872e-15
    vertex 2.017949192431115 12.5 -8.459899447643692e-15
    vertex 2.3357864376269 12.085786437626904 -7.931155732165962e-15
  endloop
endfacet
facet normal 1.9374704310053376e-16 -7.049916206369698e-16 -1.0
  outer loop
    vertex 2.0179491924311175 5.500000000000003 -3.524958103184872e-15
    vertex 2.3357864376269 12.085786437626904 -7.931155732165962e-15
    vertex 2.3357864376269 5.914213562373098 -3.524958103184872e-15
  endloop
endfacet
facet normal 1.9374704310053376e-16 -7.049916206369698e-16 -1.0
  outer loop
    vertex 2.3357864376269 5.914213562373098 -3.524958103184872e-15
    vertex 2.3357864376269 12.085786437626904 -7.931155732165962e-15
    vertex 2.749999999999992 11.767949192431123 -7.754907827006718e-15
  endloop
endfacet
facet normal 1.9374704310053376e-16 -7.049916206369698e-16 -1.0
  outer loop
    vertex 2.3357864376269 5.914213562373098 -3.524958103184872e-15
    vertex 2.749999999999992 11.767949192431123 -7.754907827006718e-15
    vertex 2.749999999999995 6.23205080756888 -3.877453913503359e-15
  endloop
endfacet
facet normal 1.9374704310053376e-16 -7.049916206369698e-16 -1.0
  outer loop
    vertex 2.749999999999995 6.23205080756888 -3.877453913503359e-15
    vertex 2.749999999999992 11.767949192431123 -7.754907827006718e-15
    vertex 3.2323619097949474 11.568148347421866 -7.754907827006718e-15
  endloop
endfacet
facet normal 1.9374704310053376e-16 -7.049916206369698e-16 -1.0
  outer loop
    vertex 2.749999999999995 6.23205080756888 -3.877453913503359e-15
    vertex 3.2323619097949474 11.568148347421866 -7.754907827006718e-15
    vertex 3.232361909794953 6.431851652578139 -3.877453913503359e-15
  endloop
endfacet
facet normal 1.9374704310053376e-16 -7.049916206369698e-16 -1.0
  outer loop
    vertex 3.232361909794953 6.431851652578139 -3.877453913503359e-15
    vertex 3.2323619097949474 11.568148347421866 -7.754907827006718e-15
    vertex 3.7499999999999902 11.500000000000004 -7.402412016688231e-15
  endloop
endfacet
facet normal 1.9374704310053376e-16 -7.049916206369698e-16 -1.0
  outer loop
    vertex 3.232361909794953 6.431851652578139 -3.877453913503359e-15
    vertex 3.7499999999999902 11.500000000000004 -7.402412016688231e-15
    vertex 3.7499999999999933 6.5000000000000036 -3.877453913503359e-15
  endloop
endfacet
facet normal 1.9374704310053376e-16 -7.049916206369698e-16 -1.0
  outer loop
    vertex 3.7499999999999933 6.5000000000000036 -3.877453913503359e-15
    vertex 3.7499999999999902 11.500000000000004 -7.402412016688231e-15
    vertex 4.267638090205033 11.568148347421864 -7.578659921847475e-15
  endloop
endfacet
facet normal 1.9374704310053376e-16 -7.049916206369698e-16 -1.0
  outer loop
    vertex 3.7499999999999933 6.5000000000000036 -3.877453913503359e-15
    vertex 4.267638090205033 11.568148347421864 -7.578659921847475e-15
    vertex 4.267638090205039 6.431851652578139 -3.7012060083441155e-15
  endloop
endfacet
facet normal 1.9374704310053376e-16 -7.049916206369698e-16 -1.0
  outer loop
    vertex 4.267638090205039 6.431851652578139 -3.7012060083441155e-15
    vertex 4.267638090205033 11.568148347421864 -7.578659921847475e-15
    vertex 4.749999999999994 11.767949192431123 -7.402412016688231e-15
  endloop
endfacet
facet normal 1.9374704310053376e-16 -7.049916206369698e-16 -1.0
  outer loop
    vertex 4.267638090205039 6.431851652578139 -3.7012060083441155e-15
    vertex 4.749999999999994 11.767949192431123 -7.402412016688231e-15
    vertex 4.749999999999997 6.232050807568879 -3.7012060083441155e-15
  endloop
endfacet
facet normal 1.9374704310053376e-16 -7.049916206369698e-16 -1.0
  outer loop
    vertex 4.749999999999997 6.232050807568879 -3.7012060083441155e-15
    vertex 4.749999999999994 11.767949192431123 -7.402412016688231e-15
    vertex 5.164213562373089 12.085786437626904 -7.578659921847475e-15
  endloop
endfacet
facet normal 1.9374704310053376e-16 -7.049916206369698e-16 -1.0
  outer loop
    vertex 4.749999999999997 6.232050807568879 -3.7012060083441155e-15
    vertex 5.164213562373089 12.085786437626904 -7.578659921847475e-15
    vertex 5.164213562373089 5.9142135623730985 -3.524958103184872e-15
  endloop
endfacet
facet normal 1.9374704310053376e-16 -7.049916206369698e-16 -1.0
  outer loop
    vertex 5.164213562373089 5.9142135623730985 -3.524958103184872e-15
    vertex 5.164213562373089 12.085786437626904 -7.578659921847475e-15
    vertex 5.482050807568866 12.500000000000002 -7.754907827006718e-15
  endloop
endfacet
facet normal 1.9374704310053376e-16 -7.049916206369698e-16 -1.0
  outer loop
    vertex 5.164213562373089 5.9142135623730985 -3.524958103184872e-15
    vertex 5.482050807568866 12.500000000000002 -7.754907827006718e-15
    vertex 5.482050807568874 5.500000000000003 -2.8199664825478975e-15
  endloop
endfacet
facet normal 1.9374704310053376e-16 -7.049916206369698e-16 -1.0
  outer loop
    vertex 5.482050807568874 5.500000000000003 -2.8199664825478975e-15
    vertex 5.482050807568866 12.500000000000002 -7.754907827006718e-15
    vertex 5.681851652578126 12.98236190979496 -8.107403637325205e-15
  endloop
endfacet
facet normal 1.9374704310053376e-16 -7.049916206369698e-16 -1.0
  outer loop
    vertex 5.482050807568874 5.500000000000003 -2.8199664825478975e-15
    vertex 5.681851652578126 12.98236190979496 -8.107403637325205e-15
    vertex 5.681851652578132 5.017638090205044 -2.8199664825478975e-15
  endloop
endfacet
facet normal 1.9374704310053376e-16 -7.049916206369698e-16 -1.0
  outer loop
    vertex 5.681851652578132 5.017638090205044 -2.8199664825478975e-15
    vertex 5.681851652578126 12.98236190979496 -8.107403637325205e-15
    vertex 5.749999999999989 13.500000000000004 -8.636147352802936e-15
  endloop
endfacet
facet normal 1.9374704310053376e-16 -7.049916206369698e-16 -1.0
  outer loop
    vertex 5.681851652578132 5.017638090205044 -2.8199664825478975e-15
    vertex 5.749999999999989 13.500000000000004 -8.636147352802936e-15
    vertex 5.749999999999995 4.500000000000003 -2.2912227670701667e-15
  endloop
endfacet
facet normal 6.626643678231403e-16 -1.0 7.049916206369701e-16
  outer loop
    vertex 7.499999999999997 4.93494134445882e-15 1.4099832412739487e-15
    vertex -1.4099832412739487e-15 2.114974861910923e-15 2.995099999999998
    vertex 0.0 0.0 0.0
  endloop
endfacet
facet normal 6.626643678231403e-16 -1.0 7.049916206369701e-16
  outer loop
    vertex -1.4099832412739487e-15 2.114974861910923e-15 2.995099999999998
    vertex 7.499999999999997 4.93494134445882e-15 1.4099832412739487e-15
    vertex 7.499999999999997 7.049916206369744e-15 2.9951
  endloop
endfacet
facet normal 0.9914448613738103 0.13052619222005246 6.789653635256051e-17
  outer loop
    vertex 1.749999999999997 4.500000000000003 -2.8199664825478975e-15
    vertex 1.8181483474218603 3.9823619097949616 2.995099999999997
    vertex 1.8181483474218603 3.9823619097949594 -2.2912227670701667e-15
  endloop
endfacet
facet normal 0.9914448613738103 0.13052619222005246 6.789653635256051e-17
  outer loop
    vertex 1.8181483474218603 3.9823619097949616 2.995099999999997
    vertex 1.749999999999997 4.500000000000003 -2.8199664825478975e-15
    vertex 1.749999999999997 4.500000000000004 2.9950999999999968
  endloop
endfacet
facet normal 0.9914448613738105 -0.13052619222005096 2.519362799301344e-16
  outer loop
    vertex 1.8181483474218603 5.017638090205044 -2.996214387707141e-15
    vertex 1.749999999999997 4.500000000000004 2.9950999999999968
    vertex 1.749999999999997 4.500000000000003 -2.8199664825478975e-15
  endloop
endfacet
facet normal 0.9914448613738105 -0.13052619222005096 2.519362799301344e-16
  outer loop
    vertex 1.749999999999997 4.500000000000004 2.9950999999999968
    vertex 1.8181483474218603 5.017638090205044 -2.996214387707141e-15
    vertex 1.8181483474218603 5.017638090205047 2.9950999999999963
  endloop
endfacet
facet normal 0.923879532511287 -0.3826834323650896 4.1880698237485786e-16
  outer loop
    vertex 2.0179491924311175 5.500000000000003 -3.524958103184872e-15
    vertex 1.8181483474218603 5.017638090205047 2.9950999999999963
    vertex 1.8181483474218603 5.017638090205044 -2.996214387707141e-15
  endloop
endfacet
facet normal 0.923879532511287 -0.3826834323650896 4.1880698237485786e-16
  outer loop
    vertex 1.8181483474218603 5.017638090205047 2.9950999999999963
    vertex 2.0179491924311175 5.500000000000003 -3.524958103184872e-15
    vertex 2.0179491924311206 5.500000000000004 2.9950999999999963
  endloop
endfacet
facet normal 0.9238795325112863 0.382683432365091 -1.2077024397310904e-16
  outer loop
    vertex 1.8181483474218603 3.9823619097949594 -2.2912227670701667e-15
    vertex 2.0179491924311206 3.500000000000005 2.9950999999999977
    vertex 2.0179491924311233 3.500000000000002 -2.114974861910923e-15
  endloop
endfacet
facet normal 0.9238795325112863 0.382683432365091 -1.2077024397310904e-16
  outer loop
    vertex 2.0179491924311206 3.500000000000005 2.9950999999999977
    vertex 1.8181483474218603 3.9823619097949594 -2.2912227670701667e-15
    vertex 1.8181483474218603 3.9823619097949616 2.995099999999997
  endloop
endfacet
facet normal 0.7933533402912356 -0.6087614290087199 5.571366810819964e-16
  outer loop
    vertex 2.3357864376269 5.914213562373098 -3.524958103184872e-15
    vertex 2.0179491924311206 5.500000000000004 2.9950999999999963
    vertex 2.0179491924311175 5.500000000000003 -3.524958103184872e-15
  endloop
endfacet
facet normal 0.7933533402912356 -0.6087614290087199 5.571366810819964e-16
  outer loop
    vertex 2.0179491924311206 5.500000000000004 2.9950999999999963
    vertex 2.3357864376269 5.914213562373098 -3.524958103184872e-15
    vertex 2.3357864376269 5.914213562373099 2.9950999999999963
  endloop
endfacet
facet normal -0.38268343236508967 0.9238795325112867 -7.130527584641818e-16
  outer loop
    vertex 4.267638090205039 2.5681483474218685 2.9950999999999994
    vertex 4.749999999999997 2.767949192431126 -1.0574874309554614e-15
    vertex 4.267638090205039 2.5681483474218663 -1.233735336114705e-15
  endloop
endfacet
facet normal -0.38268343236508967 0.9238795325112867 -7.130527584641818e-16
  outer loop
    vertex 4.749999999999997 2.767949192431126 -1.0574874309554614e-15
    vertex 4.267638090205039 2.5681483474218685 2.9950999999999994
    vertex 4.749999999999994 2.767949192431128 2.995099999999999
  endloop
endfacet
facet normal -0.13052619222005196 0.9914448613738104 -7.200137141291326e-16
  outer loop
    vertex 3.7499999999999987 2.5000000000000027 -1.0574874309554614e-15
    vertex 4.267638090205039 2.5681483474218685 2.9950999999999994
    vertex 4.267638090205039 2.5681483474218663 -1.233735336114705e-15
  endloop
endfacet
facet normal -0.13052619222005196 0.9914448613738104 -7.200137141291326e-16
  outer loop
    vertex 4.267638090205039 2.5681483474218685 2.9950999999999994
    vertex 3.7499999999999987 2.5000000000000027 -1.0574874309554614e-15
    vertex 3.7499999999999987 2.500000000000005 2.995099999999999
  endloop
endfacet
facet normal 0.13052619222005096 0.9914448613738105 -6.779069250551051e-16
  outer loop
    vertex 3.232361909794953 2.568148347421868 2.995099999999998
    vertex 3.7499999999999987 2.5000000000000027 -1.0574874309554614e-15
    vertex 3.232361909794956 2.568148347421866 -1.4099832412739487e-15
  endloop
endfacet
facet normal 0.13052619222005096 0.9914448613738105 -6.779069250551051e-16
  outer loop
    vertex 3.7499999999999987 2.5000000000000027 -1.0574874309554614e-15
    vertex 3.232361909794953 2.568148347421868 2.995099999999998
    vertex 3.7499999999999987 2.500000000000005 2.995099999999999
  endloop
endfacet
facet normal 0.38268343236508906 0.9238795325112871 -5.896018993327354e-16
  outer loop
    vertex 2.749999999999995 2.7679491924311272 2.995099999999998
    vertex 3.232361909794956 2.568148347421866 -1.4099832412739487e-15
    vertex 2.749999999999995 2.767949192431125 -1.4099832412739487e-15
  endloop
endfacet
facet normal 0.38268343236508906 0.9238795325112871 -5.896018993327354e-16
  outer loop
    vertex 3.232361909794956 2.568148347421866 -1.4099832412739487e-15
    vertex 2.749999999999995 2.7679491924311272 2.995099999999998
    vertex 3.232361909794953 2.568148347421868 2.995099999999998
  endloop
endfacet
facet normal 0.6087614290087205 0.7933533402912352 -4.611164785340472e-16
  outer loop
    vertex 2.3357864376269 3.0857864376269086 2.9950999999999977
    vertex 2.749999999999995 2.767949192431125 -1.4099832412739487e-15
    vertex 2.3357864376269 3.0857864376269064 -1.5862311464331924e-15
  endloop
endfacet
facet normal 0.6087614290087205 0.7933533402912352 -4.611164785340472e-16
  outer loop
    vertex 2.749999999999995 2.767949192431125 -1.4099832412739487e-15
    vertex 2.3357864376269 3.0857864376269086 2.9950999999999977
    vertex 2.749999999999995 2.7679491924311272 2.995099999999998
  endloop
endfacet
facet normal 0.7933533402912355 0.6087614290087204 -3.012067317542745e-16
  outer loop
    vertex 2.0179491924311233 3.500000000000002 -2.114974861910923e-15
    vertex 2.3357864376269 3.0857864376269086 2.9950999999999977
    vertex 2.3357864376269 3.0857864376269064 -1.5862311464331924e-15
  endloop
endfacet
facet normal 0.7933533402912355 0.6087614290087204 -3.012067317542745e-16
  outer loop
    vertex 2.3357864376269 3.0857864376269086 2.9950999999999977
    vertex 2.0179491924311233 3.500000000000002 -2.114974861910923e-15
    vertex 2.0179491924311206 3.500000000000005 2.9950999999999977
  endloop
endfacet
facet normal -0.6087614290087207 0.7933533402912353 -6.574984356852961e-16
  outer loop
    vertex 4.749999999999997 2.767949192431126 -1.0574874309554614e-15
    vertex 5.164213562373089 3.08578643762691 2.995099999999998
    vertex 5.164213562373091 3.085786437626908 -1.233735336114705e-15
  endloop
endfacet
facet normal -0.6087614290087207 0.7933533402912353 -6.574984356852961e-16
  outer loop
    vertex 5.164213562373089 3.08578643762691 2.995099999999998
    vertex 4.749999999999997 2.767949192431126 -1.0574874309554614e-15
    vertex 4.749999999999994 2.767949192431128 2.995099999999999
  endloop
endfacet
facet normal 0.3826834323650908 0.9238795325112865 -5.896018993327346e-16
  outer loop
    vertex 2.749999999999992 11.767949192431127 2.995099999999987
    vertex 3.2323619097949474 11.568148347421866 -7.754907827006718e-15
    vertex 2.749999999999992 11.767949192431123 -7.754907827006718e-15
  endloop
endfacet
facet normal 0.3826834323650908 0.9238795325112865 -5.896018993327346e-16
  outer loop
    vertex 3.2323619097949474 11.568148347421866 -7.754907827006718e-15
    vertex 2.749999999999992 11.767949192431127 2.995099999999987
    vertex 3.2323619097949474 11.56814834742187 2.995099999999987
  endloop
endfacet
facet normal 0.6087614290087197 0.7933533402912358 -4.611164785340476e-16
  outer loop
    vertex 2.3357864376268975 12.085786437626908 2.995099999999987
    vertex 2.749999999999992 11.767949192431123 -7.754907827006718e-15
    vertex 2.3357864376269 12.085786437626904 -7.931155732165962e-15
  endloop
endfacet
facet normal 0.6087614290087197 0.7933533402912358 -4.611164785340476e-16
  outer loop
    vertex 2.749999999999992 11.767949192431123 -7.754907827006718e-15
    vertex 2.3357864376268975 12.085786437626908 2.995099999999987
    vertex 2.749999999999992 11.767949192431127 2.995099999999987
  endloop
endfacet
facet normal 0.13052619222005246 -0.9914448613738103 7.200137141291328e-16
  outer loop
    vertex 3.7499999999999876 15.5 2.9950999999999857
    vertex 3.2323619097949474 15.431851652578136 -1.0222378499236128e-14
    vertex 3.7499999999999876 15.5 -1.0222378499236128e-14
  endloop
endfacet
facet normal 0.13052619222005246 -0.9914448613738103 7.200137141291328e-16
  outer loop
    vertex 3.2323619097949474 15.431851652578136 -1.0222378499236128e-14
    vertex 3.7499999999999876 15.5 2.9950999999999857
    vertex 3.2323619097949448 15.431851652578136 2.9950999999999843
  endloop
endfacet
facet normal -0.6087614290087202 0.7933533402912355 -6.574984356852965e-16
  outer loop
    vertex 4.749999999999994 11.767949192431123 -7.402412016688231e-15
    vertex 5.164213562373086 12.085786437626908 2.995099999999987
    vertex 5.164213562373089 12.085786437626904 -7.578659921847475e-15
  endloop
endfacet
facet normal -0.6087614290087202 0.7933533402912355 -6.574984356852965e-16
  outer loop
    vertex 5.164213562373086 12.085786437626908 2.995099999999987
    vertex 4.749999999999994 11.767949192431123 -7.402412016688231e-15
    vertex 4.749999999999991 11.767949192431127 2.9950999999999883
  endloop
endfacet
facet normal 0.7933533402912343 0.6087614290087219 -3.012067317542759e-16
  outer loop
    vertex 2.017949192431115 12.5 -8.459899447643692e-15
    vertex 2.3357864376268975 12.085786437626908 2.995099999999987
    vertex 2.3357864376269 12.085786437626904 -7.931155732165962e-15
  endloop
endfacet
facet normal 0.7933533402912343 0.6087614290087219 -3.012067317542759e-16
  outer loop
    vertex 2.3357864376268975 12.085786437626908 2.995099999999987
    vertex 2.017949192431115 12.5 -8.459899447643692e-15
    vertex 2.017949192431115 12.500000000000002 2.995099999999986
  endloop
endfacet
facet normal 0.9914448613738103 0.13052619222005246 6.78965363525608e-17
  outer loop
    vertex 1.7499999999999911 13.5 -9.164891068280667e-15
    vertex 1.8181483474218547 12.982361909794964 2.995099999999986
    vertex 1.8181483474218547 12.982361909794959 -8.636147352802936e-15
  endloop
endfacet
facet normal 0.9914448613738103 0.13052619222005246 6.78965363525608e-17
  outer loop
    vertex 1.8181483474218547 12.982361909794964 2.995099999999986
    vertex 1.7499999999999911 13.5 -9.164891068280667e-15
    vertex 1.7499999999999911 13.500000000000004 2.9950999999999857
  endloop
endfacet
facet normal 0.9914448613738106 -0.13052619222005077 2.519362799301344e-16
  outer loop
    vertex 1.8181483474218547 14.017638090205043 -9.34113897343991e-15
    vertex 1.7499999999999911 13.500000000000004 2.9950999999999857
    vertex 1.7499999999999911 13.5 -9.164891068280667e-15
  endloop
endfacet
facet normal 0.9914448613738106 -0.13052619222005077 2.519362799301344e-16
  outer loop
    vertex 1.7499999999999911 13.500000000000004 2.9950999999999857
    vertex 1.8181483474218547 14.017638090205043 -9.34113897343991e-15
    vertex 1.8181483474218547 14.017638090205043 2.995099999999985
  endloop
endfacet
facet normal 0.3826834323650919 -0.9238795325112859 7.130527584641816e-16
  outer loop
    vertex 3.2323619097949448 15.431851652578136 2.9950999999999843
    vertex 2.7499999999999893 15.232050807568882 -1.0222378499236128e-14
    vertex 3.2323619097949474 15.431851652578136 -1.0222378499236128e-14
  endloop
endfacet
facet normal 0.3826834323650919 -0.9238795325112859 7.130527584641816e-16
  outer loop
    vertex 2.7499999999999893 15.232050807568882 -1.0222378499236128e-14
    vertex 3.2323619097949448 15.431851652578136 2.9950999999999843
    vertex 2.7499999999999867 15.232050807568877 2.9950999999999857
  endloop
endfacet
facet normal -0.13052619222005077 -0.9914448613738106 6.779069250551053e-16
  outer loop
    vertex 4.26763809020503 15.431851652578136 -1.0046130594076885e-14
    vertex 3.7499999999999876 15.5 2.9950999999999857
    vertex 3.7499999999999876 15.5 -1.0222378499236128e-14
  endloop
endfacet
facet normal -0.13052619222005077 -0.9914448613738106 6.779069250551053e-16
  outer loop
    vertex 3.7499999999999876 15.5 2.9950999999999857
    vertex 4.26763809020503 15.431851652578136 -1.0046130594076885e-14
    vertex 4.26763809020503 15.431851652578136 2.9950999999999843
  endloop
endfacet
facet normal 0.6087614290087185 -0.7933533402912369 6.574984356852971e-16
  outer loop
    vertex 2.7499999999999867 15.232050807568877 2.9950999999999857
    vertex 2.3357864376268944 14.914213562373103 -9.86988268891764e-15
    vertex 2.7499999999999893 15.232050807568882 -1.0222378499236128e-14
  endloop
endfacet
facet normal 0.6087614290087185 -0.7933533402912369 6.574984356852971e-16
  outer loop
    vertex 2.3357864376268944 14.914213562373103 -9.86988268891764e-15
    vertex 2.7499999999999867 15.232050807568877 2.9950999999999857
    vertex 2.3357864376268944 14.914213562373096 2.995099999999985
  endloop
endfacet
facet normal -0.6087614290087211 -0.7933533402912348 4.611164785340468e-16
  outer loop
    vertex 5.164213562373083 14.914213562373096 -9.86988268891764e-15
    vertex 4.749999999999991 15.232050807568877 2.995099999999986
    vertex 4.7499999999999885 15.232050807568877 -1.0046130594076885e-14
  endloop
endfacet
facet normal -0.6087614290087211 -0.7933533402912348 4.611164785340468e-16
  outer loop
    vertex 4.749999999999991 15.232050807568877 2.995099999999986
    vertex 5.164213562373083 14.914213562373096 -9.86988268891764e-15
    vertex 5.164213562373086 14.914213562373096 2.995099999999986
  endloop
endfacet
facet normal -0.9238795325112868 -0.38268343236508956 1.2077024397310785e-16
  outer loop
    vertex 5.482050807568866 14.500000000000002 2.995099999999986
    vertex 5.681851652578126 14.017638090205043 -9.164891068280667e-15
    vertex 5.681851652578126 14.017638090205043 2.995099999999986
  endloop
endfacet
facet normal -0.9238795325112868 -0.38268343236508956 1.2077024397310785e-16
  outer loop
    vertex 5.681851652578126 14.017638090205043 -9.164891068280667e-15
    vertex 5.482050807568866 14.500000000000002 2.995099999999986
    vertex 5.482050807568866 14.500000000000002 -9.164891068280667e-15
  endloop
endfacet
facet normal 0.7933533402912352 -0.6087614290087208 5.571366810819971e-16
  outer loop
    vertex 2.3357864376268944 14.914213562373103 -9.86988268891764e-15
    vertex 2.017949192431115 14.500000000000002 2.9950999999999848
    vertex 2.017949192431112 14.500000000000002 -9.86988268891764e-15
  endloop
endfacet
facet normal 0.7933533402912352 -0.6087614290087208 5.571366810819971e-16
  outer loop
    vertex 2.017949192431115 14.500000000000002 2.9950999999999848
    vertex 2.3357864376268944 14.914213562373103 -9.86988268891764e-15
    vertex 2.3357864376268944 14.914213562373096 2.995099999999985
  endloop
endfacet
facet normal -0.3826834323650912 -0.9238795325112863 5.896018993327344e-16
  outer loop
    vertex 4.749999999999991 15.232050807568877 2.995099999999986
    vertex 4.26763809020503 15.431851652578136 -1.0046130594076885e-14
    vertex 4.7499999999999885 15.232050807568877 -1.0046130594076885e-14
  endloop
endfacet
facet normal -0.3826834323650912 -0.9238795325112863 5.896018993327344e-16
  outer loop
    vertex 4.26763809020503 15.431851652578136 -1.0046130594076885e-14
    vertex 4.749999999999991 15.232050807568877 2.995099999999986
    vertex 4.26763809020503 15.431851652578136 2.9950999999999843
  endloop
endfacet
facet normal -0.7933533402912343 -0.6087614290087219 3.012067317542759e-16
  outer loop
    vertex 5.164213562373086 14.914213562373096 2.995099999999986
    vertex 5.482050807568866 14.500000000000002 -9.164891068280667e-15
    vertex 5.482050807568866 14.500000000000002 2.995099999999986
  endloop
endfacet
facet normal -0.7933533402912343 -0.6087614290087219 3.012067317542759e-16
  outer loop
    vertex 5.482050807568866 14.500000000000002 -9.164891068280667e-15
    vertex 5.164213562373086 14.914213562373096 2.995099999999986
    vertex 5.164213562373083 14.914213562373096 -9.86988268891764e-15
  endloop
endfacet
facet normal -0.9914448613738103 -0.13052619222005216 -6.789653635256109e-17
  outer loop
    vertex 5.749999999999989 13.500000000000007 2.9950999999999874
    vertex 5.681851652578126 14.017638090205043 -9.164891068280667e-15
    vertex 5.749999999999989 13.500000000000004 -8.636147352802936e-15
  endloop
endfacet
facet normal -0.9914448613738103 -0.13052619222005216 -6.789653635256109e-17
  outer loop
    vertex 5.681851652578126 14.017638090205043 -9.164891068280667e-15
    vertex 5.749999999999989 13.500000000000007 2.9950999999999874
    vertex 5.681851652578126 14.017638090205043 2.995099999999986
  endloop
endfacet
facet normal -0.9914448613738104 0.13052619222005143 -2.5193627993013487e-16
  outer loop
    vertex 5.681851652578126 12.982361909794964 2.995099999999987
    vertex 5.749999999999989 13.500000000000004 -8.636147352802936e-15
    vertex 5.681851652578126 12.98236190979496 -8.107403637325205e-15
  endloop
endfacet
facet normal -0.9914448613738104 0.13052619222005143 -2.5193627993013487e-16
  outer loop
    vertex 5.749999999999989 13.500000000000004 -8.636147352802936e-15
    vertex 5.681851652578126 12.982361909794964 2.995099999999987
    vertex 5.749999999999989 13.500000000000007 2.9950999999999874
  endloop
endfacet
facet normal 0.13052619222005096 0.9914448613738105 -6.779069250551051e-16
  outer loop
    vertex 3.2323619097949474 11.56814834742187 2.995099999999987
    vertex 3.7499999999999902 11.500000000000004 -7.402412016688231e-15
    vertex 3.2323619097949474 11.568148347421866 -7.754907827006718e-15
  endloop
endfacet
facet normal 0.13052619222005096 0.9914448613738105 -6.779069250551051e-16
  outer loop
    vertex 3.7499999999999902 11.500000000000004 -7.402412016688231e-15
    vertex 3.2323619097949474 11.56814834742187 2.995099999999987
    vertex 3.7499999999999902 11.500000000000005 2.9950999999999883
  endloop
endfacet
facet normal -0.923879532511287 0.3826834323650896 -4.1880698237485806e-16
  outer loop
    vertex 5.482050807568869 12.500000000000005 2.9950999999999874
    vertex 5.681851652578126 12.98236190979496 -8.107403637325205e-15
    vertex 5.482050807568866 12.500000000000002 -7.754907827006718e-15
  endloop
endfacet
facet normal -0.923879532511287 0.3826834323650896 -4.1880698237485806e-16
  outer loop
    vertex 5.681851652578126 12.98236190979496 -8.107403637325205e-15
    vertex 5.482050807568869 12.500000000000005 2.9950999999999874
    vertex 5.681851652578126 12.982361909794964 2.995099999999987
  endloop
endfacet
facet normal -0.7933533402912354 0.6087614290087203 -5.571366810819968e-16
  outer loop
    vertex 5.164213562373086 12.085786437626908 2.995099999999987
    vertex 5.482050807568866 12.500000000000002 -7.754907827006718e-15
    vertex 5.164213562373089 12.085786437626904 -7.578659921847475e-15
  endloop
endfacet
facet normal -0.7933533402912354 0.6087614290087203 -5.571366810819968e-16
  outer loop
    vertex 5.482050807568866 12.500000000000002 -7.754907827006718e-15
    vertex 5.164213562373086 12.085786437626908 2.995099999999987
    vertex 5.482050807568869 12.500000000000005 2.9950999999999874
  endloop
endfacet
facet normal -0.38268343236508956 0.9238795325112868 -7.13052758464182e-16
  outer loop
    vertex 4.26763809020503 11.568148347421868 2.995099999999988
    vertex 4.749999999999994 11.767949192431123 -7.402412016688231e-15
    vertex 4.267638090205033 11.568148347421864 -7.578659921847475e-15
  endloop
endfacet
facet normal -0.38268343236508956 0.9238795325112868 -7.13052758464182e-16
  outer loop
    vertex 4.749999999999994 11.767949192431123 -7.402412016688231e-15
    vertex 4.26763809020503 11.568148347421868 2.995099999999988
    vertex 4.749999999999991 11.767949192431127 2.9950999999999883
  endloop
endfacet
facet normal -0.13052619222005266 0.9914448613738104 -7.20013714129133e-16
  outer loop
    vertex 3.7499999999999902 11.500000000000004 -7.402412016688231e-15
    vertex 4.26763809020503 11.568148347421868 2.995099999999988
    vertex 4.267638090205033 11.568148347421864 -7.578659921847475e-15
  endloop
endfacet
facet normal -0.13052619222005266 0.9914448613738104 -7.20013714129133e-16
  outer loop
    vertex 4.26763809020503 11.568148347421868 2.995099999999988
    vertex 3.7499999999999902 11.500000000000004 -7.402412016688231e-15
    vertex 3.7499999999999902 11.500000000000005 2.9950999999999883
  endloop
endfacet
facet normal 0.9238795325112868 0.38268343236508956 -1.2077024397310785e-16
  outer loop
    vertex 1.8181483474218547 12.982361909794959 -8.636147352802936e-15
    vertex 2.017949192431115 12.500000000000002 2.995099999999986
    vertex 2.017949192431115 12.5 -8.459899447643692e-15
  endloop
endfacet
facet normal 0.9238795325112868 0.38268343236508956 -1.2077024397310785e-16
  outer loop
    vertex 2.017949192431115 12.500000000000002 2.995099999999986
    vertex 1.8181483474218547 12.982361909794959 -8.636147352802936e-15
    vertex 1.8181483474218547 12.982361909794964 2.995099999999986
  endloop
endfacet
facet normal 0.9238795325112875 -0.38268343236508845 4.188069823748573e-16
  outer loop
    vertex 2.017949192431112 14.500000000000002 -9.86988268891764e-15
    vertex 1.8181483474218547 14.017638090205043 2.995099999999985
    vertex 1.8181483474218547 14.017638090205043 -9.34113897343991e-15
  endloop
endfacet
facet normal 0.9238795325112875 -0.38268343236508845 4.188069823748573e-16
  outer loop
    vertex 1.8181483474218547 14.017638090205043 2.995099999999985
    vertex 2.017949192431112 14.500000000000002 -9.86988268891764e-15
    vertex 2.017949192431115 14.500000000000002 2.9950999999999848
  endloop
endfacet
facet normal 1.0 6.626643678231404e-16 -1.729256468658585e-16
  outer loop
    vertex 19.500000000000007 4.500000000000103 16.000000000000004
    vertex 19.500000000000007 1.0000000000001166 7.049916206369093e-16
    vertex 19.500000000000004 4.500000000000117 3.5249581031848065e-15
  endloop
endfacet
facet normal 1.0 6.626643678231404e-16 -1.729256468658585e-16
  outer loop
    vertex 19.500000000000007 1.0000000000001166 7.049916206369093e-16
    vertex 19.500000000000007 4.500000000000103 16.000000000000004
    vertex 19.50000000000001 1.0000000000001026 16.0
  endloop
endfacet
facet normal 1.7906509608422994e-15 -1.0 -7.049916206369695e-16
  outer loop
    vertex 19.499999999999993 9.500000000000105 16.000000000000007
    vertex 17.75 9.500000000000112 6.344924585732704e-15
    vertex 19.5 9.500000000000117 6.344924585732704e-15
  endloop
endfacet
facet normal 1.7906509608422994e-15 -1.0 -7.049916206369695e-16
  outer loop
    vertex 17.75 9.500000000000112 6.344924585732704e-15
    vertex 19.499999999999993 9.500000000000105 16.000000000000007
    vertex 17.749999999999993 9.500000000000101 16.000000000000007
  endloop
endfacet
facet normal 1.0 -9.487450507756583e-16 1.6888847223085515e-16
  outer loop
    vertex 19.5 13.000000000000107 16.00000000000001
    vertex 19.5 9.500000000000117 6.344924585732704e-15
    vertex 19.499999999999996 13.000000000000117 9.164891068280602e-15
  endloop
endfacet
facet normal 1.0 -9.487450507756583e-16 1.6888847223085515e-16
  outer loop
    vertex 19.5 9.500000000000117 6.344924585732704e-15
    vertex 19.5 13.000000000000107 16.00000000000001
    vertex 19.499999999999993 9.500000000000105 16.000000000000007
  endloop
endfacet
facet normal 1.0 1.7906509608422994e-15 1.6888847223085717e-16
  outer loop
    vertex 17.749999999999993 9.500000000000101 16.000000000000007
    vertex 17.750000000000004 4.500000000000115 3.5249581031848065e-15
    vertex 17.75 9.500000000000112 6.344924585732704e-15
  endloop
endfacet
facet normal 1.0 1.7906509608422994e-15 1.6888847223085717e-16
  outer loop
    vertex 17.750000000000004 4.500000000000115 3.5249581031848065e-15
    vertex 17.749999999999993 9.500000000000101 16.000000000000007
    vertex 17.750000000000007 4.5000000000001 16.000000000000004
  endloop
endfacet
facet normal -1.0 -6.626643678231404e-16 1.94289029309402e-16
  outer loop
    vertex 15.500000000000005 1.000000000000111 3.000000000000001
    vertex 15.5 13.000000000000103 16.00000000000001
    vertex 15.499999999999996 13.000000000000112 3.0000000000000093
  endloop
endfacet
facet normal -1.0 -6.626643678231404e-16 1.94289029309402e-16
  outer loop
    vertex 15.5 13.000000000000103 16.00000000000001
    vertex 15.500000000000005 1.000000000000111 3.000000000000001
    vertex 15.500000000000009 1.0000000000000997 16.0
  endloop
endfacet
facet normal -1.7906509608422994e-15 1.0 7.049916206369703e-16
  outer loop
    vertex 17.750000000000007 4.5000000000001 16.000000000000004
    vertex 19.500000000000004 4.500000000000117 3.5249581031848065e-15
    vertex 17.750000000000004 4.500000000000115 3.5249581031848065e-15
  endloop
endfacet
facet normal -1.7906509608422994e-15 1.0 7.049916206369703e-16
  outer loop
    vertex 19.500000000000004 4.500000000000117 3.5249581031848065e-15
    vertex 17.750000000000007 4.5000000000001 16.000000000000004
    vertex 19.500000000000007 4.500000000000103 16.000000000000004
  endloop
endfacet
facet normal 1.9428902930940407e-16 -7.049916206369696e-16 1.0
  outer loop
    vertex 15.5 13.000000000000103 16.00000000000001
    vertex 19.499999999999993 9.500000000000105 16.000000000000007
    vertex 19.5 13.000000000000107 16.00000000000001
  endloop
endfacet
facet normal 1.9428902930940407e-16 -7.049916206369696e-16 1.0
  outer loop
    vertex 19.499999999999993 9.500000000000105 16.000000000000007
    vertex 15.5 13.000000000000103 16.00000000000001
    vertex 17.749999999999993 9.500000000000101 16.000000000000007
  endloop
endfacet
facet normal 1.9428902930940407e-16 -7.049916206369696e-16 1.0
  outer loop
    vertex 17.749999999999993 9.500000000000101 16.000000000000007
    vertex 15.5 13.000000000000103 16.00000000000001
    vertex 15.500000000000009 1.0000000000000997 16.0
  endloop
endfacet
facet normal 1.9428902930940407e-16 -7.049916206369696e-16 1.0
  outer loop
    vertex 19.500000000000007 4.500000000000103 16.000000000000004
    vertex 15.500000000000009 1.0000000000000997 16.0
    vertex 19.50000000000001 1.0000000000001026 16.0
  endloop
endfacet
facet normal 1.9428902930940407e-16 -7.049916206369696e-16 1.0
  outer loop
    vertex 15.500000000000009 1.0000000000000997 16.0
    vertex 19.500000000000007 4.500000000000103 16.000000000000004
    vertex 17.750000000000007 4.5000000000001 16.000000000000004
  endloop
endfacet
facet normal 1.9428902930940407e-16 -7.049916206369696e-16 1.0
  outer loop
    vertex 15.500000000000009 1.0000000000000997 16.0
    vertex 17.750000000000007 4.5000000000001 16.000000000000004
    vertex 17.749999999999993 9.500000000000101 16.000000000000007
  endloop
endfacet
facet normal 1.942890293094025e-16 -7.049916206369698e-16 1.0
  outer loop
    vertex 15.499999999999996 13.000000000000112 3.0000000000000093
    vertex 7.500000000000004 1.0000000000001052 3.0000000000000036
    vertex 15.500000000000005 1.000000000000111 3.000000000000001
  endloop
endfacet
facet normal 1.942890293094025e-16 -7.049916206369698e-16 1.0
  outer loop
    vertex 7.500000000000004 1.0000000000001052 3.0000000000000036
    vertex 15.499999999999996 13.000000000000112 3.0000000000000093
    vertex 7.4999999999999964 13.000000000000107 3.000000000000012
  endloop
endfacet
facet normal -1.9428902930940407e-16 7.049916206369697e-16 -1.0
  outer loop
    vertex 7.500000000000013 1.0000000000001081 3.5249581031848065e-15
    vertex 19.500000000000004 4.500000000000117 3.5249581031848065e-15
    vertex 19.500000000000007 1.0000000000001166 7.049916206369093e-16
  endloop
endfacet
facet normal -1.9428902930940407e-16 7.049916206369697e-16 -1.0
  outer loop
    vertex 19.500000000000004 4.500000000000117 3.5249581031848065e-15
    vertex 7.500000000000013 1.0000000000001081 3.5249581031848065e-15
    vertex 17.750000000000004 4.500000000000115 3.5249581031848065e-15
  endloop
endfacet
facet normal -1.9428902930940407e-16 7.049916206369697e-16 -1.0
  outer loop
    vertex 17.750000000000004 4.500000000000115 3.5249581031848065e-15
    vertex 7.500000000000013 1.0000000000001081 3.5249581031848065e-15
    vertex 17.75 9.500000000000112 6.344924585732704e-15
  endloop
endfacet
facet normal -1.9428902930940407e-16 7.049916206369697e-16 -1.0
  outer loop
    vertex 17.75 9.500000000000112 6.344924585732704e-15
    vertex 19.499999999999996 13.000000000000117 9.164891068280602e-15
    vertex 19.5 9.500000000000117 6.344924585732704e-15
  endloop
endfacet
facet normal -1.9428902930940407e-16 7.049916206369697e-16 -1.0
  outer loop
    vertex 19.499999999999996 13.000000000000117 9.164891068280602e-15
    vertex 17.75 9.500000000000112 6.344924585732704e-15
    vertex 7.500000000000004 13.000000000000108 1.1984857550828499e-14
  endloop
endfacet
facet normal -1.9428902930940407e-16 7.049916206369697e-16 -1.0
  outer loop
    vertex 7.500000000000004 13.000000000000108 1.1984857550828499e-14
    vertex 17.75 9.500000000000112 6.344924585732704e-15
    vertex 7.500000000000013 1.0000000000001081 3.5249581031848065e-15
  endloop
endfacet
facet normal -6.626643678231403e-16 1.0 7.049916206369701e-16
  outer loop
    vertex 7.4999999999999964 13.000000000000107 3.000000000000012
    vertex 15.499999999999996 13.000000000000112 3.0000000000000093
    vertex 7.500000000000004 13.000000000000108 1.1984857550828499e-14
  endloop
endfacet
facet normal -6.626643678231403e-16 1.0 7.049916206369701e-16
  outer loop
    vertex 19.499999999999996 13.000000000000117 9.164891068280602e-15
    vertex 15.499999999999996 13.000000000000112 3.0000000000000093
    vertex 19.5 13.000000000000107 16.00000000000001
  endloop
endfacet
facet normal -6.626643678231403e-16 1.0 7.049916206369701e-16
  outer loop
    vertex 15.499999999999996 13.000000000000112 3.0000000000000093
    vertex 19.499999999999996 13.000000000000117 9.164891068280602e-15
    vertex 7.500000000000004 13.000000000000108 1.1984857550828499e-14
  endloop
endfacet
facet normal -6.626643678231403e-16 1.0 7.049916206369701e-16
  outer loop
    vertex 19.5 13.000000000000107 16.00000000000001
    vertex 15.499999999999996 13.000000000000112 3.0000000000000093
    vertex 15.5 13.000000000000103 16.00000000000001
  endloop
endfacet
facet normal 6.626643678231403e-16 -1.0 -7.049916206369701e-16
  outer loop
    vertex 7.500000000000004 1.0000000000001052 3.0000000000000036
    vertex 7.500000000000013 1.0000000000001081 3.5249581031848065e-15
    vertex 15.500000000000005 1.000000000000111 3.000000000000001
  endloop
endfacet
facet normal 6.626643678231403e-16 -1.0 -7.049916206369701e-16
  outer loop
    vertex 19.500000000000007 1.0000000000001166 7.049916206369093e-16
    vertex 15.500000000000005 1.000000000000111 3.000000000000001
    vertex 7.500000000000013 1.0000000000001081 3.5249581031848065e-15
  endloop
endfacet
facet normal 6.626643678231403e-16 -1.0 -7.049916206369701e-16
  outer loop
    vertex 15.500000000000005 1.000000000000111 3.000000000000001
    vertex 19.500000000000007 1.0000000000001166 7.049916206369093e-16
    vertex 19.50000000000001 1.0000000000001026 16.0
  endloop
endfacet
facet normal 6.626643678231403e-16 -1.0 -7.049916206369701e-16
  outer loop
    vertex 15.500000000000005 1.000000000000111 3.000000000000001
    vertex 19.50000000000001 1.0000000000001026 16.0
    vertex 15.500000000000009 1.0000000000000997 16.0
  endloop
endfacet
facet normal -1.0 -6.626643678231404e-16 1.942890293094022e-16
  outer loop
    vertex 7.500000000000013 1.0000000000001081 3.5249581031848065e-15
    vertex 7.4999999999999964 13.000000000000107 3.000000000000012
    vertex 7.500000000000004 13.000000000000108 1.1984857550828499e-14
  endloop
endfacet
facet normal -1.0 -6.626643678231404e-16 1.942890293094022e-16
  outer loop
    vertex 7.4999999999999964 13.000000000000107 3.000000000000012
    vertex 7.500000000000013 1.0000000000001081 3.5249581031848065e-15
    vertex 7.500000000000004 1.0000000000001052 3.0000000000000036
  endloop
endfacet
endsolid hall sensor mount flipped
