solid servo mount
facet normal -0.13052619222005216 -0.9914448613738105 0.0
  outer loop
    vertex 4.26763809020504 5.931851652578205 7.754907827006718e-15
    vertex 3.75 6.000000000000068 3.0
    vertex 3.75 6.000000000000068 7.754907827006718e-15
  endloop
endfacet
facet normal -0.13052619222005216 -0.9914448613738105 0.0
  outer loop
    vertex 3.75 6.000000000000068 3.0
    vertex 4.26763809020504 5.931851652578205 7.754907827006718e-15
    vertex 4.26763809020504 5.931851652578205 3.0
  endloop
endfacet
facet normal -0.608761429008718 -0.7933533402912374 0.0
  outer loop
    vertex 5.164213562373093 5.41421356237317 7.754907827006718e-15
    vertex 4.749999999999998 5.73205080756895 3.0
    vertex 4.749999999999998 5.73205080756895 7.754907827006718e-15
  endloop
endfacet
facet normal -0.608761429008718 -0.7933533402912374 0.0
  outer loop
    vertex 4.749999999999998 5.73205080756895 3.0
    vertex 5.164213562373093 5.41421356237317 7.754907827006718e-15
    vertex 5.164213562373093 5.41421356237317 3.0
  endloop
endfacet
facet normal -0.3826834323650822 -0.92387953251129 0.0
  outer loop
    vertex 4.749999999999998 5.73205080756895 7.754907827006718e-15
    vertex 4.26763809020504 5.931851652578205 3.0
    vertex 4.26763809020504 5.931851652578205 7.754907827006718e-15
  endloop
endfacet
facet normal -0.3826834323650822 -0.92387953251129 0.0
  outer loop
    vertex 4.26763809020504 5.931851652578205 3.0
    vertex 4.749999999999998 5.73205080756895 7.754907827006718e-15
    vertex 4.749999999999998 5.73205080756895 3.0
  endloop
endfacet
facet normal 0.13052619222005216 -0.9914448613738105 0.0
  outer loop
    vertex 3.75 6.000000000000068 7.754907827006718e-15
    vertex 3.2323619097949603 5.931851652578205 3.0
    vertex 3.2323619097949603 5.931851652578205 7.754907827006718e-15
  endloop
endfacet
facet normal 0.13052619222005216 -0.9914448613738105 0.0
  outer loop
    vertex 3.2323619097949603 5.931851652578205 3.0
    vertex 3.75 6.000000000000068 7.754907827006718e-15
    vertex 3.75 6.000000000000068 3.0
  endloop
endfacet
facet normal 0.6087614290087315 -0.7933533402912268 0.0
  outer loop
    vertex 2.750000000000002 5.73205080756895 7.754907827006718e-15
    vertex 2.3357864376269073 5.414213562373159 3.0
    vertex 2.3357864376269073 5.414213562373159 7.754907827006718e-15
  endloop
endfacet
facet normal 0.6087614290087315 -0.7933533402912268 0.0
  outer loop
    vertex 2.3357864376269073 5.414213562373159 3.0
    vertex 2.750000000000002 5.73205080756895 7.754907827006718e-15
    vertex 2.750000000000002 5.73205080756895 3.0
  endloop
endfacet
facet normal 0.3826834323650822 -0.92387953251129 0.0
  outer loop
    vertex 3.2323619097949603 5.931851652578205 7.754907827006718e-15
    vertex 2.750000000000002 5.73205080756895 3.0
    vertex 2.750000000000002 5.73205080756895 7.754907827006718e-15
  endloop
endfacet
facet normal 0.3826834323650822 -0.92387953251129 0.0
  outer loop
    vertex 2.750000000000002 5.73205080756895 3.0
    vertex 3.2323619097949603 5.931851652578205 7.754907827006718e-15
    vertex 3.2323619097949603 5.931851652578205 3.0
  endloop
endfacet
facet normal -3.3542574790182384e-16 1.0 -1.5288523244534622e-17
  outer loop
    vertex 11.999999999999993 52.000000000000064 12.999999999999998
    vertex -4.499999999999985 52.000000000000064 4.950229867703355e-15
    vertex -4.499999999999985 52.000000000000064 12.999999999999998
  endloop
endfacet
facet normal -3.3542574790182384e-16 1.0 -1.5288523244534622e-17
  outer loop
    vertex -4.499999999999985 52.000000000000064 4.950229867703355e-15
    vertex 11.999999999999993 52.000000000000064 12.999999999999998
    vertex 0.0 52.000000000000064 3.0
  endloop
endfacet
facet normal -3.3542574790182384e-16 1.0 -1.5288523244534622e-17
  outer loop
    vertex 0.0 52.000000000000064 3.0
    vertex 11.999999999999993 52.000000000000064 12.999999999999998
    vertex 7.5 52.000000000000064 3.0
  endloop
endfacet
facet normal -3.3542574790182384e-16 1.0 -1.5288523244534622e-17
  outer loop
    vertex 7.5 52.000000000000064 3.0
    vertex 11.999999999999993 52.000000000000064 12.999999999999998
    vertex 7.5 52.000000000000064 4.245238247066381e-15
  endloop
endfacet
facet normal -3.3542574790182384e-16 1.0 -1.5288523244534622e-17
  outer loop
    vertex 7.5 52.000000000000064 4.245238247066381e-15
    vertex 11.999999999999993 52.000000000000064 12.999999999999998
    vertex 11.999999999999993 52.000000000000064 4.268075171945993e-15
  endloop
endfacet
facet normal -3.3542574790182384e-16 1.0 -1.5288523244534622e-17
  outer loop
    vertex 0.0 52.000000000000064 4.950229867703355e-15
    vertex -4.499999999999985 52.000000000000064 4.950229867703355e-15
    vertex 0.0 52.000000000000064 3.0
  endloop
endfacet
facet normal 1.3877787807814457e-17 -1.0 0.0
  outer loop
    vertex 11.999999999999998 25.00000000000007 8.482736372523304e-15
    vertex 7.499999999999997 25.00000000000007 3.0
    vertex 7.499999999999997 25.00000000000007 8.459899447643692e-15
  endloop
endfacet
facet normal 1.3877787807814457e-17 -1.0 0.0
  outer loop
    vertex 7.049916206369744e-16 25.00000000000007 5.639932965095795e-15
    vertex -4.5 25.00000000000007 12.999999999999998
    vertex -4.5 25.00000000000007 5.639932965095795e-15
  endloop
endfacet
facet normal 1.3877787807814457e-17 -1.0 0.0
  outer loop
    vertex -4.5 25.00000000000007 12.999999999999998
    vertex 7.049916206369744e-16 25.00000000000007 5.639932965095795e-15
    vertex 7.049916206369744e-16 25.00000000000007 3.0
  endloop
endfacet
facet normal 1.3877787807814457e-17 -1.0 0.0
  outer loop
    vertex -4.5 25.00000000000007 12.999999999999998
    vertex 7.049916206369744e-16 25.00000000000007 3.0
    vertex 11.999999999999998 25.00000000000007 12.999999999999998
  endloop
endfacet
facet normal 1.3877787807814457e-17 -1.0 0.0
  outer loop
    vertex 11.999999999999998 25.00000000000007 12.999999999999998
    vertex 7.049916206369744e-16 25.00000000000007 3.0
    vertex 7.499999999999997 25.00000000000007 3.0
  endloop
endfacet
facet normal 1.3877787807814457e-17 -1.0 0.0
  outer loop
    vertex 11.999999999999998 25.00000000000007 12.999999999999998
    vertex 7.499999999999997 25.00000000000007 3.0
    vertex 11.999999999999998 25.00000000000007 8.482736372523304e-15
  endloop
endfacet
facet normal 0.0 0.0 1.0
  outer loop
    vertex -4.499999999999985 52.000000000000064 12.999999999999998
    vertex -2.499999999999988 50.000000000000064 12.999999999999998
    vertex 11.999999999999993 52.000000000000064 12.999999999999998
  endloop
endfacet
facet normal 0.0 0.0 1.0
  outer loop
    vertex -2.499999999999988 50.000000000000064 12.999999999999998
    vertex -4.499999999999985 52.000000000000064 12.999999999999998
    vertex -4.5 25.00000000000007 12.999999999999998
  endloop
endfacet
facet normal 0.0 0.0 1.0
  outer loop
    vertex -2.499999999999988 50.000000000000064 12.999999999999998
    vertex -4.5 25.00000000000007 12.999999999999998
    vertex -2.4999999999999876 27.000000000000068 12.999999999999998
  endloop
endfacet
facet normal 0.0 0.0 1.0
  outer loop
    vertex -2.4999999999999876 27.000000000000068 12.999999999999998
    vertex -4.5 25.00000000000007 12.999999999999998
    vertex 9.999999999999998 27.000000000000068 12.999999999999998
  endloop
endfacet
facet normal 0.0 0.0 1.0
  outer loop
    vertex 11.999999999999993 52.000000000000064 12.999999999999998
    vertex 9.999999999999998 50.000000000000064 12.999999999999998
    vertex 11.999999999999998 25.00000000000007 12.999999999999998
  endloop
endfacet
facet normal 0.0 0.0 1.0
  outer loop
    vertex 9.999999999999998 50.000000000000064 12.999999999999998
    vertex 11.999999999999993 52.000000000000064 12.999999999999998
    vertex -2.499999999999988 50.000000000000064 12.999999999999998
  endloop
endfacet
facet normal 0.0 0.0 1.0
  outer loop
    vertex 11.999999999999998 25.00000000000007 12.999999999999998
    vertex 9.999999999999998 50.000000000000064 12.999999999999998
    vertex 9.999999999999998 27.000000000000068 12.999999999999998
  endloop
endfacet
facet normal 0.0 0.0 1.0
  outer loop
    vertex 11.999999999999998 25.00000000000007 12.999999999999998
    vertex 9.999999999999998 27.000000000000068 12.999999999999998
    vertex -4.5 25.00000000000007 12.999999999999998
  endloop
endfacet
facet normal -1.0 -1.3877787807814457e-17 0.0
  outer loop
    vertex 9.999999999999998 27.000000000000068 12.999999999999998
    vertex 9.999999999999998 50.000000000000064 3.0
    vertex 9.999999999999998 27.000000000000068 3.0
  endloop
endfacet
facet normal -1.0 -1.3877787807814457e-17 0.0
  outer loop
    vertex 9.999999999999998 50.000000000000064 3.0
    vertex 9.999999999999998 27.000000000000068 12.999999999999998
    vertex 9.999999999999998 50.000000000000064 12.999999999999998
  endloop
endfacet
facet normal -1.3877787807814457e-17 1.0 0.0
  outer loop
    vertex 9.999999999999998 27.000000000000068 12.999999999999998
    vertex -2.4999999999999876 27.000000000000068 3.0
    vertex -2.4999999999999876 27.000000000000068 12.999999999999998
  endloop
endfacet
facet normal -1.3877787807814457e-17 1.0 0.0
  outer loop
    vertex -2.4999999999999876 27.000000000000068 3.0
    vertex 9.999999999999998 27.000000000000068 12.999999999999998
    vertex 3.524958103184872e-15 27.000000000000068 3.0
  endloop
endfacet
facet normal -1.3877787807814457e-17 1.0 0.0
  outer loop
    vertex 3.524958103184872e-15 27.000000000000068 3.0
    vertex 9.999999999999998 27.000000000000068 12.999999999999998
    vertex 7.499999999999997 27.000000000000068 3.0
  endloop
endfacet
facet normal -1.3877787807814457e-17 1.0 0.0
  outer loop
    vertex 7.499999999999997 27.000000000000068 3.0
    vertex 9.999999999999998 27.000000000000068 12.999999999999998
    vertex 9.999999999999998 27.000000000000068 3.0
  endloop
endfacet
facet normal 1.3877787807814457e-17 -1.0 0.0
  outer loop
    vertex 7.499999999999997 50.000000000000064 3.0
    vertex -2.499999999999988 50.000000000000064 12.999999999999998
    vertex -2.499999999999988 50.000000000000064 3.0
  endloop
endfacet
facet normal 1.3877787807814457e-17 -1.0 0.0
  outer loop
    vertex -2.499999999999988 50.000000000000064 12.999999999999998
    vertex 7.499999999999997 50.000000000000064 3.0
    vertex 9.999999999999998 50.000000000000064 12.999999999999998
  endloop
endfacet
facet normal 1.3877787807814457e-17 -1.0 0.0
  outer loop
    vertex 9.999999999999998 50.000000000000064 12.999999999999998
    vertex 7.499999999999997 50.000000000000064 3.0
    vertex 9.999999999999998 50.000000000000064 3.0
  endloop
endfacet
facet normal 1.0 1.3877787807814457e-17 0.0
  outer loop
    vertex -2.499999999999988 50.000000000000064 12.999999999999998
    vertex -2.4999999999999876 27.000000000000068 3.0
    vertex -2.499999999999988 50.000000000000064 3.0
  endloop
endfacet
facet normal 1.0 1.3877787807814457e-17 0.0
  outer loop
    vertex -2.4999999999999876 27.000000000000068 3.0
    vertex -2.499999999999988 50.000000000000064 12.999999999999998
    vertex -2.4999999999999876 27.000000000000068 12.999999999999998
  endloop
endfacet
facet normal 0.3826834323650822 0.92387953251129 0.0
  outer loop
    vertex 3.2323619097949603 2.0681483474219386 3.0
    vertex 2.750000000000002 2.2679491924311934 7.754907827006718e-15
    vertex 2.750000000000002 2.2679491924311934 3.0
  endloop
endfacet
facet normal 0.3826834323650822 0.92387953251129 0.0
  outer loop
    vertex 2.750000000000002 2.2679491924311934 7.754907827006718e-15
    vertex 3.2323619097949603 2.0681483474219386 3.0
    vertex 3.2323619097949603 2.0681483474219386 7.754907827006718e-15
  endloop
endfacet
facet normal -1.0 0.0 0.0
  outer loop
    vertex 0.0 52.000000000000064 4.950229867703355e-15
    vertex 2.8199664825478975e-15 77.00000000000006 3.0
    vertex 2.8199664825478975e-15 77.00000000000006 0.0
  endloop
endfacet
facet normal -1.0 0.0 0.0
  outer loop
    vertex 2.8199664825478975e-15 77.00000000000006 3.0
    vertex 0.0 52.000000000000064 4.950229867703355e-15
    vertex 0.0 52.000000000000064 3.0
  endloop
endfacet
facet normal 0.6087614290087315 0.7933533402912271 0.0
  outer loop
    vertex 2.750000000000002 2.2679491924311934 3.0
    vertex 2.3357864376269073 2.585786437626984 7.754907827006718e-15
    vertex 2.3357864376269073 2.585786437626984 3.0
  endloop
endfacet
facet normal 0.6087614290087315 0.7933533402912271 0.0
  outer loop
    vertex 2.3357864376269073 2.585786437626984 7.754907827006718e-15
    vertex 2.750000000000002 2.2679491924311934 3.0
    vertex 2.750000000000002 2.2679491924311934 7.754907827006718e-15
  endloop
endfacet
facet normal 0.9914448613738105 0.13052619222005077 0.0
  outer loop
    vertex 1.7500000000000038 4.000000000000072 3.0
    vertex 1.8181483474218674 3.482361909795026 7.754907827006718e-15
    vertex 1.7500000000000038 4.000000000000072 7.754907827006718e-15
  endloop
endfacet
facet normal 0.9914448613738105 0.13052619222005077 0.0
  outer loop
    vertex 1.8181483474218674 3.482361909795026 7.754907827006718e-15
    vertex 1.7500000000000038 4.000000000000072 3.0
    vertex 1.8181483474218674 3.482361909795026 3.0
  endloop
endfacet
facet normal 0.9914448613738105 -0.13052619222005074 0.0
  outer loop
    vertex 1.8181483474218674 4.517638090205117 3.0
    vertex 1.7500000000000038 4.000000000000072 7.754907827006718e-15
    vertex 1.8181483474218674 4.517638090205117 7.754907827006718e-15
  endloop
endfacet
facet normal 0.9914448613738105 -0.13052619222005074 0.0
  outer loop
    vertex 1.7500000000000038 4.000000000000072 7.754907827006718e-15
    vertex 1.8181483474218674 4.517638090205117 3.0
    vertex 1.7500000000000038 4.000000000000072 3.0
  endloop
endfacet
facet normal 0.9238795325112846 0.38268343236509506 0.0
  outer loop
    vertex 1.8181483474218674 3.482361909795026 3.0
    vertex 2.0179491924311277 3.0000000000000733 7.754907827006718e-15
    vertex 1.8181483474218674 3.482361909795026 7.754907827006718e-15
  endloop
endfacet
facet normal 0.9238795325112846 0.38268343236509506 0.0
  outer loop
    vertex 2.0179491924311277 3.0000000000000733 7.754907827006718e-15
    vertex 1.8181483474218674 3.482361909795026 3.0
    vertex 2.0179491924311277 3.0000000000000733 3.0
  endloop
endfacet
facet normal 0.7933533402912333 0.6087614290087232 0.0
  outer loop
    vertex 2.0179491924311277 3.0000000000000733 3.0
    vertex 2.3357864376269073 2.585786437626984 7.754907827006718e-15
    vertex 2.0179491924311277 3.0000000000000733 7.754907827006718e-15
  endloop
endfacet
facet normal 0.7933533402912333 0.6087614290087232 0.0
  outer loop
    vertex 2.3357864376269073 2.585786437626984 7.754907827006718e-15
    vertex 2.0179491924311277 3.0000000000000733 3.0
    vertex 2.3357864376269073 2.585786437626984 3.0
  endloop
endfacet
facet normal 1.0 0.0 0.0
  outer loop
    vertex 7.499999999999997 25.00000000000007 8.459899447643692e-15
    vertex 7.499999999999997 7.895906151134113e-14 3.0
    vertex 7.499999999999997 7.895906151134113e-14 0.0
  endloop
endfacet
facet normal 1.0 0.0 0.0
  outer loop
    vertex 7.499999999999997 7.895906151134113e-14 3.0
    vertex 7.499999999999997 25.00000000000007 8.459899447643692e-15
    vertex 7.499999999999997 25.00000000000007 3.0
  endloop
endfacet
facet normal 0.13052619222005216 0.9914448613738105 0.0
  outer loop
    vertex 3.75 2.0000000000000755 3.0
    vertex 3.2323619097949603 2.0681483474219386 7.754907827006718e-15
    vertex 3.2323619097949603 2.0681483474219386 3.0
  endloop
endfacet
facet normal 0.13052619222005216 0.9914448613738105 0.0
  outer loop
    vertex 3.2323619097949603 2.0681483474219386 7.754907827006718e-15
    vertex 3.75 2.0000000000000755 3.0
    vertex 3.75 2.0000000000000755 7.754907827006718e-15
  endloop
endfacet
facet normal -0.13052619222005077 0.9914448613738105 0.0
  outer loop
    vertex 4.267638090205046 2.0681483474219386 3.0
    vertex 3.75 2.0000000000000755 7.754907827006718e-15
    vertex 3.75 2.0000000000000755 3.0
  endloop
endfacet
facet normal -0.13052619222005077 0.9914448613738105 0.0
  outer loop
    vertex 3.75 2.0000000000000755 7.754907827006718e-15
    vertex 4.267638090205046 2.0681483474219386 3.0
    vertex 4.267638090205046 2.0681483474219386 7.754907827006718e-15
  endloop
endfacet
facet normal -0.38268343236508595 0.9238795325112884 0.0
  outer loop
    vertex 4.749999999999998 2.2679491924311934 3.0
    vertex 4.267638090205046 2.0681483474219386 7.754907827006718e-15
    vertex 4.267638090205046 2.0681483474219386 3.0
  endloop
endfacet
facet normal -0.38268343236508595 0.9238795325112884 0.0
  outer loop
    vertex 4.267638090205046 2.0681483474219386 7.754907827006718e-15
    vertex 4.749999999999998 2.2679491924311934 3.0
    vertex 4.749999999999998 2.2679491924311934 7.754907827006718e-15
  endloop
endfacet
facet normal -0.7933533402912282 0.60876142900873 0.0
  outer loop
    vertex 5.164213562373093 2.585786437626984 3.0
    vertex 5.4820508075688785 3.0000000000000733 7.754907827006718e-15
    vertex 5.164213562373093 2.585786437626984 7.754907827006718e-15
  endloop
endfacet
facet normal -0.7933533402912282 0.60876142900873 0.0
  outer loop
    vertex 5.4820508075688785 3.0000000000000733 7.754907827006718e-15
    vertex 5.164213562373093 2.585786437626984 3.0
    vertex 5.4820508075688785 3.0000000000000733 3.0
  endloop
endfacet
facet normal -0.9238795325112916 0.3826834323650784 0.0
  outer loop
    vertex 5.4820508075688785 3.0000000000000733 3.0
    vertex 5.681851652578133 3.4823619097950376 7.754907827006718e-15
    vertex 5.4820508075688785 3.0000000000000733 7.754907827006718e-15
  endloop
endfacet
facet normal -0.9238795325112916 0.3826834323650784 0.0
  outer loop
    vertex 5.681851652578133 3.4823619097950376 7.754907827006718e-15
    vertex 5.4820508075688785 3.0000000000000733 3.0
    vertex 5.681851652578133 3.4823619097950376 3.0
  endloop
endfacet
facet normal -0.6087614290087315 0.7933533402912268 0.0
  outer loop
    vertex 5.164213562373093 2.585786437626984 3.0
    vertex 4.749999999999998 2.2679491924311934 7.754907827006718e-15
    vertex 4.749999999999998 2.2679491924311934 3.0
  endloop
endfacet
facet normal -0.6087614290087315 0.7933533402912268 0.0
  outer loop
    vertex 4.749999999999998 2.2679491924311934 7.754907827006718e-15
    vertex 5.164213562373093 2.585786437626984 3.0
    vertex 5.164213562373093 2.585786437626984 7.754907827006718e-15
  endloop
endfacet
facet normal -1.0 1.635250839645304e-16 -2.7991581863003026e-31
  outer loop
    vertex -4.5 25.00000000000007 5.639932965095795e-15
    vertex -4.499999999999985 52.000000000000064 12.999999999999998
    vertex -4.499999999999985 52.000000000000064 4.950229867703355e-15
  endloop
endfacet
facet normal -1.0 1.635250839645304e-16 -2.7991581863003026e-31
  outer loop
    vertex -4.499999999999985 52.000000000000064 12.999999999999998
    vertex -4.5 25.00000000000007 5.639932965095795e-15
    vertex -4.5 25.00000000000007 12.999999999999998
  endloop
endfacet
facet normal 0.0 0.0 1.0
  outer loop
    vertex -2.4999999999999876 27.000000000000068 3.0
    vertex 7.499999999999997 50.000000000000064 3.0
    vertex -2.499999999999988 50.000000000000064 3.0
  endloop
endfacet
facet normal 0.0 0.0 1.0
  outer loop
    vertex 7.499999999999997 50.000000000000064 3.0
    vertex -2.4999999999999876 27.000000000000068 3.0
    vertex 9.999999999999998 50.000000000000064 3.0
  endloop
endfacet
facet normal 0.0 0.0 1.0
  outer loop
    vertex 9.999999999999998 50.000000000000064 3.0
    vertex -2.4999999999999876 27.000000000000068 3.0
    vertex 9.999999999999998 27.000000000000068 3.0
  endloop
endfacet
facet normal 0.0 0.0 1.0
  outer loop
    vertex 9.999999999999998 27.000000000000068 3.0
    vertex -2.4999999999999876 27.000000000000068 3.0
    vertex 3.524958103184872e-15 27.000000000000068 3.0
  endloop
endfacet
facet normal 0.0 0.0 1.0
  outer loop
    vertex 9.999999999999998 27.000000000000068 3.0
    vertex 3.524958103184872e-15 27.000000000000068 3.0
    vertex 7.499999999999997 27.000000000000068 3.0
  endloop
endfacet
facet normal 1.0 1.1861265018672267e-16 -2.2836924879611584e-17
  outer loop
    vertex 11.999999999999993 52.000000000000064 12.999999999999998
    vertex 11.999999999999998 25.00000000000007 8.482736372523304e-15
    vertex 11.999999999999993 52.000000000000064 4.268075171945993e-15
  endloop
endfacet
facet normal 1.0 1.1861265018672267e-16 -2.2836924879611584e-17
  outer loop
    vertex 11.999999999999998 25.00000000000007 8.482736372523304e-15
    vertex 11.999999999999993 52.000000000000064 12.999999999999998
    vertex 11.999999999999998 25.00000000000007 12.999999999999998
  endloop
endfacet
facet normal 0.0 0.0 1.0
  outer loop
    vertex 2.8199664825478975e-15 77.00000000000006 3.0
    vertex 2.7500000000000004 74.73205080756894 3.0
    vertex 7.499999999999997 77.00000000000006 3.0
  endloop
endfacet
facet normal 0.0 0.0 1.0
  outer loop
    vertex 2.7500000000000004 74.73205080756894 3.0
    vertex 2.8199664825478975e-15 77.00000000000006 3.0
    vertex 2.3357864376269 74.41421356237316 3.0
  endloop
endfacet
facet normal 0.0 0.0 1.0
  outer loop
    vertex 2.3357864376269 74.41421356237316 3.0
    vertex 2.8199664825478975e-15 77.00000000000006 3.0
    vertex 2.0179491924311206 74.00000000000006 3.0
  endloop
endfacet
facet normal 0.0 0.0 1.0
  outer loop
    vertex 2.0179491924311206 74.00000000000006 3.0
    vertex 2.8199664825478975e-15 77.00000000000006 3.0
    vertex 1.8181483474218603 73.5176380902051 3.0
  endloop
endfacet
facet normal 0.0 0.0 1.0
  outer loop
    vertex 1.8181483474218603 73.5176380902051 3.0
    vertex 2.8199664825478975e-15 77.00000000000006 3.0
    vertex 1.7500000000000024 73.00000000000006 3.0
  endloop
endfacet
facet normal 0.0 0.0 1.0
  outer loop
    vertex 1.7500000000000024 73.00000000000006 3.0
    vertex 2.8199664825478975e-15 77.00000000000006 3.0
    vertex 0.0 52.000000000000064 3.0
  endloop
endfacet
facet normal 0.0 0.0 1.0
  outer loop
    vertex 7.499999999999997 77.00000000000006 3.0
    vertex 2.7500000000000004 74.73205080756894 3.0
    vertex 3.232361909794953 74.9318516525782 3.0
  endloop
endfacet
facet normal 0.0 0.0 1.0
  outer loop
    vertex 7.499999999999997 77.00000000000006 3.0
    vertex 3.232361909794953 74.9318516525782 3.0
    vertex 3.7499999999999987 75.00000000000007 3.0
  endloop
endfacet
facet normal 0.0 0.0 1.0
  outer loop
    vertex 1.7500000000000024 73.00000000000006 3.0
    vertex 0.0 52.000000000000064 3.0
    vertex 1.818148347421866 72.48236190979502 3.0
  endloop
endfacet
facet normal 0.0 0.0 1.0
  outer loop
    vertex 1.818148347421866 72.48236190979502 3.0
    vertex 0.0 52.000000000000064 3.0
    vertex 2.0179491924311206 72.00000000000006 3.0
  endloop
endfacet
facet normal 0.0 0.0 1.0
  outer loop
    vertex 2.0179491924311206 72.00000000000006 3.0
    vertex 0.0 52.000000000000064 3.0
    vertex 2.335786437626906 71.58578643762696 3.0
  endloop
endfacet
facet normal 0.0 0.0 1.0
  outer loop
    vertex 2.335786437626906 71.58578643762696 3.0
    vertex 0.0 52.000000000000064 3.0
    vertex 2.7500000000000004 71.26794919243117 3.0
  endloop
endfacet
facet normal 0.0 0.0 1.0
  outer loop
    vertex 2.7500000000000004 71.26794919243117 3.0
    vertex 0.0 52.000000000000064 3.0
    vertex 3.232361909794959 71.06814834742192 3.0
  endloop
endfacet
facet normal 0.0 0.0 1.0
  outer loop
    vertex 3.232361909794959 71.06814834742192 3.0
    vertex 0.0 52.000000000000064 3.0
    vertex 3.7499999999999987 71.00000000000006 3.0
  endloop
endfacet
facet normal 0.0 0.0 1.0
  outer loop
    vertex 7.499999999999997 77.00000000000006 3.0
    vertex 5.749999999999995 73.00000000000006 3.0
    vertex 7.5 52.000000000000064 3.0
  endloop
endfacet
facet normal 0.0 0.0 1.0
  outer loop
    vertex 5.749999999999995 73.00000000000006 3.0
    vertex 7.499999999999997 77.00000000000006 3.0
    vertex 5.681851652578132 73.5176380902051 3.0
  endloop
endfacet
facet normal 0.0 0.0 1.0
  outer loop
    vertex 5.681851652578132 73.5176380902051 3.0
    vertex 7.499999999999997 77.00000000000006 3.0
    vertex 5.482050807568877 74.00000000000007 3.0
  endloop
endfacet
facet normal 0.0 0.0 1.0
  outer loop
    vertex 5.482050807568877 74.00000000000007 3.0
    vertex 7.499999999999997 77.00000000000006 3.0
    vertex 5.164213562373098 74.41421356237316 3.0
  endloop
endfacet
facet normal 0.0 0.0 1.0
  outer loop
    vertex 5.164213562373098 74.41421356237316 3.0
    vertex 7.499999999999997 77.00000000000006 3.0
    vertex 4.749999999999997 74.73205080756894 3.0
  endloop
endfacet
facet normal 0.0 0.0 1.0
  outer loop
    vertex 4.749999999999997 74.73205080756894 3.0
    vertex 7.499999999999997 77.00000000000006 3.0
    vertex 4.267638090205039 74.9318516525782 3.0
  endloop
endfacet
facet normal 0.0 0.0 1.0
  outer loop
    vertex 4.267638090205039 74.9318516525782 3.0
    vertex 7.499999999999997 77.00000000000006 3.0
    vertex 3.7499999999999987 75.00000000000007 3.0
  endloop
endfacet
facet normal 0.0 0.0 1.0
  outer loop
    vertex 7.5 52.000000000000064 3.0
    vertex 5.749999999999995 73.00000000000006 3.0
    vertex 5.681851652578132 72.48236190979502 3.0
  endloop
endfacet
facet normal 0.0 0.0 1.0
  outer loop
    vertex 7.5 52.000000000000064 3.0
    vertex 5.681851652578132 72.48236190979502 3.0
    vertex 5.482050807568877 72.00000000000006 3.0
  endloop
endfacet
facet normal 0.0 0.0 1.0
  outer loop
    vertex 7.5 52.000000000000064 3.0
    vertex 5.482050807568877 72.00000000000006 3.0
    vertex 5.164213562373098 71.58578643762696 3.0
  endloop
endfacet
facet normal 0.0 0.0 1.0
  outer loop
    vertex 7.5 52.000000000000064 3.0
    vertex 5.164213562373098 71.58578643762696 3.0
    vertex 4.749999999999997 71.26794919243117 3.0
  endloop
endfacet
facet normal 0.0 0.0 1.0
  outer loop
    vertex 7.5 52.000000000000064 3.0
    vertex 4.749999999999997 71.26794919243117 3.0
    vertex 4.267638090205044 71.06814834742192 3.0
  endloop
endfacet
facet normal 0.0 0.0 1.0
  outer loop
    vertex 7.5 52.000000000000064 3.0
    vertex 4.267638090205044 71.06814834742192 3.0
    vertex 3.7499999999999987 71.00000000000006 3.0
  endloop
endfacet
facet normal 0.0 0.0 1.0
  outer loop
    vertex 7.5 52.000000000000064 3.0
    vertex 3.7499999999999987 71.00000000000006 3.0
    vertex 0.0 52.000000000000064 3.0
  endloop
endfacet
facet normal 0.0 0.0 1.0
  outer loop
    vertex 7.049916206369744e-16 7.895906151134113e-14 3.0
    vertex 7.499999999999997 25.00000000000007 3.0
    vertex 7.049916206369744e-16 25.00000000000007 3.0
  endloop
endfacet
facet normal 0.0 0.0 1.0
  outer loop
    vertex 7.499999999999997 25.00000000000007 3.0
    vertex 7.049916206369744e-16 7.895906151134113e-14 3.0
    vertex 1.8181483474218674 4.517638090205117 3.0
  endloop
endfacet
facet normal 0.0 0.0 1.0
  outer loop
    vertex 7.499999999999997 25.00000000000007 3.0
    vertex 1.8181483474218674 4.517638090205117 3.0
    vertex 2.0179491924311277 5.00000000000007 3.0
  endloop
endfacet
facet normal 0.0 0.0 1.0
  outer loop
    vertex 7.499999999999997 25.00000000000007 3.0
    vertex 2.0179491924311277 5.00000000000007 3.0
    vertex 2.3357864376269073 5.414213562373159 3.0
  endloop
endfacet
facet normal 0.0 0.0 1.0
  outer loop
    vertex 7.499999999999997 25.00000000000007 3.0
    vertex 2.3357864376269073 5.414213562373159 3.0
    vertex 2.750000000000002 5.73205080756895 3.0
  endloop
endfacet
facet normal 0.0 0.0 1.0
  outer loop
    vertex 7.499999999999997 25.00000000000007 3.0
    vertex 2.750000000000002 5.73205080756895 3.0
    vertex 3.2323619097949603 5.931851652578205 3.0
  endloop
endfacet
facet normal 0.0 0.0 1.0
  outer loop
    vertex 7.499999999999997 25.00000000000007 3.0
    vertex 3.2323619097949603 5.931851652578205 3.0
    vertex 3.75 6.000000000000068 3.0
  endloop
endfacet
facet normal 0.0 0.0 1.0
  outer loop
    vertex 1.8181483474218674 4.517638090205117 3.0
    vertex 7.049916206369744e-16 7.895906151134113e-14 3.0
    vertex 1.7500000000000038 4.000000000000072 3.0
  endloop
endfacet
facet normal 0.0 0.0 1.0
  outer loop
    vertex 1.7500000000000038 4.000000000000072 3.0
    vertex 7.049916206369744e-16 7.895906151134113e-14 3.0
    vertex 1.8181483474218674 3.482361909795026 3.0
  endloop
endfacet
facet normal 0.0 0.0 1.0
  outer loop
    vertex 1.8181483474218674 3.482361909795026 3.0
    vertex 7.049916206369744e-16 7.895906151134113e-14 3.0
    vertex 2.0179491924311277 3.0000000000000733 3.0
  endloop
endfacet
facet normal 0.0 0.0 1.0
  outer loop
    vertex 2.0179491924311277 3.0000000000000733 3.0
    vertex 7.049916206369744e-16 7.895906151134113e-14 3.0
    vertex 2.3357864376269073 2.585786437626984 3.0
  endloop
endfacet
facet normal 0.0 0.0 1.0
  outer loop
    vertex 2.3357864376269073 2.585786437626984 3.0
    vertex 7.049916206369744e-16 7.895906151134113e-14 3.0
    vertex 2.750000000000002 2.2679491924311934 3.0
  endloop
endfacet
facet normal 0.0 0.0 1.0
  outer loop
    vertex 2.750000000000002 2.2679491924311934 3.0
    vertex 7.049916206369744e-16 7.895906151134113e-14 3.0
    vertex 3.2323619097949603 2.0681483474219386 3.0
  endloop
endfacet
facet normal 0.0 0.0 1.0
  outer loop
    vertex 3.2323619097949603 2.0681483474219386 3.0
    vertex 7.049916206369744e-16 7.895906151134113e-14 3.0
    vertex 3.75 2.0000000000000755 3.0
  endloop
endfacet
facet normal 0.0 0.0 1.0
  outer loop
    vertex 7.499999999999997 25.00000000000007 3.0
    vertex 5.681851652578133 4.517638090205117 3.0
    vertex 7.499999999999997 7.895906151134113e-14 3.0
  endloop
endfacet
facet normal 0.0 0.0 1.0
  outer loop
    vertex 5.681851652578133 4.517638090205117 3.0
    vertex 7.499999999999997 25.00000000000007 3.0
    vertex 5.482050807568873 5.00000000000007 3.0
  endloop
endfacet
facet normal 0.0 0.0 1.0
  outer loop
    vertex 5.482050807568873 5.00000000000007 3.0
    vertex 7.499999999999997 25.00000000000007 3.0
    vertex 5.164213562373093 5.41421356237317 3.0
  endloop
endfacet
facet normal 0.0 0.0 1.0
  outer loop
    vertex 5.164213562373093 5.41421356237317 3.0
    vertex 7.499999999999997 25.00000000000007 3.0
    vertex 4.749999999999998 5.73205080756895 3.0
  endloop
endfacet
facet normal 0.0 0.0 1.0
  outer loop
    vertex 4.749999999999998 5.73205080756895 3.0
    vertex 7.499999999999997 25.00000000000007 3.0
    vertex 4.26763809020504 5.931851652578205 3.0
  endloop
endfacet
facet normal 0.0 0.0 1.0
  outer loop
    vertex 4.26763809020504 5.931851652578205 3.0
    vertex 7.499999999999997 25.00000000000007 3.0
    vertex 3.75 6.000000000000068 3.0
  endloop
endfacet
facet normal 0.0 0.0 1.0
  outer loop
    vertex 7.499999999999997 7.895906151134113e-14 3.0
    vertex 5.681851652578133 4.517638090205117 3.0
    vertex 5.7499999999999964 4.000000000000072 3.0
  endloop
endfacet
facet normal 0.0 0.0 1.0
  outer loop
    vertex 7.499999999999997 7.895906151134113e-14 3.0
    vertex 5.7499999999999964 4.000000000000072 3.0
    vertex 5.681851652578133 3.4823619097950376 3.0
  endloop
endfacet
facet normal 0.0 0.0 1.0
  outer loop
    vertex 7.499999999999997 7.895906151134113e-14 3.0
    vertex 5.681851652578133 3.4823619097950376 3.0
    vertex 5.4820508075688785 3.0000000000000733 3.0
  endloop
endfacet
facet normal 0.0 0.0 1.0
  outer loop
    vertex 7.499999999999997 7.895906151134113e-14 3.0
    vertex 5.4820508075688785 3.0000000000000733 3.0
    vertex 5.164213562373093 2.585786437626984 3.0
  endloop
endfacet
facet normal 0.0 0.0 1.0
  outer loop
    vertex 7.499999999999997 7.895906151134113e-14 3.0
    vertex 5.164213562373093 2.585786437626984 3.0
    vertex 4.749999999999998 2.2679491924311934 3.0
  endloop
endfacet
facet normal 0.0 0.0 1.0
  outer loop
    vertex 7.499999999999997 7.895906151134113e-14 3.0
    vertex 4.749999999999998 2.2679491924311934 3.0
    vertex 4.267638090205046 2.0681483474219386 3.0
  endloop
endfacet
facet normal 0.0 0.0 1.0
  outer loop
    vertex 7.499999999999997 7.895906151134113e-14 3.0
    vertex 4.267638090205046 2.0681483474219386 3.0
    vertex 3.75 2.0000000000000755 3.0
  endloop
endfacet
facet normal 0.0 0.0 1.0
  outer loop
    vertex 7.499999999999997 7.895906151134113e-14 3.0
    vertex 3.75 2.0000000000000755 3.0
    vertex 7.049916206369744e-16 7.895906151134113e-14 3.0
  endloop
endfacet
facet normal -0.7933533402912413 -0.6087614290087128 0.0
  outer loop
    vertex 5.482050807568873 5.00000000000007 3.0
    vertex 5.164213562373093 5.41421356237317 7.754907827006718e-15
    vertex 5.482050807568873 5.00000000000007 7.754907827006718e-15
  endloop
endfacet
facet normal -0.7933533402912413 -0.6087614290087128 0.0
  outer loop
    vertex 5.164213562373093 5.41421356237317 7.754907827006718e-15
    vertex 5.482050807568873 5.00000000000007 3.0
    vertex 5.164213562373093 5.41421356237317 3.0
  endloop
endfacet
facet normal 0.3826834323650821 0.92387953251129 0.0
  outer loop
    vertex 3.232361909794959 71.06814834742192 3.0
    vertex 2.7500000000000004 71.26794919243117 2.114974861910923e-15
    vertex 2.7500000000000004 71.26794919243117 3.0
  endloop
endfacet
facet normal 0.3826834323650821 0.92387953251129 0.0
  outer loop
    vertex 2.7500000000000004 71.26794919243117 2.114974861910923e-15
    vertex 3.232361909794959 71.06814834742192 3.0
    vertex 3.232361909794959 71.06814834742192 2.114974861910923e-15
  endloop
endfacet
facet normal -0.38268343236508595 0.9238795325112884 0.0
  outer loop
    vertex 4.749999999999997 71.26794919243117 3.0
    vertex 4.267638090205044 71.06814834742192 2.114974861910923e-15
    vertex 4.267638090205044 71.06814834742192 3.0
  endloop
endfacet
facet normal -0.38268343236508595 0.9238795325112884 0.0
  outer loop
    vertex 4.267638090205044 71.06814834742192 2.114974861910923e-15
    vertex 4.749999999999997 71.26794919243117 3.0
    vertex 4.749999999999997 71.26794919243117 2.114974861910923e-15
  endloop
endfacet
facet normal 4.961125060053556e-17 -2.033688780503513e-17 -1.0
  outer loop
    vertex 7.499999999999997 7.895906151134113e-14 0.0
    vertex 7.049916206369744e-16 25.00000000000007 5.639932965095795e-15
    vertex 7.499999999999997 25.00000000000007 8.459899447643692e-15
  endloop
endfacet
facet normal 4.961125060053556e-17 -2.033688780503513e-17 -1.0
  outer loop
    vertex 7.049916206369744e-16 25.00000000000007 5.639932965095795e-15
    vertex 7.499999999999997 7.895906151134113e-14 0.0
    vertex 5.681851652578133 4.517638090205117 7.754907827006718e-15
  endloop
endfacet
facet normal 4.961125060053556e-17 -2.033688780503513e-17 -1.0
  outer loop
    vertex 7.049916206369744e-16 25.00000000000007 5.639932965095795e-15
    vertex 5.681851652578133 4.517638090205117 7.754907827006718e-15
    vertex 5.482050807568873 5.00000000000007 7.754907827006718e-15
  endloop
endfacet
facet normal 4.961125060053556e-17 -2.033688780503513e-17 -1.0
  outer loop
    vertex 7.049916206369744e-16 25.00000000000007 5.639932965095795e-15
    vertex 5.482050807568873 5.00000000000007 7.754907827006718e-15
    vertex 5.164213562373093 5.41421356237317 7.754907827006718e-15
  endloop
endfacet
facet normal 4.961125060053556e-17 -2.033688780503513e-17 -1.0
  outer loop
    vertex 7.049916206369744e-16 25.00000000000007 5.639932965095795e-15
    vertex 5.164213562373093 5.41421356237317 7.754907827006718e-15
    vertex 4.749999999999998 5.73205080756895 7.754907827006718e-15
  endloop
endfacet
facet normal 4.961125060053556e-17 -2.033688780503513e-17 -1.0
  outer loop
    vertex 7.049916206369744e-16 25.00000000000007 5.639932965095795e-15
    vertex 4.749999999999998 5.73205080756895 7.754907827006718e-15
    vertex 4.26763809020504 5.931851652578205 7.754907827006718e-15
  endloop
endfacet
facet normal 4.961125060053556e-17 -2.033688780503513e-17 -1.0
  outer loop
    vertex 7.049916206369744e-16 25.00000000000007 5.639932965095795e-15
    vertex 4.26763809020504 5.931851652578205 7.754907827006718e-15
    vertex 3.75 6.000000000000068 7.754907827006718e-15
  endloop
endfacet
facet normal 4.961125060053556e-17 -2.033688780503513e-17 -1.0
  outer loop
    vertex 5.681851652578133 4.517638090205117 7.754907827006718e-15
    vertex 7.499999999999997 7.895906151134113e-14 0.0
    vertex 5.7499999999999964 4.000000000000072 7.754907827006718e-15
  endloop
endfacet
facet normal 4.961125060053556e-17 -2.033688780503513e-17 -1.0
  outer loop
    vertex 5.7499999999999964 4.000000000000072 7.754907827006718e-15
    vertex 7.499999999999997 7.895906151134113e-14 0.0
    vertex 5.681851652578133 3.4823619097950376 7.754907827006718e-15
  endloop
endfacet
facet normal 4.961125060053556e-17 -2.033688780503513e-17 -1.0
  outer loop
    vertex 5.681851652578133 3.4823619097950376 7.754907827006718e-15
    vertex 7.499999999999997 7.895906151134113e-14 0.0
    vertex 5.4820508075688785 3.0000000000000733 7.754907827006718e-15
  endloop
endfacet
facet normal 4.961125060053556e-17 -2.033688780503513e-17 -1.0
  outer loop
    vertex 5.4820508075688785 3.0000000000000733 7.754907827006718e-15
    vertex 7.499999999999997 7.895906151134113e-14 0.0
    vertex 5.164213562373093 2.585786437626984 7.754907827006718e-15
  endloop
endfacet
facet normal 4.961125060053556e-17 -2.033688780503513e-17 -1.0
  outer loop
    vertex 5.164213562373093 2.585786437626984 7.754907827006718e-15
    vertex 7.499999999999997 7.895906151134113e-14 0.0
    vertex 4.749999999999998 2.2679491924311934 7.754907827006718e-15
  endloop
endfacet
facet normal 4.961125060053556e-17 -2.033688780503513e-17 -1.0
  outer loop
    vertex 4.749999999999998 2.2679491924311934 7.754907827006718e-15
    vertex 7.499999999999997 7.895906151134113e-14 0.0
    vertex 4.267638090205046 2.0681483474219386 7.754907827006718e-15
  endloop
endfacet
facet normal 4.961125060053556e-17 -2.033688780503513e-17 -1.0
  outer loop
    vertex 4.267638090205046 2.0681483474219386 7.754907827006718e-15
    vertex 7.499999999999997 7.895906151134113e-14 0.0
    vertex 3.75 2.0000000000000755 7.754907827006718e-15
  endloop
endfacet
facet normal 4.961125060053556e-17 -2.033688780503513e-17 -1.0
  outer loop
    vertex 7.049916206369744e-16 25.00000000000007 5.639932965095795e-15
    vertex 1.8181483474218674 4.517638090205117 7.754907827006718e-15
    vertex 7.049916206369744e-16 7.895906151134113e-14 0.0
  endloop
endfacet
facet normal 4.961125060053556e-17 -2.033688780503513e-17 -1.0
  outer loop
    vertex 1.8181483474218674 4.517638090205117 7.754907827006718e-15
    vertex 7.049916206369744e-16 25.00000000000007 5.639932965095795e-15
    vertex 2.0179491924311277 5.00000000000007 7.754907827006718e-15
  endloop
endfacet
facet normal 4.961125060053556e-17 -2.033688780503513e-17 -1.0
  outer loop
    vertex 2.0179491924311277 5.00000000000007 7.754907827006718e-15
    vertex 7.049916206369744e-16 25.00000000000007 5.639932965095795e-15
    vertex 2.3357864376269073 5.414213562373159 7.754907827006718e-15
  endloop
endfacet
facet normal 4.961125060053556e-17 -2.033688780503513e-17 -1.0
  outer loop
    vertex 2.3357864376269073 5.414213562373159 7.754907827006718e-15
    vertex 7.049916206369744e-16 25.00000000000007 5.639932965095795e-15
    vertex 2.750000000000002 5.73205080756895 7.754907827006718e-15
  endloop
endfacet
facet normal 4.961125060053556e-17 -2.033688780503513e-17 -1.0
  outer loop
    vertex 2.750000000000002 5.73205080756895 7.754907827006718e-15
    vertex 7.049916206369744e-16 25.00000000000007 5.639932965095795e-15
    vertex 3.2323619097949603 5.931851652578205 7.754907827006718e-15
  endloop
endfacet
facet normal 4.961125060053556e-17 -2.033688780503513e-17 -1.0
  outer loop
    vertex 3.2323619097949603 5.931851652578205 7.754907827006718e-15
    vertex 7.049916206369744e-16 25.00000000000007 5.639932965095795e-15
    vertex 3.75 6.000000000000068 7.754907827006718e-15
  endloop
endfacet
facet normal 4.961125060053556e-17 -2.033688780503513e-17 -1.0
  outer loop
    vertex 7.049916206369744e-16 7.895906151134113e-14 0.0
    vertex 1.8181483474218674 4.517638090205117 7.754907827006718e-15
    vertex 1.7500000000000038 4.000000000000072 7.754907827006718e-15
  endloop
endfacet
facet normal 4.961125060053556e-17 -2.033688780503513e-17 -1.0
  outer loop
    vertex 7.049916206369744e-16 7.895906151134113e-14 0.0
    vertex 1.7500000000000038 4.000000000000072 7.754907827006718e-15
    vertex 1.8181483474218674 3.482361909795026 7.754907827006718e-15
  endloop
endfacet
facet normal 4.961125060053556e-17 -2.033688780503513e-17 -1.0
  outer loop
    vertex 7.049916206369744e-16 7.895906151134113e-14 0.0
    vertex 1.8181483474218674 3.482361909795026 7.754907827006718e-15
    vertex 2.0179491924311277 3.0000000000000733 7.754907827006718e-15
  endloop
endfacet
facet normal 4.961125060053556e-17 -2.033688780503513e-17 -1.0
  outer loop
    vertex 7.049916206369744e-16 7.895906151134113e-14 0.0
    vertex 2.0179491924311277 3.0000000000000733 7.754907827006718e-15
    vertex 2.3357864376269073 2.585786437626984 7.754907827006718e-15
  endloop
endfacet
facet normal 4.961125060053556e-17 -2.033688780503513e-17 -1.0
  outer loop
    vertex 7.049916206369744e-16 7.895906151134113e-14 0.0
    vertex 2.3357864376269073 2.585786437626984 7.754907827006718e-15
    vertex 2.750000000000002 2.2679491924311934 7.754907827006718e-15
  endloop
endfacet
facet normal 4.961125060053556e-17 -2.033688780503513e-17 -1.0
  outer loop
    vertex 7.049916206369744e-16 7.895906151134113e-14 0.0
    vertex 2.750000000000002 2.2679491924311934 7.754907827006718e-15
    vertex 3.2323619097949603 2.0681483474219386 7.754907827006718e-15
  endloop
endfacet
facet normal 4.961125060053556e-17 -2.033688780503513e-17 -1.0
  outer loop
    vertex 7.049916206369744e-16 7.895906151134113e-14 0.0
    vertex 3.2323619097949603 2.0681483474219386 7.754907827006718e-15
    vertex 3.75 2.0000000000000755 7.754907827006718e-15
  endloop
endfacet
facet normal 4.961125060053556e-17 -2.033688780503513e-17 -1.0
  outer loop
    vertex 7.049916206369744e-16 7.895906151134113e-14 0.0
    vertex 3.75 2.0000000000000755 7.754907827006718e-15
    vertex 7.499999999999997 7.895906151134113e-14 0.0
  endloop
endfacet
facet normal 4.961125060053556e-17 -2.033688780503513e-17 -1.0
  outer loop
    vertex 7.499999999999997 77.00000000000006 0.0
    vertex 4.749999999999997 74.73205080756894 2.114974861910923e-15
    vertex 2.8199664825478975e-15 77.00000000000006 0.0
  endloop
endfacet
facet normal 4.961125060053556e-17 -2.033688780503513e-17 -1.0
  outer loop
    vertex 4.749999999999997 74.73205080756894 2.114974861910923e-15
    vertex 7.499999999999997 77.00000000000006 0.0
    vertex 5.164213562373098 74.41421356237316 2.114974861910923e-15
  endloop
endfacet
facet normal 4.961125060053556e-17 -2.033688780503513e-17 -1.0
  outer loop
    vertex 5.164213562373098 74.41421356237316 2.114974861910923e-15
    vertex 7.499999999999997 77.00000000000006 0.0
    vertex 5.482050807568877 74.00000000000007 2.114974861910923e-15
  endloop
endfacet
facet normal 4.961125060053556e-17 -2.033688780503513e-17 -1.0
  outer loop
    vertex 5.482050807568877 74.00000000000007 2.114974861910923e-15
    vertex 7.499999999999997 77.00000000000006 0.0
    vertex 5.681851652578132 73.5176380902051 2.114974861910923e-15
  endloop
endfacet
facet normal 4.961125060053556e-17 -2.033688780503513e-17 -1.0
  outer loop
    vertex 5.681851652578132 73.5176380902051 2.114974861910923e-15
    vertex 7.499999999999997 77.00000000000006 0.0
    vertex 5.749999999999995 73.00000000000006 2.114974861910923e-15
  endloop
endfacet
facet normal 4.961125060053556e-17 -2.033688780503513e-17 -1.0
  outer loop
    vertex 5.749999999999995 73.00000000000006 2.114974861910923e-15
    vertex 7.499999999999997 77.00000000000006 0.0
    vertex 7.5 52.000000000000064 4.245238247066381e-15
  endloop
endfacet
facet normal 4.961125060053556e-17 -2.033688780503513e-17 -1.0
  outer loop
    vertex 2.8199664825478975e-15 77.00000000000006 0.0
    vertex 4.749999999999997 74.73205080756894 2.114974861910923e-15
    vertex 4.267638090205039 74.9318516525782 2.114974861910923e-15
  endloop
endfacet
facet normal 4.961125060053556e-17 -2.033688780503513e-17 -1.0
  outer loop
    vertex 2.8199664825478975e-15 77.00000000000006 0.0
    vertex 4.267638090205039 74.9318516525782 2.114974861910923e-15
    vertex 3.7499999999999987 75.00000000000007 2.114974861910923e-15
  endloop
endfacet
facet normal 4.961125060053556e-17 -2.033688780503513e-17 -1.0
  outer loop
    vertex 5.749999999999995 73.00000000000006 2.114974861910923e-15
    vertex 7.5 52.000000000000064 4.245238247066381e-15
    vertex 5.681851652578132 72.48236190979502 2.114974861910923e-15
  endloop
endfacet
facet normal 4.961125060053556e-17 -2.033688780503513e-17 -1.0
  outer loop
    vertex 5.681851652578132 72.48236190979502 2.114974861910923e-15
    vertex 7.5 52.000000000000064 4.245238247066381e-15
    vertex 5.482050807568877 72.00000000000006 2.114974861910923e-15
  endloop
endfacet
facet normal 4.961125060053556e-17 -2.033688780503513e-17 -1.0
  outer loop
    vertex 5.482050807568877 72.00000000000006 2.114974861910923e-15
    vertex 7.5 52.000000000000064 4.245238247066381e-15
    vertex 5.164213562373098 71.58578643762696 2.114974861910923e-15
  endloop
endfacet
facet normal 4.961125060053556e-17 -2.033688780503513e-17 -1.0
  outer loop
    vertex 5.164213562373098 71.58578643762696 2.114974861910923e-15
    vertex 7.5 52.000000000000064 4.245238247066381e-15
    vertex 4.749999999999997 71.26794919243117 2.114974861910923e-15
  endloop
endfacet
facet normal 4.961125060053556e-17 -2.033688780503513e-17 -1.0
  outer loop
    vertex 4.749999999999997 71.26794919243117 2.114974861910923e-15
    vertex 7.5 52.000000000000064 4.245238247066381e-15
    vertex 4.267638090205044 71.06814834742192 2.114974861910923e-15
  endloop
endfacet
facet normal 4.961125060053556e-17 -2.033688780503513e-17 -1.0
  outer loop
    vertex 4.267638090205044 71.06814834742192 2.114974861910923e-15
    vertex 7.5 52.000000000000064 4.245238247066381e-15
    vertex 3.7499999999999987 71.00000000000006 2.114974861910923e-15
  endloop
endfacet
facet normal 4.961125060053556e-17 -2.033688780503513e-17 -1.0
  outer loop
    vertex 11.999999999999998 25.00000000000007 8.482736372523304e-15
    vertex 7.5 52.000000000000064 4.245238247066381e-15
    vertex 11.999999999999993 52.000000000000064 4.268075171945993e-15
  endloop
endfacet
facet normal 4.961125060053556e-17 -2.033688780503513e-17 -1.0
  outer loop
    vertex 7.5 52.000000000000064 4.245238247066381e-15
    vertex 11.999999999999998 25.00000000000007 8.482736372523304e-15
    vertex 0.0 52.000000000000064 4.950229867703355e-15
  endloop
endfacet
facet normal 4.961125060053556e-17 -2.033688780503513e-17 -1.0
  outer loop
    vertex 0.0 52.000000000000064 4.950229867703355e-15
    vertex 11.999999999999998 25.00000000000007 8.482736372523304e-15
    vertex -4.499999999999985 52.000000000000064 4.950229867703355e-15
  endloop
endfacet
facet normal 4.961125060053556e-17 -2.033688780503513e-17 -1.0
  outer loop
    vertex -4.499999999999985 52.000000000000064 4.950229867703355e-15
    vertex 11.999999999999998 25.00000000000007 8.482736372523304e-15
    vertex -4.5 25.00000000000007 5.639932965095795e-15
  endloop
endfacet
facet normal 4.961125060053556e-17 -2.033688780503513e-17 -1.0
  outer loop
    vertex -4.5 25.00000000000007 5.639932965095795e-15
    vertex 11.999999999999998 25.00000000000007 8.482736372523304e-15
    vertex 7.499999999999997 25.00000000000007 8.459899447643692e-15
  endloop
endfacet
facet normal 4.961125060053556e-17 -2.033688780503513e-17 -1.0
  outer loop
    vertex -4.5 25.00000000000007 5.639932965095795e-15
    vertex 7.499999999999997 25.00000000000007 8.459899447643692e-15
    vertex 7.049916206369744e-16 25.00000000000007 5.639932965095795e-15
  endloop
endfacet
facet normal 4.961125060053556e-17 -2.033688780503513e-17 -1.0
  outer loop
    vertex 2.8199664825478975e-15 77.00000000000006 0.0
    vertex 1.7500000000000024 73.00000000000006 2.114974861910923e-15
    vertex 0.0 52.000000000000064 4.950229867703355e-15
  endloop
endfacet
facet normal 4.961125060053556e-17 -2.033688780503513e-17 -1.0
  outer loop
    vertex 1.7500000000000024 73.00000000000006 2.114974861910923e-15
    vertex 2.8199664825478975e-15 77.00000000000006 0.0
    vertex 1.8181483474218603 73.5176380902051 2.114974861910923e-15
  endloop
endfacet
facet normal 4.961125060053556e-17 -2.033688780503513e-17 -1.0
  outer loop
    vertex 1.8181483474218603 73.5176380902051 2.114974861910923e-15
    vertex 2.8199664825478975e-15 77.00000000000006 0.0
    vertex 2.0179491924311206 74.00000000000006 2.114974861910923e-15
  endloop
endfacet
facet normal 4.961125060053556e-17 -2.033688780503513e-17 -1.0
  outer loop
    vertex 2.0179491924311206 74.00000000000006 2.114974861910923e-15
    vertex 2.8199664825478975e-15 77.00000000000006 0.0
    vertex 2.3357864376269 74.41421356237316 2.114974861910923e-15
  endloop
endfacet
facet normal 4.961125060053556e-17 -2.033688780503513e-17 -1.0
  outer loop
    vertex 2.3357864376269 74.41421356237316 2.114974861910923e-15
    vertex 2.8199664825478975e-15 77.00000000000006 0.0
    vertex 2.7500000000000004 74.73205080756894 2.114974861910923e-15
  endloop
endfacet
facet normal 4.961125060053556e-17 -2.033688780503513e-17 -1.0
  outer loop
    vertex 2.7500000000000004 74.73205080756894 2.114974861910923e-15
    vertex 2.8199664825478975e-15 77.00000000000006 0.0
    vertex 3.232361909794953 74.9318516525782 2.114974861910923e-15
  endloop
endfacet
facet normal 4.961125060053556e-17 -2.033688780503513e-17 -1.0
  outer loop
    vertex 3.232361909794953 74.9318516525782 2.114974861910923e-15
    vertex 2.8199664825478975e-15 77.00000000000006 0.0
    vertex 3.7499999999999987 75.00000000000007 2.114974861910923e-15
  endloop
endfacet
facet normal 4.961125060053556e-17 -2.033688780503513e-17 -1.0
  outer loop
    vertex 0.0 52.000000000000064 4.950229867703355e-15
    vertex 1.7500000000000024 73.00000000000006 2.114974861910923e-15
    vertex 1.818148347421866 72.48236190979502 2.114974861910923e-15
  endloop
endfacet
facet normal 4.961125060053556e-17 -2.033688780503513e-17 -1.0
  outer loop
    vertex 0.0 52.000000000000064 4.950229867703355e-15
    vertex 1.818148347421866 72.48236190979502 2.114974861910923e-15
    vertex 2.0179491924311206 72.00000000000006 2.114974861910923e-15
  endloop
endfacet
facet normal 4.961125060053556e-17 -2.033688780503513e-17 -1.0
  outer loop
    vertex 0.0 52.000000000000064 4.950229867703355e-15
    vertex 2.0179491924311206 72.00000000000006 2.114974861910923e-15
    vertex 2.335786437626906 71.58578643762696 2.114974861910923e-15
  endloop
endfacet
facet normal 4.961125060053556e-17 -2.033688780503513e-17 -1.0
  outer loop
    vertex 0.0 52.000000000000064 4.950229867703355e-15
    vertex 2.335786437626906 71.58578643762696 2.114974861910923e-15
    vertex 2.7500000000000004 71.26794919243117 2.114974861910923e-15
  endloop
endfacet
facet normal 4.961125060053556e-17 -2.033688780503513e-17 -1.0
  outer loop
    vertex 0.0 52.000000000000064 4.950229867703355e-15
    vertex 2.7500000000000004 71.26794919243117 2.114974861910923e-15
    vertex 3.232361909794959 71.06814834742192 2.114974861910923e-15
  endloop
endfacet
facet normal 4.961125060053556e-17 -2.033688780503513e-17 -1.0
  outer loop
    vertex 0.0 52.000000000000064 4.950229867703355e-15
    vertex 3.232361909794959 71.06814834742192 2.114974861910923e-15
    vertex 3.7499999999999987 71.00000000000006 2.114974861910923e-15
  endloop
endfacet
facet normal 4.961125060053556e-17 -2.033688780503513e-17 -1.0
  outer loop
    vertex 0.0 52.000000000000064 4.950229867703355e-15
    vertex 3.7499999999999987 71.00000000000006 2.114974861910923e-15
    vertex 7.5 52.000000000000064 4.245238247066381e-15
  endloop
endfacet
facet normal 0.13052619222005216 0.9914448613738105 0.0
  outer loop
    vertex 3.7499999999999987 71.00000000000006 3.0
    vertex 3.232361909794959 71.06814834742192 2.114974861910923e-15
    vertex 3.232361909794959 71.06814834742192 3.0
  endloop
endfacet
facet normal 0.13052619222005216 0.9914448613738105 0.0
  outer loop
    vertex 3.232361909794959 71.06814834742192 2.114974861910923e-15
    vertex 3.7499999999999987 71.00000000000006 3.0
    vertex 3.7499999999999987 71.00000000000006 2.114974861910923e-15
  endloop
endfacet
facet normal -0.6087614290087263 0.793353340291231 0.0
  outer loop
    vertex 5.164213562373098 71.58578643762696 3.0
    vertex 4.749999999999997 71.26794919243117 2.114974861910923e-15
    vertex 4.749999999999997 71.26794919243117 3.0
  endloop
endfacet
facet normal -0.6087614290087263 0.793353340291231 0.0
  outer loop
    vertex 4.749999999999997 71.26794919243117 2.114974861910923e-15
    vertex 5.164213562373098 71.58578643762696 3.0
    vertex 5.164213562373098 71.58578643762696 2.114974861910923e-15
  endloop
endfacet
facet normal -0.7933533402912333 0.6087614290087232 0.0
  outer loop
    vertex 5.164213562373098 71.58578643762696 3.0
    vertex 5.482050807568877 72.00000000000006 2.114974861910923e-15
    vertex 5.164213562373098 71.58578643762696 2.114974861910923e-15
  endloop
endfacet
facet normal -0.7933533402912333 0.6087614290087232 0.0
  outer loop
    vertex 5.482050807568877 72.00000000000006 2.114974861910923e-15
    vertex 5.164213562373098 71.58578643762696 3.0
    vertex 5.482050807568877 72.00000000000006 3.0
  endloop
endfacet
facet normal -0.9238795325112916 0.38268343236507835 0.0
  outer loop
    vertex 5.482050807568877 72.00000000000006 3.0
    vertex 5.681851652578132 72.48236190979502 2.114974861910923e-15
    vertex 5.482050807568877 72.00000000000006 2.114974861910923e-15
  endloop
endfacet
facet normal -0.9238795325112916 0.38268343236507835 0.0
  outer loop
    vertex 5.681851652578132 72.48236190979502 2.114974861910923e-15
    vertex 5.482050807568877 72.00000000000006 3.0
    vertex 5.681851652578132 72.48236190979502 3.0
  endloop
endfacet
facet normal -0.9914448613738103 0.1305261922200536 0.0
  outer loop
    vertex 5.681851652578132 72.48236190979502 3.0
    vertex 5.749999999999995 73.00000000000006 2.114974861910923e-15
    vertex 5.681851652578132 72.48236190979502 2.114974861910923e-15
  endloop
endfacet
facet normal -0.9914448613738103 0.1305261922200536 0.0
  outer loop
    vertex 5.749999999999995 73.00000000000006 2.114974861910923e-15
    vertex 5.681851652578132 72.48236190979502 3.0
    vertex 5.749999999999995 73.00000000000006 3.0
  endloop
endfacet
facet normal -0.9914448613738105 -0.13052619222005077 0.0
  outer loop
    vertex 5.749999999999995 73.00000000000006 3.0
    vertex 5.681851652578132 73.5176380902051 2.114974861910923e-15
    vertex 5.749999999999995 73.00000000000006 2.114974861910923e-15
  endloop
endfacet
facet normal -0.9914448613738105 -0.13052619222005077 0.0
  outer loop
    vertex 5.681851652578132 73.5176380902051 2.114974861910923e-15
    vertex 5.749999999999995 73.00000000000006 3.0
    vertex 5.681851652578132 73.5176380902051 3.0
  endloop
endfacet
facet normal -0.9238795325112916 -0.38268343236507835 0.0
  outer loop
    vertex 5.681851652578132 73.5176380902051 3.0
    vertex 5.482050807568877 74.00000000000007 2.114974861910923e-15
    vertex 5.681851652578132 73.5176380902051 2.114974861910923e-15
  endloop
endfacet
facet normal -0.9238795325112916 -0.38268343236507835 0.0
  outer loop
    vertex 5.482050807568877 74.00000000000007 2.114974861910923e-15
    vertex 5.681851652578132 73.5176380902051 3.0
    vertex 5.482050807568877 74.00000000000007 3.0
  endloop
endfacet
facet normal -0.13052619222005074 0.9914448613738105 0.0
  outer loop
    vertex 4.267638090205044 71.06814834742192 3.0
    vertex 3.7499999999999987 71.00000000000006 2.114974861910923e-15
    vertex 3.7499999999999987 71.00000000000006 3.0
  endloop
endfacet
facet normal -0.13052619222005074 0.9914448613738105 0.0
  outer loop
    vertex 3.7499999999999987 71.00000000000006 2.114974861910923e-15
    vertex 4.267638090205044 71.06814834742192 3.0
    vertex 4.267638090205044 71.06814834742192 2.114974861910923e-15
  endloop
endfacet
facet normal -0.7933533402912335 -0.6087614290087231 0.0
  outer loop
    vertex 5.482050807568877 74.00000000000007 3.0
    vertex 5.164213562373098 74.41421356237316 2.114974861910923e-15
    vertex 5.482050807568877 74.00000000000007 2.114974861910923e-15
  endloop
endfacet
facet normal -0.7933533402912335 -0.6087614290087231 0.0
  outer loop
    vertex 5.164213562373098 74.41421356237316 2.114974861910923e-15
    vertex 5.482050807568877 74.00000000000007 3.0
    vertex 5.164213562373098 74.41421356237316 3.0
  endloop
endfacet
facet normal -0.3826834323651005 -0.9238795325112823 0.0
  outer loop
    vertex 4.749999999999997 74.73205080756894 2.114974861910923e-15
    vertex 4.267638090205039 74.9318516525782 3.0
    vertex 4.267638090205039 74.9318516525782 2.114974861910923e-15
  endloop
endfacet
facet normal -0.3826834323651005 -0.9238795325112823 0.0
  outer loop
    vertex 4.267638090205039 74.9318516525782 3.0
    vertex 4.749999999999997 74.73205080756894 2.114974861910923e-15
    vertex 4.749999999999997 74.73205080756894 3.0
  endloop
endfacet
facet normal -0.6087614290087127 -0.7933533402912413 0.0
  outer loop
    vertex 5.164213562373098 74.41421356237316 2.114974861910923e-15
    vertex 4.749999999999997 74.73205080756894 3.0
    vertex 4.749999999999997 74.73205080756894 2.114974861910923e-15
  endloop
endfacet
facet normal -0.6087614290087127 -0.7933533402912413 0.0
  outer loop
    vertex 4.749999999999997 74.73205080756894 3.0
    vertex 5.164213562373098 74.41421356237316 2.114974861910923e-15
    vertex 5.164213562373098 74.41421356237316 3.0
  endloop
endfacet
facet normal -0.9914448613738103 0.13052619222005357 0.0
  outer loop
    vertex 5.681851652578133 3.4823619097950376 3.0
    vertex 5.7499999999999964 4.000000000000072 7.754907827006718e-15
    vertex 5.681851652578133 3.4823619097950376 7.754907827006718e-15
  endloop
endfacet
facet normal -0.9914448613738103 0.13052619222005357 0.0
  outer loop
    vertex 5.7499999999999964 4.000000000000072 7.754907827006718e-15
    vertex 5.681851652578133 3.4823619097950376 3.0
    vertex 5.7499999999999964 4.000000000000072 3.0
  endloop
endfacet
facet normal -0.9914448613738105 -0.13052619222005077 0.0
  outer loop
    vertex 5.7499999999999964 4.000000000000072 3.0
    vertex 5.681851652578133 4.517638090205117 7.754907827006718e-15
    vertex 5.7499999999999964 4.000000000000072 7.754907827006718e-15
  endloop
endfacet
facet normal -0.9914448613738105 -0.13052619222005077 0.0
  outer loop
    vertex 5.681851652578133 4.517638090205117 7.754907827006718e-15
    vertex 5.7499999999999964 4.000000000000072 3.0
    vertex 5.681851652578133 4.517638090205117 3.0
  endloop
endfacet
facet normal -0.9238795325112846 -0.38268343236509506 0.0
  outer loop
    vertex 5.681851652578133 4.517638090205117 3.0
    vertex 5.482050807568873 5.00000000000007 7.754907827006718e-15
    vertex 5.681851652578133 4.517638090205117 7.754907827006718e-15
  endloop
endfacet
facet normal -0.9238795325112846 -0.38268343236509506 0.0
  outer loop
    vertex 5.482050807568873 5.00000000000007 7.754907827006718e-15
    vertex 5.681851652578133 4.517638090205117 3.0
    vertex 5.482050807568873 5.00000000000007 3.0
  endloop
endfacet
facet normal 0.0 1.0 0.0
  outer loop
    vertex 7.499999999999997 77.00000000000006 3.0
    vertex 2.8199664825478975e-15 77.00000000000006 0.0
    vertex 2.8199664825478975e-15 77.00000000000006 3.0
  endloop
endfacet
facet normal 0.0 1.0 0.0
  outer loop
    vertex 2.8199664825478975e-15 77.00000000000006 0.0
    vertex 7.499999999999997 77.00000000000006 3.0
    vertex 7.499999999999997 77.00000000000006 0.0
  endloop
endfacet
facet normal 0.9238795325112846 -0.38268343236509506 0.0
  outer loop
    vertex 2.0179491924311277 5.00000000000007 3.0
    vertex 1.8181483474218674 4.517638090205117 7.754907827006718e-15
    vertex 2.0179491924311277 5.00000000000007 7.754907827006718e-15
  endloop
endfacet
facet normal 0.9238795325112846 -0.38268343236509506 0.0
  outer loop
    vertex 1.8181483474218674 4.517638090205117 7.754907827006718e-15
    vertex 2.0179491924311277 5.00000000000007 3.0
    vertex 1.8181483474218674 4.517638090205117 3.0
  endloop
endfacet
facet normal 0.9238795325112846 -0.38268343236509506 0.0
  outer loop
    vertex 2.0179491924311206 74.00000000000006 3.0
    vertex 1.8181483474218603 73.5176380902051 2.114974861910923e-15
    vertex 2.0179491924311206 74.00000000000006 2.114974861910923e-15
  endloop
endfacet
facet normal 0.9238795325112846 -0.38268343236509506 0.0
  outer loop
    vertex 1.8181483474218603 73.5176380902051 2.114974861910923e-15
    vertex 2.0179491924311206 74.00000000000006 3.0
    vertex 1.8181483474218603 73.5176380902051 3.0
  endloop
endfacet
facet normal 0.9914448613738103 0.1305261922200536 0.0
  outer loop
    vertex 1.7500000000000024 73.00000000000006 3.0
    vertex 1.818148347421866 72.48236190979502 2.114974861910923e-15
    vertex 1.7500000000000024 73.00000000000006 2.114974861910923e-15
  endloop
endfacet
facet normal 0.9914448613738103 0.1305261922200536 0.0
  outer loop
    vertex 1.818148347421866 72.48236190979502 2.114974861910923e-15
    vertex 1.7500000000000024 73.00000000000006 3.0
    vertex 1.818148347421866 72.48236190979502 3.0
  endloop
endfacet
facet normal 0.13052619222005077 -0.9914448613738105 0.0
  outer loop
    vertex 3.7499999999999987 75.00000000000007 2.114974861910923e-15
    vertex 3.232361909794953 74.9318516525782 3.0
    vertex 3.232361909794953 74.9318516525782 2.114974861910923e-15
  endloop
endfacet
facet normal 0.13052619222005077 -0.9914448613738105 0.0
  outer loop
    vertex 3.232361909794953 74.9318516525782 3.0
    vertex 3.7499999999999987 75.00000000000007 2.114974861910923e-15
    vertex 3.7499999999999987 75.00000000000007 3.0
  endloop
endfacet
facet normal -0.13052619222005216 -0.9914448613738105 0.0
  outer loop
    vertex 4.267638090205039 74.9318516525782 2.114974861910923e-15
    vertex 3.7499999999999987 75.00000000000007 3.0
    vertex 3.7499999999999987 75.00000000000007 2.114974861910923e-15
  endloop
endfacet
facet normal -0.13052619222005216 -0.9914448613738105 0.0
  outer loop
    vertex 3.7499999999999987 75.00000000000007 3.0
    vertex 4.267638090205039 74.9318516525782 2.114974861910923e-15
    vertex 4.267638090205039 74.9318516525782 3.0
  endloop
endfacet
facet normal 0.7933533402912413 -0.6087614290087127 0.0
  outer loop
    vertex 2.3357864376269 74.41421356237316 3.0
    vertex 2.0179491924311206 74.00000000000006 2.114974861910923e-15
    vertex 2.3357864376269 74.41421356237316 2.114974861910923e-15
  endloop
endfacet
facet normal 0.7933533402912413 -0.6087614290087127 0.0
  outer loop
    vertex 2.0179491924311206 74.00000000000006 2.114974861910923e-15
    vertex 2.3357864376269 74.41421356237316 3.0
    vertex 2.0179491924311206 74.00000000000006 3.0
  endloop
endfacet
facet normal 0.0 -1.0 0.0
  outer loop
    vertex 7.499999999999997 7.895906151134113e-14 0.0
    vertex 7.049916206369744e-16 7.895906151134113e-14 3.0
    vertex 7.049916206369744e-16 7.895906151134113e-14 0.0
  endloop
endfacet
facet normal 0.0 -1.0 0.0
  outer loop
    vertex 7.049916206369744e-16 7.895906151134113e-14 3.0
    vertex 7.499999999999997 7.895906151134113e-14 0.0
    vertex 7.499999999999997 7.895906151134113e-14 3.0
  endloop
endfacet
facet normal 0.6087614290087127 -0.7933533402912413 0.0
  outer loop
    vertex 2.7500000000000004 74.73205080756894 2.114974861910923e-15
    vertex 2.3357864376269 74.41421356237316 3.0
    vertex 2.3357864376269 74.41421356237316 2.114974861910923e-15
  endloop
endfacet
facet normal 0.6087614290087127 -0.7933533402912413 0.0
  outer loop
    vertex 2.3357864376269 74.41421356237316 3.0
    vertex 2.7500000000000004 74.73205080756894 2.114974861910923e-15
    vertex 2.7500000000000004 74.73205080756894 3.0
  endloop
endfacet
facet normal 0.991444861373812 -0.13052619222004014 0.0
  outer loop
    vertex 1.8181483474218603 73.5176380902051 3.0
    vertex 1.7500000000000024 73.00000000000006 2.114974861910923e-15
    vertex 1.8181483474218603 73.5176380902051 2.114974861910923e-15
  endloop
endfacet
facet normal 0.991444861373812 -0.13052619222004014 0.0
  outer loop
    vertex 1.7500000000000024 73.00000000000006 2.114974861910923e-15
    vertex 1.8181483474218603 73.5176380902051 3.0
    vertex 1.7500000000000024 73.00000000000006 3.0
  endloop
endfacet
facet normal 1.0 0.0 0.0
  outer loop
    vertex 7.499999999999997 77.00000000000006 3.0
    vertex 7.5 52.000000000000064 4.245238247066381e-15
    vertex 7.499999999999997 77.00000000000006 0.0
  endloop
endfacet
facet normal 1.0 0.0 0.0
  outer loop
    vertex 7.5 52.000000000000064 4.245238247066381e-15
    vertex 7.499999999999997 77.00000000000006 3.0
    vertex 7.5 52.000000000000064 3.0
  endloop
endfacet
facet normal 0.9238795325112916 0.38268343236507846 0.0
  outer loop
    vertex 1.818148347421866 72.48236190979502 3.0
    vertex 2.0179491924311206 72.00000000000006 2.114974861910923e-15
    vertex 1.818148347421866 72.48236190979502 2.114974861910923e-15
  endloop
endfacet
facet normal 0.9238795325112916 0.38268343236507846 0.0
  outer loop
    vertex 2.0179491924311206 72.00000000000006 2.114974861910923e-15
    vertex 1.818148347421866 72.48236190979502 3.0
    vertex 2.0179491924311206 72.00000000000006 3.0
  endloop
endfacet
facet normal 0.793353340291228 0.60876142900873 0.0
  outer loop
    vertex 2.0179491924311206 72.00000000000006 3.0
    vertex 2.335786437626906 71.58578643762696 2.114974861910923e-15
    vertex 2.0179491924311206 72.00000000000006 2.114974861910923e-15
  endloop
endfacet
facet normal 0.793353340291228 0.60876142900873 0.0
  outer loop
    vertex 2.335786437626906 71.58578643762696 2.114974861910923e-15
    vertex 2.0179491924311206 72.00000000000006 3.0
    vertex 2.335786437626906 71.58578643762696 3.0
  endloop
endfacet
facet normal 0.7933533402912333 -0.6087614290087232 0.0
  outer loop
    vertex 2.3357864376269073 5.414213562373159 3.0
    vertex 2.0179491924311277 5.00000000000007 7.754907827006718e-15
    vertex 2.3357864376269073 5.414213562373159 7.754907827006718e-15
  endloop
endfacet
facet normal 0.7933533402912333 -0.6087614290087232 0.0
  outer loop
    vertex 2.0179491924311277 5.00000000000007 7.754907827006718e-15
    vertex 2.3357864376269073 5.414213562373159 3.0
    vertex 2.0179491924311277 5.00000000000007 3.0
  endloop
endfacet
facet normal 0.6087614290087315 0.7933533402912271 0.0
  outer loop
    vertex 2.7500000000000004 71.26794919243117 3.0
    vertex 2.335786437626906 71.58578643762696 2.114974861910923e-15
    vertex 2.335786437626906 71.58578643762696 3.0
  endloop
endfacet
facet normal 0.6087614290087315 0.7933533402912271 0.0
  outer loop
    vertex 2.335786437626906 71.58578643762696 2.114974861910923e-15
    vertex 2.7500000000000004 71.26794919243117 3.0
    vertex 2.7500000000000004 71.26794919243117 2.114974861910923e-15
  endloop
endfacet
facet normal -1.0 0.0 0.0
  outer loop
    vertex 7.049916206369744e-16 7.895906151134113e-14 3.0
    vertex 7.049916206369744e-16 25.00000000000007 5.639932965095795e-15
    vertex 7.049916206369744e-16 7.895906151134113e-14 0.0
  endloop
endfacet
facet normal -1.0 0.0 0.0
  outer loop
    vertex 7.049916206369744e-16 25.00000000000007 5.639932965095795e-15
    vertex 7.049916206369744e-16 7.895906151134113e-14 3.0
    vertex 7.049916206369744e-16 25.00000000000007 3.0
  endloop
endfacet
facet normal 0.38268343236510444 -0.9238795325112809 0.0
  outer loop
    vertex 3.232361909794953 74.9318516525782 2.114974861910923e-15
    vertex 2.7500000000000004 74.73205080756894 3.0
    vertex 2.7500000000000004 74.73205080756894 2.114974861910923e-15
  endloop
endfacet
facet normal 0.38268343236510444 -0.9238795325112809 0.0
  outer loop
    vertex 2.7500000000000004 74.73205080756894 3.0
    vertex 3.232361909794953 74.9318516525782 2.114974861910923e-15
    vertex 3.232361909794953 74.9318516525782 3.0
  endloop
endfacet
endsolid servo mount
